<mxfile host="app.diagrams.net" modified="2022-01-26T20:29:31.443Z" agent="5.0 (Macintosh; Intel Mac OS X 10_15_7) AppleWebKit/537.36 (KHTML, like Gecko) Chrome/97.0.4692.99 Safari/537.36" etag="jLKqkiNelQG9dX-OKkWE" version="15.1.1" type="github">
  <diagram id="fHmGhpdco4cNdQciCXHn" name="Page-1">
    <mxGraphModel dx="2276" dy="801" grid="1" gridSize="10" guides="1" tooltips="1" connect="1" arrows="1" fold="1" page="1" pageScale="1" pageWidth="850" pageHeight="1100" math="0" shadow="0">
      <root>
        <mxCell id="0" />
        <mxCell id="1" parent="0" />
        <mxCell id="TExF2Mrxx3qCQ28c2zlm-1" value="&lt;font style=&quot;font-size: 20px&quot;&gt;create repair&lt;/font&gt;" style="rounded=1;whiteSpace=wrap;html=1;" vertex="1" parent="1">
          <mxGeometry x="100" y="320" width="180" height="60" as="geometry" />
        </mxCell>
        <mxCell id="TExF2Mrxx3qCQ28c2zlm-2" value="" style="endArrow=classic;html=1;" edge="1" parent="1">
          <mxGeometry width="50" height="50" relative="1" as="geometry">
            <mxPoint x="280" y="349.5" as="sourcePoint" />
            <mxPoint x="440" y="350" as="targetPoint" />
          </mxGeometry>
        </mxCell>
        <mxCell id="TExF2Mrxx3qCQ28c2zlm-3" value="&lt;font style=&quot;font-size: 20px&quot;&gt;send cocoabird message to show the repair overlays&lt;/font&gt;" style="rounded=1;whiteSpace=wrap;html=1;" vertex="1" parent="1">
          <mxGeometry x="443" y="290" width="180" height="120" as="geometry" />
        </mxCell>
        <mxCell id="TExF2Mrxx3qCQ28c2zlm-4" value="&lt;font style=&quot;font-size: 20px&quot;&gt;current behavior&lt;/font&gt;" style="text;html=1;align=center;verticalAlign=middle;resizable=0;points=[];autosize=1;strokeColor=none;fillColor=none;" vertex="1" parent="1">
          <mxGeometry x="-30" y="280" width="160" height="20" as="geometry" />
        </mxCell>
        <mxCell id="TExF2Mrxx3qCQ28c2zlm-6" value="&lt;font style=&quot;font-size: 20px&quot;&gt;new behavior&lt;/font&gt;" style="text;html=1;align=center;verticalAlign=middle;resizable=0;points=[];autosize=1;strokeColor=none;fillColor=none;" vertex="1" parent="1">
          <mxGeometry x="-20" y="470" width="130" height="20" as="geometry" />
        </mxCell>
        <mxCell id="TExF2Mrxx3qCQ28c2zlm-7" value="&lt;font style=&quot;font-size: 20px&quot;&gt;create repair&lt;/font&gt;" style="rounded=1;whiteSpace=wrap;html=1;" vertex="1" parent="1">
          <mxGeometry x="90" y="520" width="180" height="60" as="geometry" />
        </mxCell>
        <mxCell id="TExF2Mrxx3qCQ28c2zlm-8" value="" style="endArrow=classic;html=1;entryX=0;entryY=0.5;entryDx=0;entryDy=0;" edge="1" parent="1" target="TExF2Mrxx3qCQ28c2zlm-9">
          <mxGeometry width="50" height="50" relative="1" as="geometry">
            <mxPoint x="270" y="540" as="sourcePoint" />
            <mxPoint x="430" y="540.5" as="targetPoint" />
          </mxGeometry>
        </mxCell>
        <mxCell id="TExF2Mrxx3qCQ28c2zlm-14" value="" style="edgeStyle=orthogonalEdgeStyle;rounded=0;orthogonalLoop=1;jettySize=auto;html=1;strokeWidth=1;" edge="1" parent="1" source="TExF2Mrxx3qCQ28c2zlm-9" target="TExF2Mrxx3qCQ28c2zlm-13">
          <mxGeometry relative="1" as="geometry" />
        </mxCell>
        <mxCell id="TExF2Mrxx3qCQ28c2zlm-9" value="&lt;font style=&quot;font-size: 20px&quot;&gt;request new API&lt;/font&gt;" style="rounded=1;whiteSpace=wrap;html=1;" vertex="1" parent="1">
          <mxGeometry x="400" y="580" width="160" height="40" as="geometry" />
        </mxCell>
        <mxCell id="TExF2Mrxx3qCQ28c2zlm-16" value="" style="edgeStyle=orthogonalEdgeStyle;rounded=0;orthogonalLoop=1;jettySize=auto;html=1;strokeWidth=1;" edge="1" parent="1" source="TExF2Mrxx3qCQ28c2zlm-13">
          <mxGeometry relative="1" as="geometry">
            <mxPoint x="210" y="846" as="targetPoint" />
          </mxGeometry>
        </mxCell>
        <mxCell id="TExF2Mrxx3qCQ28c2zlm-20" style="edgeStyle=orthogonalEdgeStyle;rounded=0;orthogonalLoop=1;jettySize=auto;html=1;strokeWidth=1;" edge="1" parent="1" source="TExF2Mrxx3qCQ28c2zlm-13" target="TExF2Mrxx3qCQ28c2zlm-19">
          <mxGeometry relative="1" as="geometry" />
        </mxCell>
        <mxCell id="TExF2Mrxx3qCQ28c2zlm-13" value="&lt;span style=&quot;font-size: 20px&quot;&gt;response&amp;nbsp;&lt;/span&gt;&lt;span style=&quot;font-size: 20px&quot;&gt;empty&lt;/span&gt;" style="rhombus;whiteSpace=wrap;html=1;strokeWidth=1;" vertex="1" parent="1">
          <mxGeometry x="380" y="690" width="180" height="80" as="geometry" />
        </mxCell>
        <mxCell id="TExF2Mrxx3qCQ28c2zlm-17" value="&lt;font style=&quot;font-size: 20px&quot;&gt;send cocoabird message to show the repair overlays&lt;/font&gt;" style="rounded=1;whiteSpace=wrap;html=1;" vertex="1" parent="1">
          <mxGeometry x="120" y="850" width="180" height="120" as="geometry" />
        </mxCell>
        <mxCell id="TExF2Mrxx3qCQ28c2zlm-22" style="edgeStyle=orthogonalEdgeStyle;rounded=0;orthogonalLoop=1;jettySize=auto;html=1;strokeWidth=1;" edge="1" parent="1" source="TExF2Mrxx3qCQ28c2zlm-19" target="TExF2Mrxx3qCQ28c2zlm-21">
          <mxGeometry relative="1" as="geometry" />
        </mxCell>
        <mxCell id="TExF2Mrxx3qCQ28c2zlm-27" style="edgeStyle=orthogonalEdgeStyle;rounded=0;orthogonalLoop=1;jettySize=auto;html=1;strokeWidth=1;" edge="1" parent="1" source="TExF2Mrxx3qCQ28c2zlm-19">
          <mxGeometry relative="1" as="geometry">
            <mxPoint x="870" y="1000" as="targetPoint" />
          </mxGeometry>
        </mxCell>
        <mxCell id="TExF2Mrxx3qCQ28c2zlm-19" value="&lt;font style=&quot;font-size: 20px&quot;&gt;send cocoabird message to show the new alert&lt;/font&gt;" style="rounded=1;whiteSpace=wrap;html=1;" vertex="1" parent="1">
          <mxGeometry x="570" y="840" width="180" height="120" as="geometry" />
        </mxCell>
        <mxCell id="TExF2Mrxx3qCQ28c2zlm-21" value="" style="shape=image;verticalLabelPosition=bottom;labelBackgroundColor=#ffffff;verticalAlign=top;aspect=fixed;imageAspect=0;image=data:image/png,iVBORw0KGgoAAAANSUhEUgAAAd4AAAIICAYAAADAEY9sAAAAAXNSR0IArs4c6QAAIABJREFUeF7svQeUHFeZNvxU6tw9eTRBOWdZ2bIsZ8tywjY2OAfZYASYuOy/u5yPZZdv9//+3eXDwAI2NhiMccKWLSecsyVZOWdpNNLk1BM6d6X/vLeqeronaEYGLZL61jl9prun+ta9z723nnqzEA53mIIgwjQMQBBgmiZ70SEIAgAThmGy/4kC2Ht6WecZoFPpr2GaoLMNw2C/o5fTDmuMtSnAapl9kfN/53wTJkRBZO1kHwL7rfNrq19OHzN97v3a+in13x6PNRbqgXVSbz+yPrFhWufRmBguND7qU9b1nb44fc70nTCwf+9cO7uPOQOinrDuZffEvr4FlY0RnUdYCdZ3fcZjf8nOtfrr4GJBbvXVaisHT3t+Mv1lTVv979unzBiojdxmbDQduAW2NkTRujadKgkCaPlAsH/I3jtzYZ/HrpszZblQZX1y1lZmfVB/DQOimD12GoM9/YSLBWZmjWZj4pznXCIzfgEQIcIwrXXYu/6seWCr0eydw97fWfhZqGeN027FWfu982bNOVvDDjQMD9HuUm871rz0LnJnvvo1be9dqx+9U5Yzt2yzmhBosnLm3p6erK2W2dNOW06jhLHYf71kX8fegr17la2h/vvX+g1hbS+ErDEMthh696q1fqyl78wJjcO+55h0TxGgs7XZe4/rvScMgpGNHuubc0/IIGrd45yF1nt3y/oue6/2bt9eLJy9b7eTO55eXAlja99bY3PupfYdot866TfPWXuWoZt1j6NVTqOjPUrYWGvBWWa99wNnrDYV2NfMvStn5ikzvQJr0zB0CBAzUztQ/3rvpdn3hN57tnPHzr5fDXQ/y/6O5pztgOz9SjPp3GzsdW/9376WzXnUXzbnjI+s/9FYaL/QJ9qfrC8CIImSdc8k3rP3fe+uzdy2rX6wtgQI4XCYTQv7of3jgW68tPnoe01VoWoaVFWFrunQdR26oVtEyZowYdKCN9l0WjcsdgOwJ7XvndvZ9DZADOA+N/fBNl5fonAGS4NjDwvOGmM3mZw93b/JrHtaLi1b4Fv9z2X2nE99Sf8EN47sm/twxzoYBtYYBybLvr/JPHTYY3W2TeYGbu1K5w7W+3N7PtgNIGuxnqjv1hxYD2H9j/5g5d6shx7PAHAPChF133lwyt30/ceauZX0u0DWF/bbXOJjT6U5m7r3RpT1uDfI2nZaz8Wt/zWHmuvsBwCbifrcD602T7CSB8SxL4Fm2nYe4HIejHubyDxUMJLu9/zX71o5DyHOw7/9UGKtTusBfJBbvr3ns0jLviSdTw9RJ3PjHgiIwQSA7BvtcPbqUPOY86g3zP3N9qZ9z2O7brBbaZ+1bXG587CXe/fL2ZeEPbu395lf54t+a9t+UBh4RVkPE/btgZaGYXd4sDnKzL/9EGMN0eqP9XCUxTP0IGHfsrNlG5o/tpaz+2Tjkf3gw0i7DyFLoghRkiDJMhRZhqzIkCUZsiwzYdG6YO+jY+/DhM1+WcKO0NHR0Uu8fW7iDhkTuaZVFalUir3oM0kYdEFFUdjL4/Gwz87FHAmE2sh+7xCFM+5s8szuaLbUnX2Dy/6+7429d5M7pGs/ldIEZR7VBmbgvmQ42PWzic6RtOm39NTjSEcDrTOnvf6SmSX5911sDm60OEmbwMhjIE1Cn4tl93uwG0BfPKlPdGRrGag/2fPRF+vsBZ99nb64ZeOV3eZAeJwIt4E2Y99xDISh02Y27pk1l7NRe9dM336ccH5OgNuA46HbA5O8HIm296y+D5J0Tl8NUja+Q928nfb6njcgbs7D2IBaL+t5gh5mh5qHvmsh+2Y21Pw4SoJs7Vv27521NNB4+q4zpx/Z9wRnT/Vts+88MYImGS1LizLgmmCSqEVaA93jsq/dd+zOg0Df+yEjk6z7wUB71bnvWL+1pTX7QZetGbv/2ffYwa4zEG6D3W/ZGGwNoNV27uNGZm3auPS9V/ZbO1mE6fyWfnMi3KkN5z7Fzssm3j7aQ+f6dL6z3xh2Njn2XZv99rk9tzRsEjYT8Tg0TWNcSIIn/Z44z+Vywe12Q5EViJLYb29njzvzgNDR3m5aHxy1JxGBhammW5JtIpGAqmqM0D1eL4LBILuYcyOlQTnv+y747Ak/ESlkAz/QDSW789nnZl+v70Lre+0T3ahOdFMYqB1ng/S9/kB9y9602X040Tj73oQH2jgDbawTPTAM1reBbkRD4TEQ7gPhP9jG/iy4Zd+U+o5loBt83zU10E3tRGtkKGIbDm5910nftZD9eaAxDfQg03ctnGjNDYXLyc5P3/U7EKbDxW2wPTTYOup7bxmMQAe6oQ6E+3D36omu81nnx8FoOPNztt/jTuZeOtD9c7D5OdGc93sIsE8ebE3Q947W13mfTCYRjUaZMEoHcaLX62VkLElS7kNq1oMt23PtjHht7aL9NEANE7MT4VLjoijB7/chFAox6fZETyTZg+XvOQIcAY4AR4AjcLYh4DwAEBkT8fb09CAejzOtpNfnYxKwJFvk22up7vVTEtrb2i2DD1OZWaIuSbnUCDVIDF5YWMj+8oMjwBHgCHAEOAIcgVwESFiNxWIId4ahqRp8Ph/jTEfy7SthC21tbY7rDBOldV1DLBZHOp2C3+9HUVERk3L5wRHgCHAEOAIcAY7A4AiQljgcDiOVTMHn98FH5CtLtrd9rwOY0EYSrx3aQ05TJOnSjwOBACddvsI4AhwBjgBHgCNwEgiQeZbIl/4Sj5LjseMH5YQTMImXnKkMU2csHYlG2ImlJaXMWMwPjgBHgCPAEeAIcASGhwARKpFue3s7iwAiZ2Sy+ToOyCxSobW11WTOVLqGSE+EqZvLysvg9/mHdxV+FkeAI8AR4AhwBDgCGQSIUyORCDo6OpipliRf8namg2J+GfES2SbiCSbtkiNVSUnJoIHmHFuOAEeAI8AR4AhwBE6MADkpt7W1MdNtQUEBk3rpYJJvS0uLqWk6IpEe6LqBkSOrM4kwOLAcAY4AR4AjwBHgCHw2BMjTuaWlhUm9pHKmbFcs0xYRL+mju7u7mRdzRUUFl3Y/G8b8VxwBjgBHgCPAEcggkE6nGfFSiFGoIASXS2FZ0YTGxkYzmUygpyeCqqoqRr6DZfXgeHIEOAIcAY4AR4AjMDwEyIzb2dmJrs4uBENBeDzkZCVCaGhoMMmpKpVOYezYsTxmd3h48rM4AhwBjgBHgCMwJAKUVrK5uZkl1LAEWxFCXV2dSWpmknJHjRqV8bwasjV+AkeAI8AR4AhwBDgCJ0SAnKuamppYIo1QMGT5UB0/ftykYF9KcVVZWclSXPGDI8AR4AhwBDgCHIG/HAFKvUwSL6mdqd4BOVgJtbW1JsUaUQhRaWnpgOXK/vJL8xY4AhwBjgBHgCOQfwhQWBE5WBEBU1gReTgLNTU1ZrijA6NGj2ZBvtyxKv8WBh8xR4AjwBHgCJwaBEjSpXheSqhBEq/b5baIt72tHRMmTuAViE4N7rxVjgBHgCPAEchTBCiLVUdHGJ2dYUa8HkofWXOkxmxrb8XEiZM48ebpwuDD5ghwBDgCHIFThwDlbSZfKkvV7IJwpOaI2dbahkmTOPGeOth5yxwBjgBHgCOQrwg4xEsSLxUfEg4dOmy2t7dh8uTJXOLN11XBx80R4AhwBDgCpwyBAYj3kEn650mTJnLiPWWw84Y5AhwBjgBHIF8RIOJt7+hAAdl4PR4Ihw8fNsnjiku8+bok+Lg5AhwBjgBH4FQiQBxLYbuhUIGlaj548KDZ0d6OyVOmcIn3VCLP2+YIcAQ4AhyBvESgl3hDVhzvgQMHWOYqLvHm5Xrgg+YIcAQ4AhyBU4xAa2urJfGyCkUuh3g7MHkyl3hPMfa8eY4AR4AjwBHIQwRI4iU7bygYhJviePfv32+Gwx2YMmUqVzXn4YLgQ+YIcAQ4AhyBU4sAES+9MnG8+/btY6rmqVM58Z5a6HnrHAGOAEeAI5CPCJCqua29nXk1swQa+/ftMzs48ebjWuBj5ghwBDgCHIH/AQRI2m1ta2OqZmbjZRJvRxhTp3GJ938Af34JjgBHgCPAEcgzBJjES8RLEi8R7549e8zOzk5Mnz4NHo83z+Dgw+UIcAQ4AhwBjsCpRcAh3iA5V1F1or1797J6vNOmTYPP5zu1V+etcwQ4AhwBjgBHIM8QIOKlFyNe8momiZdUzdOmc+LNs7XAh3sGIEAlxU724DW1TxYxfj5H4NQi4BAvUzXLMoQ9u/eYHeEOzJgxg4cTnVrseescgUER6Euw9Nn5zjBNCEDm84CNCHQGQKQrZr3PPpcTMl+AHIG/DQIO8QaCAbjdHgi7d+9m4USceP82E8Kvmr8IOOSaIVjDAMm3pmGAyJb932JTYt0TA2WTLZ1HFEwky0hYFDOf6b1DzpyE83fd8ZH/zyPQ0tLCVM2BYBAeUjXv2rXLcq6aMQM+L3eu+p+fEn7FfEIgm2wNIlibbNl7IldBsL6zSdf+atgQOecT+TLSJQImMrZJmKThzPdZkjEn4mFDzE/kCJw0AkS89MrYeIl4w+FOzJgxnTtXnTSc/AccgRMj4EizDuE6ZEskmyFdAJqqQtdJ4jXR1dWNuvoGxOOJE6uXB7k0kWgoFMSY0aPg91sOk7IkQ5YlJv0y8iVCFkXrvUPQtpTM55QjwBH46yKQTbwsjnfnjp1mZ1cY06fPgN/v/+tejbfGEchTBHLUxzbJ6vSXJFldhyEISKfTSCaTiMXiOHjoMBobm6HrOuobGrF9x05GwJ/VuWpEeTkWzJ+LkpIiSJKMsWNHY8L4cXC7XcyXQ5GkflIwETAjZE7Aebpq+bBPFQIDEO8Os7OL4ng58Z4q0Hm7+YNAL+ESyVqqZCJTw4Rlv4WJjo4w4okEjhw5ii1btyESieDAQSLeJhiGyc5XVZX99rMeRKL0ZE1/ZVnGuLFjMGHCOBQVFWLhgnmoqqxAYWEB/P4ABJgZKVgi8rVfjvqZq6E/6yzw33EELASIeJubm5mqmZUF3LFju9nZ2cWcq7jEy5cJR+CzIZCtUnbIVifStZ2kVE1nuVp7unvwymuvo6GhCS2trTh69Bgj2mwv5s/WgxP/yrHxejxujB8/DkWFhTh38ULMnjUDZeVlKC4qhGRLupIgQpI4AZ+KeeBt5icCjHibmhEM2Skjd+zYwZyrZs6cyW28+bkm+Kj/QgSyHaaIRNmLnKUApNJp1BytZa8tW7bj6NFaJunG4vG/8Kp/+c9HjChHaWkJ5s+bi9mzpjOpeMyY0SDfZyJqkn7Zy1ZLcxX0X445byE/ESDibWpqYhIvs/Fu304SbydmzZrFiTc/1wQf9WdEINuOS1KuphvQbI9k3dBx7FgdNmzajHXrN6L2aC06u7qZTfez2G0/YxeH9TNyxCIJeMqUyVi2bAnmzpmNisoKyxELAmQpl4CpUa5+Hha0/CSOQEbV3NjYmEW827aZ4c4uzJ7NiZevEY7AcBHIlnI1TYNGUi7AbLlEwnv27MOTTz2Lnbt2MycpstmezgcRKT2Jl5YWY+nSJbjp8zcwhyzmbAVAEsAy7nDp93SeRd630xUBsu82NTch6A/ARQk0SOKlBBqzZ8/mEu/pOmu8X6cVAtmhQaqmgV7kOEV2XHKQem71i9i0eRvq6xuY5/L/tIQrChKKXMVYUHo+Kr2j8GHLn9EYr0NaTzPnrhMdRMABvx/VI6tw5YrluPzSi1FcXMSkXkbOksTIN5uAT6vJ4Z3hCJyGCBDxOhKvx+OBsI0k3nAYc+bM4cR7Gk4Y79Lpg0BfWy5JuqqdUSoSjeKDDz7GCy++wkKDUqnUiQkOgFcUUSkqoFxTEUNHl9nbnvNjKxGk5RE9nEMSZCwpvwT3TvoW/FIAiuhGV7oDa9vexcvHn0Z7snlI8nWuQyro2bNm4aabrsOCeeeA3TAoJlgQmGcmkS8d3PY7nJnh5+QzAtnEa9l4t20zO2yJl3s15/PS4GM/EQIZKdc0oRPhqio0E1B1nYUDvfzKn/G73/+R2XCHCgMi56VZLh8ucBfgHs8IaKaJzWoUzybbsTkdQcI0mG01KEqYInsgmgIOG0l06BqspJIDH/QMUOUbif9c8DuUekbknNSVDuOPR36FtxtfQto48UNB9g+JXMkJ66tfuQ/Lli1l5Evez4okctUz3zIcgWEi4BBvIBCwnKu2bt2akXg58Q4TRX5aXiGQrVomWy6Rrm4CkVgMO3bswrbtO/D0M89BVbVh4VIiyfhlaAIWyUEoIqV0BCPUzVoUD8YasSUdxTjZjUvchbjNXQYZIlan2/FCsgM1ahKWYrv/QTHA1d5R+O8lf4JfCeScENeieOLIr/B6/fNIGclh9TP7pPLyMtx+6xcxffpUTJ82FS5Fhixa5Etxwo7Uy52uThpa/oM8QMAhXuJYlqt5y5YtzKuZVM2cePNgBfAhnhQCfUk3rWrQTQPdPRG88877ePa5F3Ds2PGTsuPeFxiBb3urUCTIOX1JmyYeijfijVQX7vKV4zp3MXyCpc5NmQZeTIfxi2gj6vU0CkQJIdH6fbehocvQoRk6Kt3V+OX5z8MvB/+qxEuNkfQ7c8YM3HXXrSwJh9fthiwKjHhlSeqXA/qkgOYncwTOYgSIeBsaGkASr5skXk68Z/Fs86H9RQj0c6Iiz2XTBCWceePNd/D882vQ0Ng4pGo5uxPU5pPFU3CBEmLq5L7Hb+LN6DBV3OYpx0jJnXNGq6HivxNN+DQdweXuQsxRfCCf4+1qFC8mw6hLJ1AgFeOHC36OaYXnZJomh6qmeB2ernkE+7p3IKgUQBIktCQb0J5sPSmMSKKdMWMa7rzjViw5dxG8Hreleubke1I48pPzCwGLeOsRCNhxvJs3bzIp3IFLvPm1EPhoT4xADumqGrPl6jARDnfhzbfexuoXXmZey0PZc/tehdq931eOBwLVKBGUnH+36Gk8HG9CQBBxm3cEKiRXDvF2mBoeT7QibKhY5atAtWgRc5up4t9jdXglHkZK07GwdBlum7QKkwtmsfbbks14r+EVHI/XYGrhHEwMTYNbdGNn5yasa30fhyN7kdKHr34myXfatCm4/babcd6SxfB6PEzyJfJlRb55vme+vTgCOQhQ8gwm8QYDUGQFwqZNm8zubk68fJ1wBBwEcklXRVqzJd2uLrz9znt44cWXcfx4PctQdbIHtV1sCvhmsAo3ectRyLyaTZCa+b1UJ1MlmwLwg+BoLFJCzIOYDrLqHtDi+I9YPft+pbccHsGqr0vHo4kWPJxoRms6CbcpYWrxAswrOQ/EzM3xetTHj+HCyiuxdMRlTOIVBRFRtQdHogfw8z3/isbE8ZMaCqmXiXxvveULjHx9XnK6Epnt1yFfp/7vSTXMT+YInGUI0J7PEC9TNbs58Z5lc8yH8xcikB0yRE5UKfJeNgyWdYpsuqtffBl1dZ+NdJ2uGbqOUYKMm/1l+Jy3jDlLfZLswtupLmzXE0yyvsZdhFX+ShSJllQcN3T8MdGKN1NduMlbiq/4KuHNIt6fJxrxYroThZAwCS6sTccQFWTmIW0KpiUFT/gqRvnHMdJ1DtVI41+2fwPbwxthmCf3IOFyKZg6dQpu/uKNWLrkXHi9ZPMV4VYUZvd1yg3+hVPCf84ROOMRcIiX/KiYV/PGjRvNrq4unHPOOczwyw+OQD4jQMTL0j9qGpKpNDTTQFdPBG+//R6ee/4F1NefnE13ICxZQg3dQIkgYJLsA2V1Pq6n0QEThmSRYsAEpkkeuO0GNAg4YKSQFICrXYX4hr8KVaKLqXVJ9fyf8XpMVfyYLwdQKkjYpybwfKoDbya7GNFeVvk53D7hqyzMyMpFZR0kbf/r9m9hc/sn0M3heWVnj4luIlOmTMJtt3wRS5YsYg5XVHLQ7bLIl8f45vNu4mN3ECDirauvRzAQgKLYxEuq5rnnnAMfr8fLV0oeI+BIu0S6lHEqpRuIxRN459338fgfnkRzc8tJ23QdOIlOKxUJFbKIgykNEYpHIk9hmAhJAkplCVFTRAcRP2NEEyblfabSgCYgUrIKVq5PQIEBLJZ8WOEpgiIIeDPRifV6DP9VMA7LZMtpq9vU8bNUM34ba4Vgmpjon4rbJ3wNc0vOhWxL0XSZznQ7frDtqzjSc/Ak0nTkLhIiWMrzfM9dt2HxooWMdN2KDJedZIOTbx5vKj50FvFAxFtPxOuUBdywYQOz8c6dO5eHE/FFkrcIZNt1qaJQSqVkFcDhwzX4f/+/H+PAgYOfmXQLJAFLvQquCriw2CvjyUgaf+pJo0M3MMEt4wa/gjluCcc1YHU0jd1pAyWyiNkuEV5RwIG0iT1pneVNJgmVyFjUdLhNynkFpMiZSRTwm4KJuEAOse96HOKNt1EGaciGgvPLL8eK6pswsWAa3JIHB7t3sYQaH7e+jagatSXe/jHCssuL6imL4fZaIUq6mkbjkS1I9LRn1gtlsrrowmW4//57Maq6iuV2JpUzfe/U983bxcUHnvcIMIm3rg4BytXsUiAQ8fb0dOOcczjx5v3qyGMAHBUzSbrJVAq6ICKRSOCx3z2BF9e8glgsNiQ6LkHAQp+MKlnCe7E0OjSDEdACj4L/XebFZJfESu5RmsmnIhoe6k7hyoCCHxRZ3slEeb+JqHgqquHWoIKbfRKCooAtaRP/1q1hb0qH5WslWBKxna6SPgq6gc8rIfyjbySKRBmb1Ch+kWzCCNmD8ZIHW1I9WJeMYoRvAvN29khe7O7ajLHByRgTmMiu3ZpowNaO9aiP12bGKikuTDv3Bsxf/iX4QqXsey2dxL5P12DrW79BPNKRObeysgJ333U7li+/lIUZUZQxJQtwyJcn1xhyCfETzlIEMsQb8ENR3BA+/fRTJvHOnz+f52o+SyedD+vECGTbdSnHctowQYkyfvPb3zMP5uGQ7nS3jK8XezDNJaFQFLBH1fHnSBobEhq+VOjGDQEX/GKvbfWgauD+lgQu9sr4YYljyQUei6h4LqbjnwpdWOoRQekzyPL6/3Rp2Jwy8OWQgiJRwNqUjrfjOnqYXpoqIukQ0mkskD3wCBJTNc92BfENbxVKBBmHjQR+Em/EW4lOpAydkfYV1dfj3knfRaG7hH3uSLXghWN/wMt1T0MnRytBwPTzbsT8y+9DsLgqpxRgV2st3njs79HRkKuirqwcga+t+jIuuOB8pmp2SyLclGiD23v5NsxjBBxVs9fnhZuqE3FVcx6vBj50hgCRDtl1U6k0knaloU8+WYef/fdDaGhoHBIljwDcUuDFP5eSlNcb/nNU1fGH7jRmuUVc6XfBl0W8+9NEvHEs8sj4p2I3CkQBMdPEI91p/Dmh4xsFCq7wySBZuMMw8M/dOo5rJn5R4sIYCdivmngwYuCTFMmqlvSrUy5n6r9pokBW8C1/Je5TyliPItDx02QLnkqFkTB0GLqGlRO+iZvG3psZn2Zq2N+9E0/WPIQd4Y1Msj7vhr/DjPNuhOL25eCQiISx+a1HsG/9GqipeM7/Fi2aj69/7SuYNGE8U497XQrz5HQqGg0JKD+BI3CWIcAk3uPH4WdlAV0QNnz6qdnZ1YV58+Zxr+azbLL5cIZGoJ+KGUBLaxt+8atH8P77H+XE6hKBkTOT2xZcSRKl+NvxLgl/rAyiUs7NRNVtmHiwI4FdSRVfL/JigU+BIlDNXhNvxDT8W2caLtPANT4JS30KdqR0vBTX0WwKGCeauDfkQoko4MOkhjVJoFiW8P2QhPkuAfs04KGogV0a1coVmJROxRYYDZsmvBDwBVch7lNKWGrKblPDL5OtWK12s/STmprCHeO+hpvHfTkTXqQaKvZ0bcWTRx/Gns5tTMJdfO03MfP8L8Dl6ZP7OdKBjW/8Ggc2vAytD/ESya68+w7ceNP1CPr9IFgoyQapnLmj1dBrkp9x9iFAJQGZjZd5NSuWqpnCiUjVzHM1n30Tzkd0YgQyoUPJJNKGgVRaw8svv8qIl+y9zkG22RJZwDyPgvEKfRIQMwxsTeosTvbJigCK5d74WPodEe//7YhjTU8Sc9wilvhc8AgCKFr2yYiKOrKCmoDL0OCGCRUC0rJCLsyAocNvUBCRCVWUoEkuKIKJaYKOJR4Ju1QThw0R53gUVEjA1rSJg5oJ1bSIl2zApQZwmeTDOMGNGAxsNOI4YGpImia6U3EsLrkId058ABXekWyYHak2vNm0Gi8dfxJEwuS6NWHucsy7bCVKKidClKzc0NR+W90+vPWH76OrpWaAxJdASXERfvSjH2DOrJmQKLZXlqzKRpLEyZdvyrxDoJFJvHXw+31WHO/69eszNl5OvHm3HvJ6wJZ6VmcESw5Vad3AwcNH8PDDv8WmzVtysCH77DUBF75S6MFoRrxgEuZ7cQ1PdCdwuVfGjQUeFNlxuGR6bVAN/DicwGsxKwmHaFgJKgRJgim5INp2T4coKVRIEC1iYn5TJtlirVAi8gw2TQOGqkGk70UZkzwKvhEQsNQl4HcxE08lTHRTpSPb6coktbOmwjR0eEQJy9yFOEcJIAwdryc60JRWsaDkQpw/4nJIoozDkX1oStaxfM4RtRtJPQlZ8WDKomsxdfF1cPtCrP+6msL+Ta9h98d/gpqM5Nh+HdDIpnvVlcuxcuWdKC8tZVWYyNGKbjo8sUZeb7u8HDxJvMfr6uD3+ZjPg7Bu3Tqzp6eHS7x5uRzyd9BO+BBlp0okk1ANA+HObvzu90/gpZdfYzbfbGl3okvCd4q9uDqQm185YQLPdCfwUHsMdxW6ca7fw35GnsvbUhpWRzXU6iIM5rZsheoIggi/S8RYn4mILqIpJSEgmah0G0ibAtpUCSnTkZ4F25PZ6o3VhAkIIgoF4HKXjktcwFtJE++rEkplK+ToCBN9LacrkuqDoohvucpxi1KMGHQ8lG7FH6KtiKtpjAtOQoGrBNW+0ZhVvADdaic+bf8Q+7t2IKkloHiCKBs1jZEwScGGnkbz0Z1Ixbus/XT+AAAgAElEQVSZBDvYQQ/y9917F75w4w2QJAFuWWYqZ/oNTyeZv3svH0fOiJfZeO3MVevXrTe7eyyvZi7x5uOSyM8xO9IuFa5PplUkVRXr1m/EL3/5azQ1N+eU+SP18IqAgr8r9mKMLe1mo7YnpePaY50oEAyMUiglBmAKAtqJRCEh6BJR5THRlBYR02WQj9UVpUksL+nEsaQHr7QXwi8ZuKGsk9X5famjGDUJN0pdOqZ4VRxPu3E06ZQQpNghRt8WoRoqKqGjzRShyzK+GxBBDwP/GSWHKyszFb3xmcB9UhHuUIqRholfq614Kt3FnMlcohsXlC3HdaNuxyj/eCT1BN5tfhmrjz2OlkQzk5h1TYMnUIzKCXMtVTGAaFczOpuPQNfUARcRkSvV7v3ud76BKZMnMlu0z8Ol3vzccfk9aiqQUFdnO1eRqtmReLlzVX4vjHwafV9pN63r6OzqwX//8mHmUJVt2yVcyCFqkUfCd4u9WOjNlXjp/3vTOq453m3bVw1GSqQy9ioS5hZqWFyYwjhvGnUpN94Kh1CbkPHglCbMCXSgNe3FH5ur0JSWsKq6CWQBfqSxGjviAcwOJPBAVR1eC1fjT+0hBCQDo9wqapJupE1SPRO5UnYrk5FhkQQ8FAILMbqfdM4U9GvbfCXDwExDwlzBjThMfGDE0Sxa6TEL5CJ8dcI/YF7xUsh2jd917e/i8ZpfoD52zCLuYCnmXHI3xs5YxpYKSdLtDQewZ+3zaK7ZxrykBzroYf6mG6/H/V++h2XQ8ihKxtbLpd582nX5PVZH4vX5yMarcOLN7+WQn6N3pF2K2U2kUlB1AwcOHcZPfvJzHDh4eIAMVSbKReAbxV7cXuBlXrqW2tdEq04OVFH8KaKzlI5MHLUzSRUowMqR3bimrBN+SWVk+dPjY/F2hwe/ntaIUZ5u1Cc9eLJ5BHZEfZjuiUA3NBxIF6AHPpRIKcz3hlGjFqBW9eO8ggjGe9J4saME3TrZgjPaa9YfxdCwVKDrAB8bVKSApG8r1IjIWdY0KIaOCZIbFygFWG/GsZlUyYaMy8quZR7OASUE3dCxrv0dPFn7MBrjdSxj1dzLv4Spiz6XsfNSm8lYJ3avfR7b3n6sX0iRs7JIrUx1e7/3vW+jrLiIFVHwej0sxpfbevNz/+XjqEnizVE1r127NmPj5UUS8nFJ5N+YHU9msu1Sash4MoUnnnwGa9a8AvJ3GOiQTQNzXSLuK/JitldhGalSBvDLjgheiWhISDI8MhBUBCiiCJJ7ycn53uowri3vgCJYjlX/p2Y8Xmn3Y4Y3DreZQsyU0KwHEIELgqFZTCq7IEgK82wW9DQgyZBkBeVyGm5TQ6PugyZYTliZwy7uIOqW2tcrKwgIAjoNk4UPUbOGaaASEr4tleB80YeHjTAeT3eyFJBBhHBF1edxUeXVqInsx7str2Jvz3Zm4/UVlGP5vT9G2chpOdekkKR9G9Zg/ZoHByVe6mNZWRlW3nMHrr16BVM3eyiXs9vNbb35t/XydsSMeEnV7PPbzlVr15k9kR4ex5u3SyL/Bu54MseTSeZt3NDUjF/96lGsW78B5Gw10EESnmzoKIABr2A5SZHncochICUpUGQJS4vTuGdUF0oVHR2qjLc6gqhw61hR0oEiJYVu1Y2fHKvG+91BCHYSC1JJS+Tpa4fqkPVUYMUQLFUyTIN9Zp7OdtEE8oomB61s4rXSR1p2XZK7F8sGLpYNrEmL2E1aYDvF5EhBxnfFIkyCgt9oYazWIzB1HVo6DY/gw0jfWPhcfsSMKDrS7ehOd8IdLMHyu/8D5WNmDki869Y82C+WNxtDknCvufpK3LvyLgQDPrgkCT6vN5NKMv9WIB9xviFAxHvs2DEEAuRc5YZAEm93dxcWLFjIE2jk22rIw/E6WarIqSqRTDHv4yefehbPPPs8IpHoCRFxkm2QxOwQokyESWXwRAG3VMfxnbENEAQTKUPGs82leK4xgHnBGOaFVKzrdOPjniCgeBhx0mGRqkWilOWJqaltSbbvX6dzA+U8zuRttlXgBjk86RoESYZJccH290Sy/rSKgKajgaRwugnYpF7uqsKN1XdjWfkVSBtJvNLwNF5t/BOSgoqZy27B3MvuhUTSOAt3MhDrbsO295/A7o+egaH1xjwPBOKIEeX46qov4dKLL2Q5nImMHamX53DOw42YZ0MmG29tbS1Ly+yhlJFrP1nLvJoXLlzA0lnxgyNwNiNApElSbTyRYHG7VPbv8SeeYmrmeDw39eFgOBDJkXMzvYgsmXQKATdVxPHt8fVWxSBDxnNNJfhdQxG6NdIaG+w82eXkLRYtkmXhRZaUOxjh9iWmYRGvIx2zNJV2GktbHa1raQiaDo8kQxVF6DAhQ8YFJcvx5fF/D0mwiPrVxmfxfN3v0Zlsh8tfiFnLbkWodCSKKyagtW4vGg5vwYFNr0FPJ4YMDyopKcG9K+/ElSuWs5KBHkWG1+vl6uazebPxsWUQcCRen98HtyXxfmJ2d/dg4cKFPJyIL5SzHgFSM5NTFRGvZpjYtnMXHnvsCezeszcndvdEQLhEE+cVq5hXmIZXAtKGgG09LhRKBu4Z1QyXCCQNCa+0FmF1azESsFIlMtcrimEVRHgVgdmIiXrpPRF4UheYbbg/ATPZ2O5Sblwvk2QtcTbTZUf6Heiv4wl9juDCctHPVM0HtRQkU8SigvPxpQnfQ1ApQNpI4ZXGZ/BSwzPoToWZ0xddorRqMkqqJ6PxyDZ0NB1h12QJPoZYOR6PG8uWLcU9d9+B0dVVlrrZ580k1DjrFx4fYF4jkCFekng9HgiffPIJKwvIVc15vS7yYvA5auZUGpSQ8fXX32RViNrbe8vbDQXG9KCGVWO7sLioBx6RciQDm7sL8VRdECndhFvUoZLTlOZGi+5lzlEZm6wgYkIIWFAObG0X0ZIUMKMIkEQTu8ISkka25GsTri0Zs36RWpq9ya6bayXNsMjXUgNbhx3L62Sysu28hMPFggf3GEH8xAxjq5GCoesoEUuwfMR1mF20GPWJWrzd8jIORvZANdIQZReqpyxhns10nUS0E7vXPY/WY3tg6JTscuhj0qSJ+Pa3vo5ZM6dDppher4dlszpREo6hW+VncAROfwQY8dbWwp9t46VczSTxcq/m038CeQ8/OwJEOEzNHI8jqWrojsbwwgsvYfULa0Ban+EcxGErRqTxwLhWjPKmMoQT1WX8vq4Cvz3uodQWJNoyeyilTvS7RVT5BSR0EW1JAfdPE3DeCA0v1Up4o0FCkctkHsftaTtPs6N+dmy+LETJkXkzb7K6a9fnZeTrEK5VMMFxqsqWflniDU1HiaqhWQRiksRCqCgdZZFUhHH+yUgaKRxNHkJMjzKyJ8eq82/8RxSVj2PXJY/mw9vfwro1P0GiZ3gPLSNHVmPlPXfigmVLWcUir9vF1M1OycDh4M/P4QiciQhkS7wsVzNJvFSPlxPvmTidvM8ngwCRC6mZY/E40pqOvfsP4pHf/B67du0etpqZCGxFuYoHxrdhlDeZIV6SVJ9sGImH6gIZmy3ZdH2KiMUVAlaMBiPdF4+KqPCamBhU8V69iHaNnJusmGBSQ1vSH0m9lu3XsgM76mXr88CHJfE6KSWzs1Y5CUMsXraSZkgU06tpSIoiNIo/Nk2Ipogpvhm4qHQFI9uPO97Cnp5tMBUFsy+5G7POvxkihTkxPjdQf3AT3nvyB4h2Ng9rGsiZ6pJLLsR9K+9CeUkxCysiZxOq1sKTaQwLQn7SGYoAEW/tsVr4vX6rLODHH39sRnp6sIBLvGfolPJuDxcBsu+SN3MskYBqAFu2bsevHnoER47UnLAJojqfZCJgFRNChUvDTVVRXFTag5CiQTNEbOsO4NfHS7Az4c8khmDZpDwibpsMXD/OQDhp4qe7FOxoFyCYGlKGCFmhogGSnXfDsu8yRyvH1mt7OVt8azljDUi+rCSgJfE6RNsr8VIcr/M/g41hMmSca7jwjhnHMUNlxOsRvFhRdgM+P/IuhserTc/i5canERdUTD/vJsy97D4WT5wh3gMb8O6T/4xYV8twpwBLlizGNx9YharKCmbn9bPC4G5OvMNGkJ94JiLAiJdUzT6beD/5+GOzu8dyruKq5jNxSnmfh4OAk62K1MzxVAqaKeDTTzfi14/8FrW1xwZtgoiuUDFxaVkS5xXHGIHtibhxsEfGZeVJTAuqCKclPFwbwL6EH4LiZlLuCL/IKvJEVQHjQyauG6ujrsfA6loJYSblWiRLjkkZZyrbs9nKhWyT8CAhRgN12KlyxCiYIp5I5c2I2CLe7NdEU8I5uoyPhSQaTauQgmIoWFZ8Oa6ouIGR+0ftbzA7b0SLoGjEBFx0y7+iqMJSNZONt3bX+1j/ys+RjHYOZwrYOQsXzscDX1+FMaNHMXz8ZOe1CycMuxF+IkfgDEPAIV7S8LDqRB9/9JHZE4lw4j3DJpJ39+QQyLbvEvF2ReJ49bXX8cILa9DRER60sZBs4uqKJG6t7mSqZRIcO1UJrzYVYm3YhagmMIeo2qQLkmKFCk0vEXHfdAHFHuDDRhFv15mQTQ3xtIlOQ2ZVfpx0iUyGtdXKzAGLSgM6pMskX0vCHSym1+l43zjeXpJ1yNfO62wTsKTpkDQVKVGCLlLBBR2GqsNv+lEkl0KURESMbnRqYajkPCVIqJx8LqYt+hwMQ0PLsT04tvtDdLbUsPrBvtLRcIfK2XvBMGHqKrqO74Sezg3RGjtmDO666zYsPW8JfG4FPo+HeTc7dXpPblb52RyBMwOBbOIl04rw0UcfmZFIBAsWLEAwGDwzRsF7yRE4SQRIoqPiB7FYDIl0GnWNLfjNb3+HtWs/ZTV5BzqI9CYGNPzb1DAm+6MQ7YxVdG6PJuPfD1XivXY3NIgs8xSRhywKOLdSxPfnC6j2k6eygP+7Q8SesKUoFmUqiddbDN6RfHv/Wl7NfeN6h0u8OSFEdppIS+LNknztGF9y6GJ6Z8GqdKTrGstgRe/pAYCpwFlBBBMuTwCjZ14Ir78IDYc2o61+P7RUjNl8QyNnYNT5dyA0agazDdNhqmnUffoc6tdTco1UBl5yLPnc567GHbffgsKAn0m8VEiBO1id5ILmp58xCNCe7Kdq5hLvGTN/vKN/AQKOY1U0FkMqraK2vhEPPfwoNm7cPGirRLxTAyp+MrMDVZ5Yv/P+5dAovNnmgypQuBBJpSIr+begXMA/LxJR7jPxwmEDTxyUWApJ5kBE55BUm5Xy0cleRbG8g5FudtKMEyXQyCbejNRLEmhG3dxf7eyc5xLcmBGYg0m+6TgQ2YU9PdsR06JwewOYecGdmDjvSkbSDYc2YcsbD6OrtRaS24+qxV/E2ItWQvEV9GJkmoi1HsXGh+6CFuvKfE99v+qqFbjv3rtRFPSzMoGZGqWDOo79BRPPf8oROA0QIOI9evQocyZ0kar5o48/MnvsBBpc4j0NZoh34ZQgQMTLHKvicRZrW3vs+LCId0pAxX9ND2OUN8ZSQToH1c394cGReCccgC7IcEsCJhaKrPpOU9xAlUeDZOpoiIvoNNwsDjajXs44TPXacR3CpeQaGW/mrPOYvGw7NA9KvLbXcn/ytUoHZpMvZb204nwtL2fBFDDKMw43Vd6FmcH5WNvxDp5vfBytyWaESqpx0e3/jqIR41nfyL77zh++j/pDGyC7/Rhz4UqMueBuq7BD1pEMN2H9z74ILd5rA84Q7313o7ggxDJY+R27FyfeU7L2eaN/ewQGVTUvWrSIZ676288P78EpQsDxaI7GE6xu7tGjtYx4N23ackKJ1yfqWF4ax5fHdaPCY+UjjusSnqkrxJ+aAuiEFyVeCStnyLh8tJWdalsb8MudOuojBgsRkmXFyu4kiigKiUimBKQ1K1yIiNYqI2gVRuives6171qkm5u9akApNztpBqmWbYJ1Mlf1dbaiBBo+04eLSq7CtII5eLP1Bezu2QrV0FBYPh4X3vpDFJaNZX1NRMN4+/F/ROOhzZA8foy5YCVGX3A3RNvj2QE0GW7Eup9+AXqiu4/EewXuu/ceFBcVwC2JGeLlIUWnaPHzZv/mCNTX1zOJlxyYXYoLwocffWhGeiznKi7x/s3nh3fgFCFAxJtIJBCNx5lN9kTES9RGeZgnBXQERA2aZmCiX8WFZSlWkWhblxuvNrvRrnsgKAqmlih4/HIJBS5LIt7eBvzLRqA2mkWodjGEO64UsXGfiCN1Zh+iJccqp1iC7WSVVSzBIWQiPlZMIetgJMoE2FzP5VxyzZZ6DWa3zf4/xfDq9DSgGZBFGSkxDd3U2TkubyEWXvU1jJ15EVORt9btwSfP/wfCTYcgKl6MmHsNxl50LzxFFZniD4auIdKwH1se+RL0VG/xCUvitYm3sIB5Ngcofy3PYHWKVj5v9nRAwFE1eylNKhEvOVdRDVKSeHk40ekwRbwPpwIBTdMyxKs7xPvr3wwo8RYqOhYUqLhvTBRjfAkcjip4rcmL7V0yjsQkGBBhSgqLaSUHpMnFEn5PxOu2sjZuaDbxb5sM1CcshyuS5OhlmMDi6SZqm0V09FjfO7ZhJvFmOVUNJPky0nU8nTOpOyzSZapkO20kqY4zSTOcqkSUmYoRs0XA1jlWakkZCqb4Z6JALMTR6AHUxA+z1q02yFHZBW+oDFMWXgNBlHFk21toqtlmVSmCCdETQuX86zBy0efhDpSwNqOtR9C4+RU0bl4DUJywfTDivZKI924UFRVAEYCA389Dik7FoudtnjYI9Np4qSygAuHDDz9kxLt48WJOvKfNNPGO/LURIOKlGF5SNeuCJfE+PADxUoGDS8pS+ObYNlR7e71xu1UFzzQU4ol6Pyg9JBGgJIlMzVzhF3H9eAGLK4C0DrxWo2PNUSBquiBJMjxuEaWFIuJJoLNHY2pnKifIJNycsoCWpNtr5yXNbq/6mZGuXW3IsfP2qpmJUAd3nGJky7yYbQLOOtcDD5YXX4+Zwbn4pOtdvNP2KiNmOtfjL0bV5MWMfA9vexPRcJPlREYPFBQ+5Q3BMEVA9iBUPQ3uYCmbuq66Xeiq3QbB0HKSYzjEey8RL0m8jHh9mUpFf+155+1xBE4HBDISr9drVSci4qVwIi7xng7Tw/twqhAg4qVQIiJeQ5QGJd7RPgPfn9SBJUW5uZtVQ8TWniB+VVuEnT1WisMJRRKuHa8g6AI2Nusodhmoj5jYGzbRrVO8LmVkklBZKuKGS0QcbRDwwRYTuul4QDsqZcvOywjXIV7m+ey8smy/fTyicxNkOMTbX5Xc61xlSbrZqmZDVREyCzHSNxZteiuaUg1WQg23D+PPuYJlraJwooObX8Xuj59FpLMJouxG4Zh5KJqyFLKvAKlIGM0730ZnzWYYagqCaKW/zKjI+0i8DvHKMBEM+DnxnqqFz9s9LRCwbLxUj5eIl2y8nHhPi4nhnTi1COQSL0m8xwaUeM8p0PHTmbUoynXQZZ07FvfhpzWl+CDsRnVQwr0zXbhqnAivDOzqMPHSYR0vHtEt9bId10sEVF4IXLvMwPEWCWt3SizFZK4j1VDE20vCTgywU8uXqZkztl1H6h0+8U72zWAZq3Z3bkYS6azYXQOF5eNwzmX3oXrSIlbwIZ2MYutbj2L3utUonnQeRi65BcGRMyApHujpJMKHN6L248fRVbMFpqExzPp6YNPnK5mq+S4UFRZChoFgIMCJ99Quf9763xiBhvp61Bw9aoXOUQINR9V87rnncq/mv/Hk8MufOgQc4o3ESOK1VM2ULrKvV3OVR8f3JnTgktKeHNJQDQFbuvx46FgxdkbcuG6iC1+dI2NsiCRVS8X8h/3AT3fojLyIWBVZZGpmUtm6ZQ2qLiOlK6xy0V+feG1p17bd9nWeypZ4SeXs2Hnn+BYgoASwqWsdYhplmeoNMfKHyjHn0nsxZsYFLNtWT0c9Pn3lZ2io2Y7Jn/snlM24OCeEyFCTOPbxH1H7we+gZXkyZ8+qRbzLce9KS9UsCyZCnHhP3cLnLZ8WCDjEm0kZyW28p8W88E6cYgR6iTduE++xAYmXXKcoL/M3xnWg0qNBEQ1y9EVLyo3nGwJ4vinAbLezymR8e56CRRUi3BIQV038bq+JX+02mF2XSHfuVBnnzhLRFQXeWm+gM0K2UVIb9/VeHlriZYk3mPNVbvKN3spD/W23OV7NdhwvI12beMnTW1FFJs0mkYRuWF7MdC36jsi5qHISJi/8HLyBIuz66Gkc3/sJRE8AM27+PyiauKjfrB1f9wxq3vol1NjA+Zs58Z7ihc6bPy0RcMKJWAKNbFUzOVeRGMwPjsDZiECvqtkKJ6JKIb9+5LF+Ei8RT5GkY5IvgdtHpzEukMLxmIg3mt3Y0u1Bi+ax1MiigEtHC7hzmowRPhEHwgYe3JLG8YQLkizDrYi4/FwJt6wQ0RMT8bOnTBxr7k0FmWO/HSCM6MSpJDN1iqwwIlYUoY9jle3lnJ29Kpt0LTuvAV0jj2OrX8yhShBRVDERY2ddgnhPO47ufB8m+7+EzqZDLKez7CvE5Gv+AWUzL82J3SV1c+1Hf8Dxj34PLTFwfWNGvCuW415b1UzOVdzGezbuOD6mbAQGJF7u1cwXydmOQK9Xc9xKoFF7DI8MSLxWPCxMDaWyCo+oI2UIrDCCJroY6ZKamKoPVfuBkEJVhzT0pIGOtAuSyypxR2khSwsMXLNMQlmRjGfeMtHc6aSWtMOCsp2ncpyqBkqkQVKxRbhWZqusGbPDfgZKjkFnZcKLMuRskW5unK+Vy9kbKMH0pV/E+LlXsmL3W954CEe2v410OgHT0K1rm4B3xGRMWPENFI1bwMiXSLd1z/uoefcRxFooHKk3y1c/VfOK5Vi58i6WQMMlCszGyysUne07ML/Hl028Ckm8H3zwgRmNRrlXc36vi7N+9KRWpXCiSDSGtG6gtq5uQOJl8qOVjYJJkSQlZvIw25JpdVDGV+a4cMloEfG0gZ9sVvFuvQFQbG+2J69pQBI0Jh2boofZQx1Jtq+N10kZ2ZvNynJMyn1ZBQgsxyqH2KxYWqcOL9mTcx2u7EQZWeFEfb2aswnY7Qlh0qLPYfLiG5gn88bXfoGDm16Glk4wadhTOhaewiqoiSh0NYURc6+C4g0h0dWE+g0vItZ8yM5FnZvkw1lgjsS7cuWdKKSUkbKEUDDIE2ic9TswvweYHU6UUTX39HRj0aLFPHNVfq+Ns3r0Tuaq7u4eJFUVdY3NFvFuHjxlJJMWAZYG0jmqAzLum+3G9RNFhFzWt60JAf+1xcTrxy2SJml3dIWEBdNlkPZ2014TrV29ttm+ZGrZbR0pOFfatXg2qzbvAJ7CORWJcryce7NT0dNEr5TbR9oFmKQbLBuD1tqdLGZ3xPh58BeUo/HgBjtDlQfF0y5GxfzrEBo1C+loGDXv/JpVIFITPexhxQkhOlHqR4d477nnDhT4faw6USgUYsTLU0ae1VswrwfnSLxer525iiReJ46Xp4zM67VxVg/eKZLQ3d2NRCqN+pZWPPbYH7B+/QbLtjnMY1Glgn9a7Mas0lyJ7oMGEQ+8rwLMm1nAJYtkrPqCBJ9bwHubRDz1hoH2LiInclwSMeuCEA5uiCKdyk2S4WSwcmrwOuE42fGwfUN0MrV4s4oksO+cz7ansyPZ9lUzu32FmLt8FUJlo7Hn46dweOubUNMpJvGToxgly/CWjcOM2x+Ep6jSQso0kexqxtEPHkPjxhegqwnLVmxL5IPBSbVIr7n6Stx22xcZ8QZ8XvbAz4qD8yIJw1yF/LQzDYFsVbPbbcfxOikjOfGeadPJ+ztcBJyygD09EcRTKUQTKbz51ttYvXoN2ts7htsMFlYo+MdFLswut4vUA0hpwMs1Bn64QWckJYnA4pki7r9JQdAn4PW1Jl7+WGBOVoxAYSJULiEWJqUwJZlwavA6iTUsZ6dsaTfzfiBiswnW4sNetTNLIjlYSUB2smX/9QaLseSGf4LLW4B965/DwY0v9Tpr2ch4yyZg7pcehej2ZbAiVXPT5pdw6PUHoSUiw8Jw/PhxuPOOW7Fw4Tx4ZKpM5GU2XqZ+48Q7LAz5SWceAhbx1sDrtfKSMxsvFUlYfC5PGXnmTSfv8XARIIJJp9Mgf4ZYIglNkLB502Y8+pvf4dix48NtBpOKJKya48KykTJLnEHxsjvadPxoXRLHkm7Lxgsg4NWwbJ6I8mIZH2010dDeG78rScR5lEpRAcze7E6W09TA5OsQb/bf7E7nqJvtogkZ0s0QsKN6NuAJlqCgZBTCTYeRTPQgVDoOvoIRqD/4KfR03HbgsuoHk+ezu3gU5qx8CC5/Eesj2YlJ4q1b+zTqP30WeopigIc+FiyYj1WrvoRRI6tZDG/Q52PRFCQJc+IdGj9+xpmJANl4jxw5wurxcuI9M+eQ9/ozIEDEpKoqI95INA6dqgzt2IVHHn0MNTVHh92iLAJzyyQsrRZR6AKr7UvpIj9oMFkGJ5J46ZAlAyGvCUURkdJkJFVKjmhJtlMWBhAqlRBuMlC3N2nZR7M8nB01M4vbZWUDczNADUhQObV4SdK1vJSZ1GtLwSLVyxVE5ihVOelcTD3vZmx945doO74bZAOn0ww9zTy3qRiCb8QkeEpGI9ZyBGoqjupzb0HJ5PMgubxQk1E0bn4JDRueRzra7niknRBH6vfixQvx1a98CRUjyuGSLI9muhnJsuXxzQ+OwNmIQLaNlxPv2TjDfEwDIkDk48Ty9kSiUHUDB48cxe8ffwI7d+5m/xvOQcRb4BIQkA14JJMl14jrItrSMgurIfJwu0RMGydh3jQRXjcQ7hHx4Rb6axHoivvLUTnOhT2fxLD93RgjyVxbrl2jdwinqr797bX12pItI12LgEVBYskwyJ7bcmwnXN4QiqtnoOHgeiQZcZL0biXQECQZ/oopqFx8M0Kj5yDSsBfhIxtZuFDhuPdTBtoAACAASURBVAUW8SZ60L7vY5YoY7h86fG4cfHFF+KO229FSWEIXpfCHKsolIiIlx8cgbMVASLempoaW+L1cFXz2TrRfFz9EXBKA0aiUSRVDT2xBF566RW8/PJrID+HoQ6Sx0aGRFwxVsHkIhE+2YRuCGhPCnj2ENXfNRmBjq6UcN/1Lpw3R4DLBRxrFPDgkzr21wqsNGDVRBkeP9BebyDR05vJKpt8raQWLGrXVj8PTxq0pFs7rQZTOVskTG0HikZCdvnR1XoEqUQUWjrN2pZkpvu2JGSqvxssZ6RbNudKyJ4QS3nZ07AXWx79MvRklGW4ovOdMCu7huBQ8KGqqhJ33HErzl96HjwKOZ65mGMVES/3aB4SPn7CGYxANvG6nOpEPd09WLR4EQ8nOoMnlnd9aARInZoix6poFNFEEqYo4a2338Pjj/8RHR1DO1gFXAKuGu/CvTMVjC+wcjTTEdeApw+Y+PFWlamGZ02S8Q8r3RhbZf2/rlnAL57RsP0QoOuClf1JMVFS5UdXC3lU58br0m8sEu5NluEQsDNKh4Zz0lTYtl0mQpMLl028RMTkoUzjpwL1lEvaJDutnUSDXU+SIfuKYGhpFo9cde6tKJu9ArInwC4ZbTqILQ/fAyOdYMQrKi64ykdAj8eQ7gyTuDzkBEycOB5f++pXMH3aFEhUlYjCiShpvMvFiXdI9PgJZzICDvF6WXUi27nKyVzFvZrP5KnlfR8KAXKwcuy8PdEodAjYt/8Qnvjj09i1a2h188igiG/Nd+PqcTJclik3c7xXZ2LVuynIklUG8M5rXLhsicTI+eMtOh5/VUdTh+XBLEoCFl5ZhJFTfdjxfgS1Oy1nJuclKgrcYyfASKWgNdZZEiu7ki399hlohnwzhGuRYCaPc3ZsL5Gt9c8MMUsuP0pnXsFChtRYGK2734XkDWHk+XehcOxcGJqK+nVP49h7v2ZScWD2OfBNmwH3qNHQerqRqDmCyI6tSDbUDzoFJNVesOx83HrrF1FRXgpFElAQDDLi5fbdoVYu//+ZjoBj46V9wGy877//fiZzFSfeM316ef9PhIBj56UMVj2RCNK6iXgqjaeffhavvfYGy2x1omNsgYS/X+jG8jFEoLlnvntcx6q3k5AVFxQJqC43MWUsScUmahuB2hYJuqmwQgeKS8Kd/3ssSkcq2PpWNz54sp2FDzmqZtkfQOFNN5N4jK7nn4GpalnXI4LOvTYRKRE6SbBOdSGHeDN/+8T4kgRtsKQaOtyFlZh047/DU1QFIxVH+9730LDpBQiyB56iahiGhu6aLVCj7QjNOQcVK1fBNXIkBJcLpq5DbW9H++svo+ON1xgRD3QUFxczNfPll18KRRSYqpkyVlFCASfbF1+9HIGzFYGGhnocOUI2Xi/cbo9VFpCSClBZwEDAUivxgyNwtiJA6tZkMgmK540lk9Ah4sU1L2P16hfR1TUwaThYUPjQ8jFWusiJRZY0Swc5WL12RMP3PkywXM0sCxXVmfWZmDNJxIQxbmzcLaC+FUip5FgsYNIiD2acV4i1L3Sgvd7sLRNIDYoi5OpqiLIMrb4egm2zdfoxUAKNktlXI9a4B8mOY0wyFqlGrpoEGZWpaD0RLPsMwF1YhaLplyIZrkN473vwjpiCSTf+CO5QGSPvnmPbUfPWL9B1fAeLA6ZDgMFU8+Wf+zwq7/86BNt7mxG7piG2ewcaHv0Vovv39ls61N+Kigrcd989OG/JIoiGztTMTuIMbt89W3cbH5eDQK6N18UlXr408gsBIt5MWFEsBs0U0NbewcKKNmzYNKR3c5HbwA0TFVw53o2Q22Leuh4d/+ujGFpSMmTybBYF+Lwirjrfhc9fKqI4JKIlLODF90y8vUFDWiXVsQaXn+ROGYFCHxJRA2rScoKyyvYZkN1euEeMYKSshjugJy3iHIh4yxfdgkjtFiRajyAwahbK5t+Ilk2rocXDqFh0Cwv5ad32EgsTGnXJ1xAcNQemlsLB1f8Lic5mTL7xR/BXTUU60oGW7X9G0+YXkOpqsvJV20tEKS1F1apvouj8C/stmuTRIzj2i58gsn1rTv0GOpHUa1SR6I47b4XP7QZVJAqFgszDk+J3OfHm1x7Mx9FSHK/j1UzZ4LiqOR9XQR6P2YnnZermaBQpzUAyreG551bjtddeH9K7mYXmmBpk6KDQoklFCkJuCU0JAcdjEouTJYl11kQF99+oYPZkEbJsqXWffxt47CUVadUqbBAsUnDe9WWYsiiITX/uxq4Pu5G2yZcMse4xo1H2je8x8ut64rdI7N0zMPEaBjSddMkGXB4fiuZchdLZ16Dpo98iHW3D6Mu/DVeoDA0fP45I3S6MW/Ed+KunsSzUB576O7Qd/hS+8skYufQ2dB/fjubtr8NIx5hanEm0zDlLhy7JqLj1LlTefnd/4j1yGMeJeHduy/kfPSSUlZbitttvwfLll0EwdPjcCovf5WrmPN6IeTR02j+ZlJFeqser2OFEkQirTsRtvHm0GvJ4qL3q5h7bu1lGU1MLHvzpz7Fv3/4hczeTk9boIDC7VMKquR5MKpKxq8PEQ9tV7A4b6EoB08fLuO/zHsybJrGQIl0HnnnDwOOvpqFqIiRJxMR5Adz0D6Pg9orMweqdx9vQeCRpO1kBgj8A//kXQlBVxDdtgEC1c0ki1jT2cg6LGG25lGzIoQr4Kqaifc9b8BZVo2TmCsj+InTu/xCJ9qMomrwM3hETIQgSGtc9hVhbDXQ1DU3XmLQqKS54qkfCN34CRI+HEa8WiaBj06coXLoMo77xd5B9ASutJf0vGkXX2g/R/PQTSNXnZgEj++2yZUvxrW89ADdJt6aGUCDAzFqONzNPnJHHmzFPhp5TJIHMUcy5KkIpI7mNN0/WQN4Ps693s2qAZbP6wxNP4t1332chRyc6yNa7cqYbd05XUOqzCgOQGfZID/Cr7RreOa5Bh4nzz5HwxSs8qCgT0dRm4unXNWzdb0I3rXq9I8a6cdld5SiscOHAxgi2vNGN7ja7DCGIrDVoqpVJyh0KoejiyyH4g0ju34PEgX3MsSn7sBJomNBUzQobkmSmttZ1q8A92WmJ5KhNw3TClUxWCMEqFWhAkES4q0eh9JrrEbrgEkjBoEW8nZ1oeeK3CG/5FMWXrkDh4qVwFRbBUNPo2bYFLaufRaruWD81OD3M33TT53HTTTcAupZxqnKyVXE1c95vx7wAINvGqyjMxkvViXq4c1VeTD8fpKM6pWQalpNVD+LJNFQT2LN3Lx566FHU1zdYaRYHORZXKfjOPBfOKReZutk5iMDXNZr48WYVh7p0hHwmRlcAoYDIyDaaoKQYLtS1AomkyWJ5i6tE+EIyEhFysFIgu2TEOnXEunWLMFk/REgFIYz8xx9AqR6FnrfeQPiFPzHVMnkWG8kUIzUWIpQplGC/Jxsty0hlWJ7TRL8snleHUlYOpbiEfU8StNrVCUNVUXL151B8zfWQQgU5CES2bMS+734dAuVXnjARUiAIEI6N9Ug3N2dU086PiFRnz56FBx5YhcqKERB0cqrqrUbEvZn5fswXBOrr6nCkpqY3LzlJvFQWkHs158sS4OMkUs0umkApJEnJGo0l8MKLL2HNmpdZQYXBjusmuvCdBS6MDOTG9RDpHe028cN1aZa/mQ6SMsuKBVy62IMLFnrg84h49SMD727QEI0TuWpweQRMWVSE+cvLECxWULMjhs1vdKKnXQVMq+S96ZJRcuPNUEZUIrVrJ6Ib1sMzcRLcY8cjefAAkkcOwdRUSAWFcI8eAy3cgWTdMebVLFAN0IpKCG430g31jGDl4lKUXncjvDNnMYmdHLd6NqxF97q1KL/ldhReegVTa2cfkS2bsP97D9h1femhwPLQFkmazgqHcn5D6SBX3ns3Lrv0YmbbdUsiCgpCGaeq7FKHfFVyBM5mBDIJNGgvUiUuqk5ET/2ceM/maedj64sAES/ZehOJhCX1ptIwBAnHjtfht7/9PbZt2z4oaIsqZHx7vgvzRkg5Em9KB945quKnW9M4FqXC9gKCfhHXXexir8oyUjEDrWHg6dcN/PkTFYmUgeJKNy65vQKzLyqEJAvobFax5mcNqNsXt4sdwErT6PNCoixPugk5GELxTbcgMH8REvv2ouvFZyH4/fDNno/AgoVIHa1Bx4t/gtYZRnDJUvgXLIbo9yO6cT3Cb72BwIzZGHH/1yEVF7NxksQb370TraufZTG6ZTd8Ea6y8gz5sjCjT9fi0P/6+yxcWASx9YDRh6RJmiVnqttvvxWFBUEWQkS1d52i91za5XsynxDIVTUrlo2XJN4lS5YwMZgfHIF8QKCv1BuhwgkQQM7B77zzHh599DGmih7oCCjAl2e7cf0kGSN8lrqZknE0REw8vDWBF2s0QKRqOyJGlEj43j0enHeOzIiYkZwJ7KsR8P3/TiLcYxHvpXeMwOyLilhWq3BzCi8+WI/GQ0l4AzLUpIFkXGMPCkxKFCUopWUoufkOBBctQWLPTnSueQ5FV1wD78JzIQUC0Lu7EH7mj4gd2o+K+1bBPWkq87ZOHz2Cup//GN5xE1C56psQvV5riFS9qaMDrc89ie5tW1B+0y0InTMfks/PJOl0exuannocnR+8O6wqQqWlJfj+9/8BkyZNZNIuVSIqLCjg0m4+bC4+xn4IZEu8bje38fIlkscIZEu99PBJdXoNSUFbWzsef/wJrFv3KYv57X+YGB8SsLhSZLmby3wi6rp1rD6QwNZWHS0JiZUHJJIsL5bw3bu9WDZPgST1huds2m3iR4+k0B01map58gI/Fl5pqZp3r+3E9ne6UFLhw6JrSlC3P4FdH3Yh1q2xIgssx7IkwjN1OnwTJjFVc+rYUVR97dvwn7eMJd4wYlF0PP0EInt3oerr34FnwiQ2DLWhHscf/A/IoRCqVn0LSnm5xbuGgeTRGjQ/8Rg6N62HUlUNz6jR8I4bj3RrK1L1dYhROJOaHpJ4KUzoxhuvx7XXXgOf1w3J0Fj4kJMwg0u7ebzp8nToucRrezU7qmYeTpSnqyJPh+1IvUSusVgM3T09LK5XkBWWu5kcrerq6vqhYzkPG/BKBkZ4TbglIKaaaIyaUAUJkihlkkL4vQJWLFVw42UejB0pM/Lde0TDL5+KY3cNSdjknWVCdlFcrwDZJSDeY6BqfAiX3FmF0dP8zNFqyxthbHi1A9Eu60GAOUiR9EtPz5rO4pUC552P4quuhXfi/8/eeYBHWWVv/Ex6JSBNmhRBRFBRBBKKHXsDe3fXuuq6trX9XXtZXfva+9p7QxFRk4hgQbGjiCSICkgnmUnPZP7P70xu+BgSkkASMsn5nieEzHzf/e59b3nve+65524r5QvzZdWbr0pR/nzZ8pTTJX1klhJm4JvZGmGqbPlS6XrQYdJ534MkttMWStyFX3wuy996VSoK1ujacygmRmJTUjRmNE5U6prVgDMAx4zJlBNPPF569eopUlkhqUkJamKGkN2B9w1Jp502Syt2G0Tgjz9+rw4ZyaEg1aZmiHfMmDFmam6DFW5F2jACqF5+MCujev2BIgnGxEpFZVBee+0NefPNt/U0o8grTL5hJ62QxnZiTddzjm7NumdIOqRWyaih8TJ8SKIkxPtkck6xzPs9JBkdkqSo1Cdl5eFtQKFg+OD61IwEOey8vjJsXEeJSwi7Ta/6s1xeuHGhLJ5fIgmJMUrQpUUVUkEULOI0sx0oJkadqIgsVfjNbClb+KsES0skeZttpeOY8WqiLvh0hhTP/VEqS0tEkhIlfeeRkjpwsKz+7GOpWPKnhAL+sDOXnlxEBC09/6/mAIf62lPv3r00JvPIkbtIXIxPEnwhycjIqDmFyNRufQja920RgbVrvDhXcTpRTk6ogDVe28fbFuvbylQPAu4EH1QvjlbELcfk7ItLkKKSEpk8+R156y3It6jOlNzOo1rFYPXhBDG+oMTGVqlq3H98uvTfKlG2yIiRNX6fzM0PyuyfKmR1YZjAE1NiZNcju8rYid0lKS18QPzy30vktTsXSUp6nAwYniZJqbGy/Lcy+XHmGlm5pEy3P7EGHKqqFF98gh7Tx9Yh9voG2WZU7XUc4wJt6P7eoB4PKMRdrgwHzwiHrAyfXNTYq2fPnnLkkZMExZuYEC8xwQo9CMEddu9I19RuY5G1+6MdASXevHxJSkmWpJrTiSyARrTXq+V/ExBwpMUWIkJJQr5lwZCanNnT+9CDj8gPc35Uotq0KyRH7Zsmpx2eKBnp4ROF2Ko779eQPPpamXz+PdGoUJginbrHyd4n95Cd9uwmgYJyef/JRfLH3FI59Ly+0mdIipqsS4uC8uXUVfLxK8ukcCUmaNSvSHyCT8pKwycVcal6ZVuRj91JYWL1VR98r1RfTbLhXxtHunrs367j5eijj5Bu3bpKsLxU0pISlXS9wTKMdDetBdnT0YkAS1YLFizQvqDbiVzkqlGjR1vIyOisU8v1JiLgFB7EStQqNTmzt9cXI2UVlfLpp5/Ls88+r05XG6MEvdm7/PQMmbhX/Do5Lq8Qmfl1UMl3weJKJUWRKknOEEnJiJWqYEjKi3yyx3G9ZeQBXSQpJayCub7/eI1MfXSRlJcGZZ9TekuvgUnCsUnlxVXyzYerZPb7y6W8tErik3zSpVeSZB3STXoOTNFnZ7+3Qr6Y8qeStCvXxpQPJbv11gPkuOOOkR12GCYxoaAkxcXqeMKPhYbcxAZqj0c9AhCvOyQhUUNGZueE/AG/jDbijfrKtQJsPAKOfIlo5fb2st5bFRMrxSVlMv3jGfLmm5Nl2bLl9cZyrjMXoZBcdnqGTNo7YZ1bUJqzfwzKfS+UytwFFdVrtuH4y1UhthDFSHJqvEw4pZcSbwr7maq3JX2Xu0qmv7RERuzbVXae0FlN0GGVG5Klv5XKe48tknlfrpFtR3WU8Ud2l54DkyUhiRCRIsX+Snn/iT/k8ylLpawYNd9483J8fJz0799fJk06THYZsZPguB0fI2pi9noxW2jIjW+b9mT0I7BeAI2cnOwQs3sj3uivXCvBpiHg9XLW04sKCyVQXMypARIoLpHp02fKlCnvypIlf24U+eKIdcFJHeSY/RM9W4tE1hRWydSZ5fL6B+Wy2h8+GrC0PCSVlbhthR2bON+3S58EmXT+AOkxMEVi42KkuLBCZk1ZJv6VFTJ20payZb8UjSTlrhJ/pXw2eZl8m7tKRuzTRXbZv4skKzF77imqlPvOnSOL56/vQFYfmpDugAED5NBDD5aRu4zQ/cyxnENcvXUIL+a4OPYzN8wbur732feGQLQi4CVe9ex3ATSMeKO1Si3fTYWAU738xuTsyLekrFwkLkEdrHI/mi5Tp05T8m3smi/pZu0YL6cdniKdO4WVKV7J3/xULm9kl0hiIscIJkhcrE++m1cpvy8NyorVnIfr03XYhOSQDB7VQXptkyqpGfGyJL9IfvxkjWw1pIPsc0of6dYneR3iRcV+NW255P/gl3GTtpTeg9NqCN9hhvK947RvZdG8xhEvhDpg6wFy6CEHyqhRu0g8+5argpKanKRK13vWrq3rNlULtXSiFQE1NVev8XJKlxFvtNak5btZEHDkizqFfNnf6+fc3oqghNiOU1go06fPkPfee18WL17SKOWrijpYKSOHJUinjLDqrKgMyfJVVdK5Y5xM3DtVdhmaILGxIfkxr0q++yUoL75bLCsKQsKmIt36FKyUxFSfmpQJqFFZ7pOO3ZJk16N6yMj9u0laRtiMzbrwH/MCMvWxhVK4qlwmnNhHthvTWeITPac6iEjB8jJ54MI5smxB8XqxmesCmDXdgYMGyiEHHygjR46QhPg4iWFfc0KCpKWl1jiQYF42E3OzNFNLNMoQQPHm5eWF+0Y4clU4ZKQp3iirSctusyIAybHei6dzDflWsv0mVgr9fvn4Y8zOU1X5NsYhSddta04MCkl8XIwMGZAoJx+WJmN3TpCkxLVm4BVrquTBl0plck5JTVlrtvogVTFBc7JQiFOO4iXz4O7SpVeyJKbESmB1hcz/eo18l7tSgpUhGTaus+x5fB/puXWqhqXkYh34oxf/kGlP/yElhRwZWD+kqNdtttlGDjvsYNl55+FrSTcxQdJSU2v265IvMzHXj6fd0T4QWId4nVdz+FjALD2c2i5DwBAII+DI1ynfQFGRlJZXqPItKiqWmZ98Jjk5H2lEGki6odfafbIhSUuJlUN2T5ZTJibrvl7vFQyG5N0ZlXLt/QX1kiJH/6V1ipWEZJ8kpsZKcUGllASqpLwovGacnB4jQ8d3kqyDekqvQWmy7PdiJeZZ7yyTP38tIfxHvdlnzXbIkCGy//77yPbbD5WEuBjBYM6+xHSP0rX9uvVCaTe0MwTWP50oJydUaMTbzpqBFbehCEC+BNdwyhfyLSktU/ItKa+Qeb/kyZwf5siUd6ZISUnthyps6F1pKT6ZuHeSnHJosp5k5L0g6Pc/Dcr/3b263lCNzjEsfO6uRrRUNYxHtKrbUJUkpoiu83bpkyyrl5SqKbqEpd2qDTs/aczp7t3lwAP3l8GDB0nfvn0lTqokzseBSUk6YXf7E410G9qy7L72hIBX8SZqAA13LKBtJ2pP7cDK2kAEvNuMnMMVISSLS0okFBsvQfFJUaBIPvwwW95+e4oq4doPVqj9hQSNGrp1rJx2eKqMHLb2IAXuLvQH5ck3S+XpycX1Eq9LPWz2DmnUKq9MDpejSmJiRXyxRLQKSZBDlGo5R9eb06SkROnatatMOnyijB41UhIS4lhAlthQSNJSU5R0UcLs1TXSbWCjstvaHQJr9/FWx2p25/HaGm+7awtW4AYi4CVflC/7fCHfomLIN47T4PX/c+fOVdPzV199U+eRguu/MiRpySHZfVSiHLFPigzqGyexMSIrVgfVs/n2JwplRUHTbsfRyFUNWNDl0PqxY7Nk7NgxMmBAfw0DSQjKWB8m8nVJ19Z0G9iY7LZ2icD6a7y5uSF/QaGMzrTIVe2yRVihG4yAO0bQxXVWpyt/QMoqgxKXmKjm5xXLlss777wr3377vSxevLhBa784XIlUyqhhCXLQ7qnqYDX144B89m2ZFJXGia8eVdrgAjTwxpSUZNlyyy1lzz13l3Hjxkp6h3Q9k7eqolyScaJKT1dHKkxm7Ek00m0gsHZbu0XAhYzEOqSm5uzs7BCzd1O87bZNWMEbgYA7zQjyrXG6CgSEvb7EdvahgGNi1OHqvanT5PvvfpCVK1ducM+vW5/FQSp8KlBIyTY2Nq5eU3Ajsl7vrZBo9+7dJDMrU3bfYzfp0WNLCZGnYFAPPEhJTl5nPdd7xF9DFHS9GbAbDIE2ikD4kIQ8SU5JCRNv2NRcIKNHZ1qs5jZa6VaspkPAG2QD8nXql8krJuiKkEhMXLyanwsKCmXOnLkya9YsmTv3Z42EBVnXdkXGSnZE1hKEhmNUx44ZMnz4cN2XO2jQ1uosVVVZoaSbEBcrqSnJulWIwxDceq7bo9sSeWy6GrSUDIGWR6BmjTc1RRLXbieyfbwtXxX2xmhFwEu+RK9iKxHn+RLpip+y8gqprCZgjuRbtWqNLP1zqcz+6iv59tvvZOnSZVJeTcCN2QPcVHg5ouTkIAJe7Lf/ftK/fz/Zskd36ZiRISG8roKVep4uRJuakqIOVGZabqoasHTaGwLe83jjsIyZqbm9NQErb1Mg4FWo3mAbjoBLSkulXPf8EsA47IDFYSSFBX55Z8p78ufixeqgxTpweO04HFijuS48jlGoqNWevXpKUnKSHla//bCh0rVbV92LS1Qswj4ShYpZOaoXwoV8MSsTJtJUbnPVkKXblhHwnk5ksZrbck1b2VoEgdrUr/N8xvSMabm8olIdrzhwPoawkwWFUl5RIUuWLJFZn8+S4uISWbRoiSxbtkzXgiFg0mhsLGhvgSFJPffT55OEhHjhkHrWbzt27CijRo+UTp06qpJl3TZYWSE+TiaqCkpSQoISrfshDUe49W09ahHA7SWGQBQiUGvkqsJCv2SaV3MUVqdluTUgEKl+nfkZ8kQB8wMBV6BqQ6KEGpOQoARbVlauPwt+XSiLFi2SiopK3RfM1qSVK1fp3tvGXhBkjx49ZPC22yj5YiLu16+f9O7dU+Lj4lTN6hGAbA3icINQUO9D9UK43O8I1yll8mBruY2tCbvfEAgjsM7pRG6NF+LNysq0kJHWSgyBTUCgLgJ2HtCQLySsalZ8Srwh4i3HxaupOQQZ+mKktKRUFi78TZ2xNmYNGOLt3Lmz9Nmqt6pVqaqq8Y5mWxDqNjbGJ7ExMUrCEK0jWy/huljLRrib0CjsUUNARJypGQdFJr++7OycUCCA4jXitRZiCDQFApEE7NaAXehJR8TqFV1ZKVUhzt6tFM4g8kGUvnDIR1WZMT6J0TXi+k8wCB/AEBSV1Rq4yqekG6qs1DCScbGxEuuLkbi42BolDNGy5sQP6tYbfcoItylag6VhCIj88fvvkpefX3Ncpp1OZK3CEGhGBCLXgN0artuK5P1dWRmUqhCOVsG1zlYcIq/bk8LWYf7RqJDu4ntlaGIuh8IeyapoIVGO5YtVdYvydQTrfvOZI1tvEAwj3GZsEJZ0u0RgvTVe9Wr2Y2rOklQ7nahdNgordPMj4CVg3uYI2K0H1/bb3YMi5gg/SFmp18O80G6NSbjafAyJOkL1kiv/d3+7s3K9R/cZ4TZ/O7A3tE8EatZ42QevhyRUn8ebOXq0hoKzyxAwBJoXAUecusarhxeEf1xIShcdy/v32qMEI4gXxev5cYTqfjvnqEiitbNym7eOLXVDwIvAuqcTJYgvt/pYQItcZQ3FEGh5BCIjVnmJOFIle8nXm1Mv8UY6REUqWlO1LV/H9kZDYB3nqvj4sOLFexJTM0d82WUIGAKbFwGvKbmxXs2RxGpEu3nr0t5uCIAAWwXz8vKqz6024rVWYQgYKoHQqgAAIABJREFUAoaAIWAINCsC3shVekhCzRqvbSdqVuAtcUPAEDAEDIH2iYA3gIZGlDPibZ8NwUptCBgChoAh0DIIeBWvEq8LoGHn8bZMBdhbDAFDwBAwBNoXAurVrAE0kiU+zqN4jXjbV0Ow0hoChoAhYAi0DALrxGoOezVnh/z+gBjxtkwF2FsMAUPAEDAE2hcCf/z+h+QvyJeU5BSJ967xGvG2r4ZgpTUEDAFDwBBoGQQg3rx8t52o2tRsxwK2DPj2FkPAEDAEDIH2hwCm5vnz5wunE5lXc/urfyuxIWAIGAKGQAsj4F3j5SjOtacTZY6W9DSL1dzC9WGvMwQMAUPAEGjjCHhjNSclJVXHai70y2iI1w5JaOPVb8UzBAwBQ8AQaGkEfse5Ki9PUlNTwqcT5ebmaqxmc65q6aqw9xkChoAhYAi0BwS8ipfzsI1420OtWxkNAUPAEDAENhsCRK5asGCBJCcnSzhWc3ZOqNBfKJmZmWZq3mzVYi82BAwBQ8AQaKsI1BqrWYl3tBFvW610K5chYAgYAobA5kPAa2peu53InKs2X43Ymw0BQ8AQMATaNALhQxIWhGM1h0NG5oQC/oCMGj3KTM1tuuqtcIaAIWAIGAKbA4G1pxMRQMMRbyAgo0YZ8W6OCrF3GgKGgCFgCLRtBGpOJ0pOXhu5iu1E5lzVtiveSmcIGAKGgCGweRCoWeNlH2+8J3JVVmaWpKalbp5c2VsNAUPAEDAEDIE2igCm5ry8PElLSwuv8WZnZ4cCAb9kZmbph3YZAoaAIWAIGAKGQNMhsN55vLk5OSF/IHwerxFv0wFtKRkChoAhYAgYAiCw1rkqJbzGi+L1+wOSlQXx2iEJ1kwMAUPAEDAEDIGmRGB95yqINxBQ5ypTvE0JtaVlCBgChoAhYAiIeIk3HDIyJzfk55AEO53I2ochYAgYAoaAIdDkCDiv5tSUFImvOY+30C+ZWaZ4mxxtS9AQMAQMAUOg3SPgnKtSkpPDxJuNc1VhoWRlmVdzu28dBoAhYAgYAoZAkyNQe6xmP9uJTPE2OdqWoCFgCBgChkC7R2A9r2ZiNfuNeNt9wzAADAFDwBAwBJoHgVq3EwWq9/Gmp9t2ouaB3VI1BAwBQ8AQaK8I1Kzx4lzlTidC8RJAw4i3vTYLK7chYAgYAoZAcyEQ3k6UJynJ1cQbDhkZjlxlxNtcsFu6hoAhYAgYAu0VAUzNCxYskGTv6UQQrx0L2F6bhJXbEDAEDAFDoDkRqNO5yhRvc8JuaRsChoAhYAi0VwQW/bFI5s+fL8kpyVIduQqvZs7jtX287bVRWLkNAUPAEDAEmg+B9WM123ai5kPbUjYEDAFDwBBo9wjoGm/+AlW8SUlJ4svNyQ0VFKJ4zbmq3bcOA6BBCIRCISkvLxd+c8RXTExMg56zmxqOQFVVlVRWVirGbL8wjBuOnd3Z+hDwRq5SU3NubjXxmldz66sty1GrQwAiWLlypfz0009SWloqgwYNkj59+khsbGyry2u0ZgjSXb58ucydO1f4/8CBA6VHjx4SFxcXrUWyfLdzBP74/XfJy8+XlJTq83gh3sKCAhmdmWnbidp544iW4geDQSW/1atXS1FRkZJez549ZYsttmh2AiwpKZGcnBx5/fXXpaCgQMaMGSOnnnrqZu07a9asUTzAJfJCkbNNkB/duO/ztfpqZpfFBx98IK+88ormd8KECXLggQdK586dW33eLYOGQG0IQLz5kduJ/IV+OxbQ2kvUIFBYWCivvvqqfP/99wLpQC6777677L///pKRkbHJ5SDNX3/9Vc3JrMf069dPiQsSgGxfeukleeGFF/T/u+yyi9x4442blRRmzJihREUgHO9Ffsl/ly5dpFevXjJs2DDp37+/ftZaLywKq1atkueee06eeeYZnUhRr3/5y1+kd+/erTXbli9DYIMIrGNqTqg2NZvitVYTLQhgeszLy5Mrr7xSyRGVx/of+9DPO+88NUtu6nrgN998I//73/+UWLt37y4nnHCCbLvttkoCkPFnn32miheChvCPOOIISU1N3WwQMhF48sknlbAgLvLplK37m4nD8OHD5bDDDpMdd9xRtzS01qu4uFg+/fRTnVyR/3322Uf23HPPJplUtdYyW77aNgLrEa8eklBYaKbmtl3vbaZ0EN8777wjt99+u2CSdFffvn3lzDPP1AG6NkXHAA5pl5WV1ZA1plfWDR1Rc09FRYV8/PHH8p///EfNt6zfXnDBBTJixAglK+7FxA3pk9ZWW20lW265pRIdz3Lxf2+6fMYEgR/eweV1GHLv5XnyyDtQ8aTRENPw888/L4899pisWLFC8zhkyBBJS0sTCGzp0qVKyOSVz8aPHy9nnXWWqkcvOZM3sOU3n5O/SKcm8unKQRkgePLKZ67s5Lkuk7Z7nntxnOJZ9x5vOUmPSQ2RfniGvHbt2lXfx3NgxOUwJt98XltababhW0GiGgEXq5nIVfH065zs7JDfQkZGdaW2l8wzCKNCb731Vpk2bZoWG5LFyYnfqLm//vWvutbrvXgOsmQgZxM7gzodgAEd4sRxB6cH1ou/+uor+eKLL+SNN95Q0y1m2oMPPlgVL2oak63rRJAZihglifn766+/VgIiLZyuIGTIAiJZvHix/Pzzz0puEAYBazp06KCEAWHOmzdPFi5cqGSJesa8zftIvz4F7yVeCOryyy+XAQMGaF7I6/vvvy/Tp0/X8pHupZdeqiZy56zE+x024AvpM+HYZptttAz87SYWlOG3337TZ/muU6dO+jfbJSgn+PBct27d1nGGoty8hzIuWrSopg5Ym2fSxHNOhYMr9/3yyy9adupp66231vR//PFHnUjwfuqOvJEn6hfMd9hhB/3MLkOgtSDA+OM9JCHBHZIQCPhl1CjbTtRaKsryUTsCNOAffvhBrrvuOiVQBn4G2jlz5siSJUvU3HzuuefWmIVdKnjIsmYIWUMsKCan6hjQIexx48bpd5iw8/PzBScq3sfAD6lD5kcddZTst99+8t5776njD/ePHDlSrrjiCiWTm266STsYZH300UfLQQcdpCSKMn/zzTc1D5A5ZHPLLbfobwgPUzEqm/t4J3lDneK4dcoppygxbejyEi+TiDvvvFMGDx6sj0Dsn3zyifz3v//VckGUZ5xxhk4mmCCg6p999lktkxcbyozKp8zbb7+9kiITlkcffVTeeustxYTPKR+TFb7jYkIzduxYOfHEE3U9GfwgUurotddek9mzZ2s53RIBKhWixpxP/UGapIWZmXLx/d577y3HH3+8Tkoox7fffqvvJ3/cy1o/+QNv1oIt5ryNIK0NAa/iTUxMEF92dk4I4rWQka2tqiw/kQhAIpCXW89k4GVAxtEJlYoywsMYZxynnlBZPMNADrE4IiVtyBWSQx1ipobgcJRiDRl16IgXMsGj9sgjj9T1xsmTJ2uaDPpZWVly/fXXq5K95557ZMqUKUoKeOFi0kWBMil44IEHlPhR55MmTZJzzjlHCeipp56Sd999Vz+HxCBcPuf9vBePXogSkq7rqo14UehclAFs7rrrLlWGqOyTTjpJy4IihnRffvllVexg1rFjRy2Lw4oJCZiSHpOGe++9V7FEyUPc3Ov2NLv8kQ7pY30gPRTxQw89pMqbSQ/PUTbKSbm5dt55Z1XiqFbUK2WiniHeAw44QAkVTFgCgOipN/DiM9oF/584caJiRRntMgRaEwLeNd4axUuHyszM1E5vlyHQWhFAnaEUc3NzNYsoVQbaRx55RBUlpMrgi0qE8LhQchAiipTBHhWJQxSDPuZXHKkgA9JC3S1btkxmzZqlipZ+QTp8x7opCg4igXgiiRcyQdHdd999qsxQb//4xz9UzWEyvfnmm1WtYyJFGWPqZa0aQiIvkD8Eg3kZMyumbtQw6TIpOOaYY5SEaru8xIsVAHJC8UJIlJv3oFIhNEzX5Iu1cCYCEDKmW1Q6ExbyhYVg6tSp8t133ynBggtkDdk54iUfqFPew+TDETx7byFT0rvhhhtUlaJy77jjDlXXTG54N8ocqwVOan/++aeW85prrpG99tpLSb8+4kUxgweqm3cwMaJ+MPu3Zsex1tq3LF/NiwBLMRwLmJaaFvaB0GMB/QHbTtS8uFvqTYCAM5mi3BhocXraY489lFgefvhhJRCIA6WJCZrBGacjVCVkCAleddVVst1226n5c+bMmTrwo4r5DmUHMXz00UdKGo4oUGKYlCFNlCGm4UjihZC//PJLNfMSXAMiZVIAKZFvCAsSZEsPpnImAUwiMDGj1iA9Jg2sjaKkIR7KRb5R2RdeeKGa1usjXtKF9MkPip61ZWbb5BuipBx4fzOhwGxL+Zmw8Pnf//53fQfECfFiSQCboUOHqqpHSTKxYOLhLAWUkckMf4PnE088oRMNsCI9PL7JB6qX+sAawLvJC/m6++67lZj5jjJC8pS5PuJlsgTJnn/++TpZcevQFmSjCTqaJdHkCKipOS9PkjmPNyFefOrVbIq3yYG2BJsWAcyZbPFhQEa54fwDIUIUEB3Ey6ySv1GIEBntGhMvpmHUH0oL4oVAUGgM8JAcJlcGbsgctYSibizxsnaKBzHEhOkYMsUMzpow6hUFjbJl7ROCpwwXXXSRmrWZAWMmp0zkg7xCXpioISQmE84MWx/xur27kCnpODMwihKiYu0ZYoZQ8QynrDyDQmVS4IiLsqBIwQgzN/eilh3xch9ruZdccol+TxoodOqBACO8G0sBkyMwpbyQL2qecmEiZqIE6ZIX6oP1+WOPPVYnRfURL0ocUoesjWybtq9Zak2PgJmamx5TS7EFEGDAvv/++5UoGJjdvlQGYAZxTJwQLYSH4xDmZu5DaUIEXIcccohcfPHFatZ0l9vew99uS8vGEC/OV+QDkkX1oTBRqhAva6ioQcgZosKcynYkFCEqmDKQb9QqhEmeUJ3OnIqZG5XqHKYi4Y7cToR6p4yYzenwkCBewyeffLLsu+++ih2OVrfddpvul+Xi3UxInAc1zzAhARNUOE5npOGIFzKlfChOF1EKkzEWBpQ62O+2225y9dVXq+mYpQACfUCyXK6c4MTkgKsxxEv5WPdlHdkuQ6C1IxBWvPl6SIJaZzA1+wN+ybJjAVt73bXb/GFWhDxRU6gw/sZk6VU6kASDPSTGuh9EhYqDKD788EN9BsULgRDdypEbpADJ0Bkwz/LbS7xsWUFtohI3ZGqGeEmHLUWYT5kIQJiYcCEcFCx+FChAiJGJhFO8+FZwHyZw3u8lXv6G+DDnUp76FC/3kC4KGickSB9yp2yYcXF6giixDqBiMatTLszJ7PF1W3G8e20hakz6KHNHvPwfxfvPf/6zxvGLyQTr7dnZ2YoFE52zzz5b19JZZ0fxo5qpH9Z4mVhgagcL6qexxHvaaafpZMIuQ6C1I1DrsYDMOhkUzA2/tVdf+8wf7RNV9+KLL6rJEuWI+dW7XxMCxXmJ36whnn766UpWhB3E6QlShvAuu+wyJUSIhW0prL/yDNuKcG6CGCAKTM2oM0zXf/vb35R43Nag2tZ4IV4IEzPqgw8+qB68qEIIkHVWTLY4SKHQUJaoQ5ysUML8feihh6rplPeRN9LhHgiM8rBmXJfTUKRXM45MlBUiZPsPRAjJse6NGR4PYtQ5ZIhCZ7Ky6667qgJH1bpDCsi3C7yB2nYWBLfGC2aQH3XBhff0008/rd7TpAnp4pXNGjt1h0pFBR933HG6lo5pmjVxtgORPyPe9tm/20OpvabmeBQva7wMbDiBmFdze2gC0VVGyAy1iJJCHTFA45WMmdFrMoaocAYinCNmTEyqkBxey3gOQyIQJwM/bR0SQYlCFhAd5mnWXiE+0oB4UYr0Ce5HDbIGCunX5tXsgnZAaG+//XZNJCm3Zku6bCFiTypqEbM46bBujRKEKCEpttOQBp7VTt2j1CHluvpnXduJSAfP5ccff1zLAsGzlQniQwGz9o35Hicy8sfEg3VgyB6PZiYy4MRn7LOFTJ3ideZp1CtEjkkarHmO96LSWU+nPLwf4sVKAUljfqfuWN9lPZy13o0xNZvija6+3J5z6w2goV7NRrztuTm0/rKz/gfhYmaGgBmwMddixvRur0G1YlZFcUFqmE7ZNgOhOOcm7oF8IU9UHY5VEAvKDdJlzyrpQ3h4HOOlDKHwGcoV0oK4a9vH64iXiQFKmm06BI1wgSKcmZl3uTCLOFZBmhxwQD4wAWMGp8xs6UElowwhbBRpQ7YTuQAa7LuljKhK1l0x1ZMuypX0nIMV6t1F6eLdmKqZ7KD2wYv0cBIjOAWE7N3H6/bLQsg8A+FSDggWBc/Eh8kCe5vxoGaCD/4oeGe2p65csBJTvK2/P1oONw6BGlNzUrJoAA3zat44IO2plkEA0zLKEIJAmRHyEIcd1Kc3lCKqFRMxigzvWQgEVUwgCwgEczPmX5Sfi4cMobKuigc0pAt5kiaEB1FBsHhMo0hRiBAQ6eE8xHYi0oVQr7322nXCVKK+cbBCzUFGkM/hhx+u65Gk4y6IkFCROB6Rd8rnnL3IG4cZkDfU9oaCQqD0UZVOubJ26wJoQGoQO+RL5yddSBRTPERLXsGGe8DGvR+zNiSNCsfCwASG8jrixRkLpQuJMkHBLA6ulI/8YlZH7YIn9YFXNyZvHL54B4qYOuT9TKioP4gXr2vIG4VMAA0sBmCAsxxY4hDGOjrvR/HiJW6XIdDaEfBGrlLnKiPe1l5l7Tt/ePcycEMKDM4QEGo20h+BwRziQa2iolBUqEWcoxj8UZB48pIO37v9pGyFYV2T9LyHJUC2dBa21UAEdBZIHwWI2Zo8kR9UKgTiXW+GUPmeH+e4RV7YLhS59YW0eQd5g7xcrGbSdbGkIZkNHZbAe1C2pMW9ELYjaocL5OYOlYAsIWYwcOu5vJ/ycg9lYRLC+/khLVQtkyBHvBA4pmn2HmM5oAyoe55D1YOrwwQMIFzeQT3wTvLAPahgTM18BlFTX6RDmVijptxgTnAMPsdpjXyQH9a9qRO7DIHWjgDOjLR/+k2NVzOdzUJGtvaqa7/5Y1CGQFwcYwiyNiLie3dyDWhxj5dMGbghAe/JOO4IvdrSc+91sZ1Jix/3uasR0oi8IvPszUtt97oTfvgNOfPjTv+pr+brw8eLi8PQm2fvqUHe04nc6UgOm0jixdzvQjSCKRfp1pZv947I+3jG1a3Dl8+8GDvsXDlcGTaEaX2Y2feGQEsisO4hCR7Fa8TbktVg7zIEog+BSOJlHRfiZc3cLkPAEKgbgXWOBcS5KhevZr8dkmCNxhAwBDaMAGZhtmcR/xozNYFAWMu1Qwms5RgCdSPgjgV0sdfj41XxZof8xGoebccCWuMxBAyBuhFgTdutk2OGZu2VNda6vK0NS0PAEAgjwBovxIsPBo6LNc5VRrzWRAwBQ8AQMAQMgaZHYJ1YzWGv5uyQvzAgmVl2LGDTw20pGgKGgCFgCLR3BGohXk4nImSkRa5q743Dym8IGAKGgCHQ9Ah4YzUnJiZVR66CeEdbrOamh9tSNAQMAUPAEGjvCHgVr67x5ubmhgo4JMGcq9p727DyGwKGgCFgCDQDAuuamtlOlBs+JGG0Kd5mgNuSNAQMAUPAEGjvCKwXMpLzeC1yVXtvFlZ+Q8AQMAQMgeZCYB3i1e1EuTkhf6EF0GguwC1dQ8AQMAQMgfaNgDdWs+3jbd9twUpvCBgChoAh0AIIeGM1awx0TM1FgSIZNXrUeie+tEB+7BWGgCFgCBgChkCbRYCQkS5yFacTxXuPBbTIVW223q1ghoAhYAgYApsRgbCpeYGkEDIyKVF82Tk5oYAdkrAZq8RebQgYAoaAIdCWEahxrkpKloREdyxgod9CRrblWreyGQKGgCFgCGw2BNw+3tTUVImPjxNfTnZOyB/wS2amxWrebLViLzYEDAFDwBBoswh4vZo5zctOJ2qzVW0FMwQMAUPAEGgNCKipOS9PknGugnjxauY83iw7nag11I/lwRAwBAwBQ6CNIbBe5CqOBSwsNOJtY/VsxTEEDAFDwBBoJQjUQry5IX9hgYzOtNOJWkkdWTYMAUPAEDAE2hACa52rUiQuLkF8uTk5oQK/X7LMuaoNVbMVxRAwBAwBQ6C1IFCjeFNSJME5VxUWFEjWmDGSlpbWWvJp+TAEDAFDwBAwBNoEArXGag4E/DJq1GgLGdkmqtgKYQgYAoaAIdCaEFgbqzlZ4uNdAA2/7eNtTZVkeTEEDAFDwBBoOwg4xZtaE6uZ7USBgGSOHi1p6eltp6RWEkPAEDAEDAFDoBUg8Mfvv0vegnxJTa4+JIF9vIFAQOyQhFZQO5YFQ8AQMAQMgTaHgHc7kUWuanPVawUyBAwBQ8AQaG0IrHMsoIWMbG3VY/kxBAwBQ8AQaGsI/F4dMpLzeBPtPN62Vr1WHkPAEDAEDIHWhgCm5vnz5wunEyXUEG9hoWRmZdk+3tZWW5YfQ8AQMAQMgahHwEWuQvGuJV7bThT1FWsFMAQMAUPAEGidCHiJNzExkWMBc0N+f4FkZpribZ1VZrkyBAwBQ8AQiGYE1otclZubGyosLIz67UShUEiCwaBUVlZKWVmZ/j8pKUnPPoyLixOfz6f1xudLliyRhQsXSs+ePaV37956T0tdbN365ptv9J3Dhw8XZj+NvaqqRIJVISkuD4m/JCTxcSJpST5JiPNJXIxPqosaLm9VSCqCIqGQiM8XkjAKIjE+n/hiRGL57T6MyAjPVFaFpKoqpPfExvj0x3uFRPR73lFewTtEEuJE4mJFYsiL52Z3b3mliL+kSvg7PcknifHrp8tjrpzUbWysb730InHjvpKSEvn1118lPz9fl0523HFH6dixY039Nxbrtn7/6tWrZcaMGdKrVy/ZYYcdtK805qI/rVy5Un755RdZtWqVDBw4UH9ask81Jr+Nube8vFy+/PJLKS0tlZ133lkyMjKsHTUGQLu3BgGv4tXtRG2BeBlwGUA+/fRTmTp1qsydO1cJmMFk5MiRcsABB0j//v11UKETvfvuu/Lcc8/JQQcdJBMnTpQOHTq0WBPJy8uTSy65RMnglltukS5dujTq3RWVIfl1RaV8MKdUZswvkxX+KomL9UmvjBgZPSBRDhieJN07xCpJVQZD8s1vFfLUzIAsWh2U1ESfJMb5JD7GJz07xsrwvokyakC8dEmP0fsjr8KSKnljdrHMyi+XlASfHD8mVXbcKqHmtqqQyEp/lcycVyof/Vwqv60KSmyMSP8u8XLw8GQZ0S9ekhJilIwh8YLiKvksr0zen1Mi+csqpbLKJ306x8p+w5Jkz6FJkpYYo2lDyGUVVfLLn5Uy7YdSWeEPyoShyZI1KFGSE+qYJYgIkxrq9n//+59Ortibft5558k222wjMTHhtO1aF4FXXnlF7rrrLhkyZIjcfPPN0rlz5waTS1VVldCeH3/8ccnJyRHWr0466SQ5/PDDoyb8LGMH5aDtMIlgLHCTDwZL2g+fn3/++bLbbrtZO7IOtFEIuO1EycnJKrZ8OTk5qngzo/RYQDrOsmXL5IUXXpCnnnpK1qxZo0oHtYvypWyQ7z//+U9VPxAyg81DDz0kRx11lA4UkGBLXUwK/vKXv+gA99hjj0n37t0b/GqI9KfFFfLwRwHJnV8msT6RTkkxqkL9pVVSUlklew1OlrP3SpeB3eKkIhiS6XPL5JopBbKoICh90mIlPtanCrW4MiQlFVUycXiKnL5rmvTcIlZVsLvKgyGZ9n2J3Jftl9lLK6RvWpzcPDFD9h6WXEOOEOLLn5fIS7OLpKwyJB0SfRIMiSwrqtJ8XbZfhuw1LFGVeKA0JNPmlMijHwdkeSAo3VJjJFjlkyX+oHRMipFz9+ggh+2SpIp9DQQ9v1Se/rRIZiwsl84psXLebmly+MgU6ZBcO4EyeKK6br/9dp2A7bvvvjqxQqmkp6c3mEwaXBlt5MaPP/5Y7r77btluu+20j4BVQy/611tvvSX//ve/pVu3bjqJ3X333XWSGy2Kl/Hjzz//lAceeEB/X3XVVWoF40LBX3311VJRUSFnnnmmWqic5ayhGNl9hgAIeIl3HeeqaI1chWlx8uTJqh7pRHR+Bl06D7NxlO0777yj5HvnnXeqwnz11VeVeI888kg57rjjlKjD5sxYHTAi1RGDOoTNzJeL+5gV16ainLmb33RS7uN+d29txOvM5DzDfV7TuLfZLi0IygM5fnntm2LZuku8HL5TiozeOkGSE2Lkq1/L5LnPi+SrRRVy1PBkueLgDFXCH80tkxvfLZB+XePk9DFpskVarBSXVcmPi8rlpS+L5ZulFXLdfhlyVGaqKmIuiHnukkol3S9/K5eVJVXSKTFGbjosQyZsHyZeTNhf/lou/55SqH+fmJkqWQMTpbQiJC98ViRPf1kkmVslym1Hd5KOqTGyYFmF3DrNL98tKpfTxqTJftsnCYr59S+L5e4ZAdl7QJJcfUiGdEqLkddnF8tTnxTJmtIqTTtGfHLauFQ5YlTtxAt+mAVnzZqldQzekAimUxo5mHqXIqhPhzP3usHUpcPffE+dcy9p1GWC5b08x/eujfC8ey+f8VNX+3KKy/tsZJtRvKuXUVw74n7eQ3ulDKTjfZdLg+82dEEqK1as0G0OjnRdfnmXa/u8y/UP/s/nTHKfeeYZeeSRR+TUU0+V448/Xiexrv26Z11eI/uNt+yuDOSH96IKXJm8y0Sk6fJBuVyZXV+L7Dve/ujtuw4XnmdZAsL97bff5OGHH5ZBgwbVTBwoI2lQLjeZ8PZX12dd2bzE7N7trZ8NjTNGUW0XgVqcq6JX8dKImUlcd911wswd9frXv/5Vttxyy5rBlL1TzFp/+OEHNamNGDFC3nzzTZ3hTpgwQRXR8uXLdeBGfaKKmbG7jslAsGjRIvnpp5/0Nx2ftWFMc3369NEBlou8FBUV6V6tefNZVqKwAAAgAElEQVTm6WDGd5i7hw4dqs8wKEQSL0qhoKBA5syZI4sXL9ZOP3jwYMEk4b0qq0RmzS+Tf725RkIxIufuli77bZ8sKdVkyftn/Fwm171TIF1SYuWawzKkf9c4Jd6b3i2U4X0T5NJ90qV7BkTDQB6Sl78olhvfLZTxAxLk2okdpWuHWDXzrvQH5aUviuXFL4tldL8E+WNlUH5bXSlXH7yWeMsrQ/J5fpm8ObtERvRLkIOGJ0t6tRr9ZF6pXP1mgaCaXzyri3RJj5Xv/6iQJ2cEVLGeuVu69NoiTAjzllTIOc+vkmSfT244vKP07RIrN77ll2VFQRk/KEmWFQZl5i9lcviI5DqJl+WD7777TqZMmSJvv/22mgv32WcfretRo0bp36gXMGZtH7wZSKlnsN5iiy10sOfz7OxsHfT5HgVN/Y8ZM0bN1ZHky3cfffSRps333L906VKdyA0bNkxVIIM6n5NH2hd56tevXw1Z0maYIHrbDJNG2pdrM66ds96IOZd8sI4NUe66666aLm3n559/1s+ZjNLuyBNl5Jm6LlTezJkztc+AFf0AHwSWbjp16qTWJNo9/YH2zj1du3bV7zHrM6nFwrDffvvJ+PHjtf/wXvJM2SkXZn/6DeWiffft21ctUuAHNvQtsAKLBQsW6P+ZPGP+pV5Ji75EX/f7/ZrXXXbZRets9uzZwqDG9wMGDNDJFvnjOzAH2x9//FHrhXRIe9ttt9V6Jw+8/7333pNnn31W16qxRvE9dU75c3NzNe9M3GknXJSd5ygf/Zx6oEw8R13wbkiX+qC/8xllo+1RN1i7SI/8NnZNve1SU9sumTpXLVggKcmcxxsnPmI10yjoUI0xM7UGmGjcn3zyic5WacCsUWEO8jZmOg2dh86NqmdQgHgxSdIJGSTpcJikeQ5T2d///nfZaquttPNApHTKzz//XDsPnZeBGdM8M3w6MM/x3fTp0+X555/XDsYAxoWSYEDiXgZBOqwzNT/66KPa+Vkfe/nll3Xw4D46Pc95r+KykDz7SUAemVEkYwclysX7dpCenWLXcV5Cyb73famUVoZkZP9E2apzbJ3ES9oz55XJFa+tkS1SYuS+E7fQ9FCsn/xSJg9N90tirE9OGZsmb39dLF/8Vi5XHeRVvCKrioK6xtspNUZ/glUiReThh1K5Pzcg23SNk9uPCSve5YVByVtaKenJPhnUnbVfn97//e/lctEra6Rjgk+um9RR+neJVfM4ZN17i1h56+sSefPrkg0SL4TJ8gHYU8/gCEnssccecvrpp+sk5sUXX1RSpp4Y8CESBkTW/w888EAdrBn0MSkyYENcEAYONWeddZZO0twky9ULabEGCCHSHiAABmKeZ7LFwMrATzq0Ly4I6h//+Ie+G2LBsYllEt7t8kV+aQMnnHCCbL311trmPvjgA7nxxhs13/RTyJ62x/vJI22UtHgPbZ40aOtYdOjbdTnxQZqXX3653kM/4vl77rlH+xXETx4pE4RHm6Tt0kZ5PxPezz77TMkZvJkssHyz1157KeHQviFeykUZaOvbb7+9HH300bLTTjvp5y+99JKqTPqi89WAvJks0/fuvfdeJU3ICvVJX4XYmHBAjOST+i8uLtY6PPHEE+XQQw/VyQak/MQTTyjxOosCfZV80i4gb8YGJuFYS6g3yJNJ07nnnqtlOuecczSfV155pZrjKTd+JFjZmLS4OgMbyn3ssccqbvR/2iMY8DdlY4IPaTOu7LnnnnLBBRfomGDm69bAJs2bB6+puSZWsx6SMGpU1J1ORGdijemmm27SDs1AQGeJvOgcdAQKzDOYmq+//nqdwbIOyLN0bgiZwfP//u//dABhsLnvvvv0HQwGdBY6Caroiy++0HsciTLgM1gAMIM5EwA6GZ0UFYISZxDke57h3ShwlDgdlHSPOeYYJf7avHBxdLp9aqG892OpHL1Lipyxe3qNadiVV02lQZxFfBIfK2rKrUvxlpaH5NUvi+WWaYUypl+iXD8pQzqnxcrCFZXy+IyAzF5YLseMSpUJ2yXJXdP88ml+qfzLQ7xr3ylSUFIlcxZVyKJVlfLH6qDMzCtTb+gzx6fLXsOS1KEr8sLZark/KC98XiSPfVokBw9Nlgv2TZdOqbFSUh6SpHjWhavkxc+L6yVe6hcz4YcffqgExCDN4M4AysBG/f3nP//Rz6kzBkLUCgqZQZBBdu+999a6YeDmN3XNZzyPSoMoI822EC8mVtrDuHHj1KmIAR8FBVFSxwzGkCgDNmZZ2hfOXyhf2gyTRUjXKXTnIMZ3LIVA0rRb8gpBUlbImzRRWT169NDvIBhIY//991eFD5GQD5TVhRdeqPfWNsAzWYQAsrKyNC+Q2K233ipvvPGGPkt6EBrtFGyZkIAlmEBsTHh4D2RMGeh/9LHbbrtNMaAvMPGkbfIuiBLSZILDsg9pkh5YTZo0SfsNZWJSQfr0ber24IMPlrFjxyqO4McElskNJIsX9ddff615gdAvvvhiTYMyvPbaa5omEwuwI0+0E6xjZ5xxhn7G5IN+zhgAxkxYKB95pq8ydjDp4XMsa0wG+Ix6AHOeo43Rz5kI0Q4g+CeffFLuuOMObXfkk/xCvvR3N85A1PUtBzQvJVjqLYGAdzvRugE0ovBYQDdjRr0ywNHh6nNWwtRDB2VwoSPTUehkzPRRRawRMohAonSks88+WzvgpZdeqp2a2Tbql4GFQRbHElQJM+CLLrpI15hRzAxQvAs1RGel0x5yyCE1xMvsHyKGmLkYCPCarGvLAg5HN7xVIJ//Wi6njU2VozNTlZw2dGEOhnhveLdAenWKk5NHpegaL05Xv6+slNe+LpYfllTKJXt3kCNGJatj1JTvSuSZT4tkaM94OW3XNOnRMU6uf7OgTuJly8+C5ZXqOT1rQbksL6oSf3mV7D0oUc7cI1226xWva83ey3k4T/uhRB6fGZDkeJ+cPyFDxm2TsM52pcLiKnmhAcRL2hAo6ot6gVipCxQndUAdYxbFD4CJFuqESRH1jUcudfa3v/1NB3WIF+JgEsckCOUIYdVGWo54IbnLLrtMn6V9vP/++6oeITvWmiFZ8sEgjLqCJCH2adOm6SSPtovXLKRFm4aceD/WGAZvCApyRXVhibn22mtVtdGBUZQQJlYW2j9tms+ZWDCx4/c111yjRF2bw1NdxMvnkCPkT5uE/HgPZmn6G4RKnwE/iJDyM6kBJ8pF/4H8IE76ByocszF5AmfIHlxQ+6QHsZIGZYWIqAMIkXeSb75DoTIZBkdwOeKII3QCDU6oWu5FtTpHSqwNqHEmT4wLYAvpch9psbuA7+jnV1xxhf7GQRMipxxMQrzES7vivUzQIVcmyih16pbJF3mhTKTF59wLoTPRYALFuyBsMONz8g9O0eKI1hIE1VbfoWu8+XlhU7MLGUkHYsZLA46mi44EiTJjpnHTOVn/2dDliJeGf9hhh8lpp52mnZ0OQaeENDE9QsCY7hgQGUyZ3bptR5i7MA+TFp2IQfDBBx/UHwZSBmBmvBA2np8M0PyNiZCB8pRTTtFZMh2ZgYT7yceG9ptCvP9+u0C3EJ2clSonjE3b4NYaMHDEe+2UAlldUiVDu8ZJcnyMlFdWycqiKimpENlzcKKcMi5Nzcw/Lq5Q561l/qCcOi5Ndts2SaGEeD/LL5MrDsyQCcOSdMvQWoeksMl59oJy+XVFUL2n5yypkOVrgrLb4EQ5e8906d5xrUmcNWT28H40N+y1HCgPyUmZqXLgjmvXiF39NQXxMphiLoSYXn/99ZpB1S1BQHCYECFq2tPJJ5+sgyaevhD3hi5HvAz6OOvRh7iYADD4o3CYsLGmS1tAKfE+2glm8KefflpNkeQP06drM7QNVCqkSTtlwgfxQri8A1J329BooxArZAaZo06pGwgIAkdhUTYUV+TyBXmti3hR3JSBySBmasy85AVHKogS4qmLeO+//34tK5NJ+pN7LySIWZlJEKROn2KJhckIEx8mua5d0R8hXkiWPg1JQuCYlMkD6fMMOHFRz0y6mCAwAWGiweSKcmCyJv/0Re6jzCw7OXXbUOKlf5If+jATB4cN7+cdEC6YMKlnog3xsnOBiTx93u2ewEJAnTDhIs9GvNHEOhuXV6d46QtqatbzeP0ByczKjDriZVaMYmSmyeDGTLa2NRMIkoEIlckAiKmZwQ9zpNtOxKDrZvmY15iZM9hB5nRYzJaug/BeBjQmKihe3s1gRLoMgqiEutZtWPuiE/Ib8xqDLRMABl8UT137Tdku9MCHAXnlqyI5eIcUOW9CumSkrLu1hrIRUAMTM2uobM1F8UK8FVUhGdMnQVITYyQmVqRjSoz06xwnI/omKOkGyqrkxVnF8tjMgAzpHi+H7JiijliQN05RP/xZISeOTpXdt02UrbvFSYfk8Hes0xIsg3dWBkXNw3nLKuW2qYWyqLBSbp7YSXYfklijZFmHxlnqqU+LZGWgSo4YkSKH7JQsndPY77uuMm4K4sVEitqAJJmkua0idB8GdsiMgR2SQWlBvNQDxIvVoiHEixMNqg/HHi4UMIM/f0O8vJOyQVy0D4iJiSJkzWQA8mDy5S5IlOcwnzKIo7xpizfccIM+B2Gwvsnl1DUzaiYQbnLIxIJ0uI+0MQM3hnghffLA2jXtHkKB8Fj/pa2j1uoiXvoEEwrIkv5Fv+OC/CAjdhpgoqfdUyfci7mfz9zliJd+CH4QFf0M4mWy+9///ldJnee4mFiRL0gU7Fk+guBRp0xkyAMWKvJMfTFJAUdM2g0lXibOKHgmEJQN8nZjAvgzIYKUaTtMuigrP0yqUcdO2LCujBUG4obIjXg3jsyi6an1AmiwjxfVRQeLNsXL4IIH5r/+9a+aPXcMUq6jUzEQKqav77//Xhs6HYLOGLmPFzLFQ5WZOMRL50G5oHgxmfGbtRout+GegZrBjo6D+ZDZK0SNeQpzAkTIQMHMm795nrUpiJcBgHVfTHc43/AMgxlkXBtpl1WE5J1vS+T2aYWydfd4uWhCugzrHV9DaM58++LnReogtc/2yUqQbjvRwO7xcs6uadK1Q4wSMtGiIGH22EJ3i9cE5aFcv7w0u1jSk2Kkcyr7g8OEmreyUlaVhWTrjrGS1TdBTt8tXQZ0i5NvF5bLnwVBGdo7Qd9FjAryQV4veXG1TPu5VK48IEOOGZ2i5mby9XlemTw5s0iWFFTKxJ0gXQiePNUSwKMJTM145KKMGGypdwZa8MU0jXkQBYqihPyYYEEUmHOpfywSDSFeBluIl8HeES9Ezt91ES9qBzOrU244cLkBGA9lJgt0VhQibdYRL20YwnDqCVXL5IG2SBqQE5dre84bGRVf21piXYqXdWfy7siF9gpBgkt9xMt9ECYTUEjQEb7bLwvu1Alr6Che7odE6Q+RxMv7IF7qpzHESz9iQo7SYILNejXLBni2gzntoDbihShRq7WZmkmT/DCWQJzUoZvM0wbo+4wjbvnJES/WDIjX4WDEG02U2TR5Xe+QBFW8gUBUEi+QoDzp5KzXMSjRoRmoXAANiBnHCArObB1HC5wu6iNeZtSYrUgPtUynwoEGAmVgxLmKwRuih1Ahd2bfmBAZJOi8KG1M0nyHcxadj3xAsigT3kEnZiAgXVQvnbk2ZQKh/fxnhVz7VoH8vKxCJu2YKkePTJGtuhAUQ2RlICTvzymVe7ILZVDXOLlhYifp0Slmg17NrkmRNqbs6XNL5auF5Uq2zl2arcsz8kplUWGVjOmXIGMHJsr+O6TIFqk+3Y70xlfFsseQJDlmdKoqZPYA/7I0KFe9tlp+WlYp9x7bScYPTlRl/M1v5fLI9IDMW1oph+6QLIeNSJEekC7CnT2pMeEwk+5qCsWLcsIsSJ1jCsTsB/aoINbzUF+steNoQ1tCHbYE8bJGykQP5cSkF0VHm4H8aS8M3qxLMnizxloX8WLiRIVhQSEtlC1tn/VJ2iiqF/KkTC1FvJA5WKMwUexYi+gr5AfSpk7cxITJR1MTL1hiSWLiwISDdVTGBPoj4wRLU2DuiBdy5v9gyFiCOZ/nI9d4sYTgIEebYTmKfszkjMm1CyRC/6ceGBMaSrxYuWh7TMBZQmCib9uMmobwWksq66/xZueE/IHoVLxO0WLaozMxm0W9MNDQ4WjMrNtibsSBhsEAc1FtkasiFS+kiHkSsxYdiFk3JMvzkCVra5j96OR8h0JwzicQNASPJYH3oxYgYxxIMGt5txPRwcgPa0E4daB0cNCozfxE9Kd3vi2WBz8KSGFplYzumyjDeiVIcqJP8pdWyAfzSqWiQuSs3dLklPGpG/RqjmyQkC8e0ZiLvRcexjdNXqNOXZft10EjV6GSuZ9Qkre9VygrAkEZPzBRBnWPk4pKkc/zy+XjX0tlfP9EufHwjro1CAeshz/yy0vflkjX1BjZa2CiEjU8C9USsWqvoUkyuMfauNlNQbyUxZljmUCx1okJGVMqyoM1UawZOCVhrmwp4sXRjokdRITVg8GetsskGM9b/AiY9KHAIcy6iJc2yhIHk0rMymx7grBpZ7Q92iZEgPpuKeIl7xAYHssoTbyasRKhzrE80BdRt/QliKypiReVjTrFrI8SxaEOyxQEC45g4zU1k1+sZqy90seZFNG3Wdv2Olfhy4GzJP4f1B3lQjkziWPJizEEssdixtVQ4qXOGQOoRybe1Dnjl20zai20uen5gHgZc9aGjMwlgIZfMkePjrp9vA4OZrKs12HuRUUwGDHrZ2ZNA8bU5AZUPnORq/DC5HPMdnQat8aL0wfEi7mOTsUMl2cYmDFdo0iZ2aKSGCxRqzwPwbMOhikN8zIX5jH2Y2J2Iy8MBG47EWTLwM+AwODDeh+KBeXLWnXkei9kt6qoSqZ9XyovfFEksxaVS2koJAhGTLUjusXJKWPSZZ/tkzQCFHGd2RN7w9RwAI3LJqwNoNHQpgTxXvv6Gvkkv0yuOiRD9h66NrAHTlIf/1wmL35RLDMXlkmAKB8hkW5JsbLfdkly4pg0GdIzToNyfDa/XG6cWijTF5Yp0UZaltPjRR48qrMcuvPa9NmmxHajyV+XyKQRKXLEBkJG1uXV7CZnDLjUDXVEe2FZhQkOa7pYSvibZQDaA8oGIkN5NIepGWciiJeBlUkckzvaDOqUCRd1j3WEdguB0A5Zr8R0GmlqJn/OQ5s9sag2LkgWz13WFyGT2qwo3IfHPRMPnJFQzm47EeTkXcdkEulMyJGmZiwHEI7zaiZdiIlyQmaY+5lgspbO5BOrA45rKEUczKgXTLf0i7pMzUxw8RL3rvHyDH3Fvc+7xsvEF8xYT2dCzniApYP+isUKC4BTvFgZaB/4fXz11VeqjlHqkKqXeFmzZ/LGOEG+WYpirKGf8ozbQ8x7uI/lB+8ar6sDxijyDrmzxsvEHAy5F3wokzcIUEP7qt3XehGo2U6UmioJOFe5Nd5oDRnp7aiYaiA2F8ACMxCDKN6QbpsOM29n1oH0UAfOmxTnD57HTIT65GJAp2MweJA+gzaDIYQKkXqDKkDKpO0CKTCI0oEYMFy8YAYOZv28k47tSNs9x4yI+yEC74wX0uXiF0Eq/lgVlAXLKmWZv0oSYkV6dIyVLTvFSt/OsZIUFz6YAJMxBxP8sbpSDyDAicqt6Ta0iRIacuHKoARKqqRP5zgNlOEu8sK67bKCoCxZE1RnKczeHLrQe4s4dZgijjT5KCwJyh+rqzTvtV1MHAZ0iZXO6WtDHLIXeHlhlawMBFU184MjV22bqNSxzO/XSYwLoOFd62dw5TsmUpALgyPKl/rhPrCmbvGCRemwxSwyYEZkvl10Ip5jP6cbWMkHW1n4mwHeBa9gwIfQSJs2xoDtQjbSZlBe3EubRKnSBtzki+9o10wSSTPSFEkbJX3WUSFw2ihtnzJ6cYgsA1hgrgYPyJAJJDhBHDzP525NnPZPPulP9B3u5X1gyr30B3fRz8gzeeJ7/mYiQ58kb27LEI5KpOvqoqZthUJaT/Q7MAEPygHmvJPP+cytw5Nf8ubyTX+HFJkAgLkLikJ9Uz+8Hxwxh7uoczxPXngP6hb86at8T3+nPl07Id+UjeAivIt0yYvzk6G8lJu88p13jZ1xBsypS7CkTC497gMnc7hq6AgVHffRXhkTaG81ATTotLVFS4qOIq2bSwYDFz/XxdhtKpMNHcTFit3QaTculquLb7upOEK6i1cHdR12LelxFB+mYfaYhpRQOeJvc11VHMtI9nxhs3Gz5MQn0jU9RrZIDRPwxlyubqi/1nRiEfmibdFmNiVfLj5yXbHENwazTXnGlcvFKG6qvtiYPHljZdfXb8knV117t73v5V7S9sZib0y+Iu8lvc2Bz6bk2Z5tGALrnccbzV7NDSty9N/FqUTPfVYkn80vi/7CbEIJcMLaf/sU3dKUmmTH/G0ClPaoIWAItCAC3jXedSNXReF2ohbEbbO+ClMtoRwJVNGeL1T0lhmx0q0DirdZNHV7htfKbggYAs2EQJ0hI6N9jbeZ8Go1ybo13laToc2VkWov6M31enuvIWAIGAKNRcDt401NSZX4hDbkXNVYIOx+Q8AQMAQMAUOgJRDwmpprnKvw8jPF2xLw2zsMAUPAEDAE2hsCf/xevY83JVkSEhLbznai9laRVl5DwBAwBAyB6EDA1nijo54sl4aAIWAIGAJtBIH1YjXbdqI2UrNWDEPAEDAEDIFWiUDt24kIGRmFxwK2SoQtU4aAIWAIGAKGgAcBTM0L8hdIckqyJCUmscabG/IXFsjozMyojdVsNWwIGAKGgCFgCLRWBNTUPH++pKSmaghUX25ubqiwoFBGZ0bvIQmtFWzLlyFgCBgChoAh8Lt6NYdjNSewj1eJt7DQthNZ2zAEDAFDwBAwBJoBAYh3wYLwsYA1ISMhXg6G5gQduwwBQ8AQMAQMAUOg6RCoM1azBdBoOpAtJUPAEDAEDAFDwCHg3U6UmJAQDqBRiFezrfFaKzEEDAFDwBAwBJocAS/xasjI7OycUCBgISObHGlL0BAwBAwBQ8AQEBFv5KqaWM2BQEBGjRpla7zWRAwBQ8AQMAQMgSZGwLuPd53zeG2Nt4mRtuQMAUPAEDAEDAERWSdkJKbmnOyckD/AGm+mpKWlGUiGgCFgCBgChoAh0EQIhEKhGuKFY8Om5uzskN8fsAAaTQSyJWMIGAKGgCFgCHgR0O1EeXmSxLGA8TXHAgbUq9kUrzUWQ8AQMAQMAUOgaRGo83QiW+NtWqAtNUPAEDAEDAFDAASUePPzwyEjw9uJskMBf0CyxmRJamqqoWQIGAKGgCFgCBgCTYjAOpGr9JAEDaDBIQkWMrIJcbakDAFDwBAwBAwBReD36jXe8CEJ1ZGr/MRq1vN4LVaztRNDwBAwBAwBQ6ApEQiv8YZNzfHxcS5kZKFkZWWZc1VTIm1pNRkCZWVlUlFRoedY4opvlyFgCBgC0YTAuock1Hg1czpR9BMv+6Wqqqp0kA4GgyrpY2Ji9Mfn80VTPTVLXh0+kYk7bPjd2nAqKCiQTz/9VH755RfZaaed9KcxvgilpaWSn58vpMPpW4MHD24wefPsvHnzhN9dunSR3r17a5uyyxAwBAyBxiBQ5+lE0RxAA0IpLi7WAfa7777TuJiopE6dOulguf3220vfvn3DG5fbEAFXVlZKeXm5TjYom64d1FE+JiKQyI8//qhYgZm7IKQtt9xSserevXurIRfKNWfOHLnjjjtk+vTpcsghh8h5552ndclkqr6L57/44gt58sknZcmSJbLPPvvIKaecouaehlyQ9cMPP6xpbLPNNnLsscfKdttt16baUENwsHsMAUNg0xBwsZoRDdWHJGSHiNUcrduJIBAGyJycHHn11Vfl+++/l5UrVyoZJSUlSefOnZV4GXB32WUXPYi4LZAvRIoKnDJliixatEj23HNP2X333etUg6i2l19+Wf73v//J0qVL1yFeiAictt12Wzn00EM1ihnYbe6LOpw7d67ceeedkpubK5MmTZKzzz5bttpqqwbV4Z9//in//e9/5ZlnntF6h8AnTJjQKMX7yiuvyL///W9936mnnionnXSSbLHFFpsbGnu/IWAIRBECTvGG13g9ISOjlXghFEj3rrvukq+++kqrAqWLiispKZEVK1Yoyey8887yr3/9SycYcXFxSsxcDKhOPTlTLL+deZrvuZcfd68zZ5NObGyspu/9nr8xd3O/V2W7z1GqrFdGmsBre79TtahZ3ucmDSj6jz76SG6++WZVheecc46cddZZ0rVrV70ncnIBFo8++qgSEYQERpAt+fb7/Tp5gWx32203VZUcmuFNg/t4J5+R98j0+d6paIcneWeCUNv9rs84TMCL8kWq9qKiIp1M/fbbb2omRnmSz7ow592kw/cffPCBXH311fLDDz/IgQceKLfffrv07NmzJu/cQx55N8+5pQmXN8qEheCKK65QczcTEv7P77YweYuiccuyaghENQJeU3PN6UQMvNFIvC4GJuTz4osv6mA4fvx4NQkOGzZMTc5PPPGEDsDci2Jh4ISEMLsy4Pbr108VFGCAw+zZs/X7Xr166UDPc9yLSnTKEDInbZT01ltvLb/++qssXLhQVVW3bt00HYiCNHbYYQd9DmLjM+5bvny59OnTR027/GaSwHtQrqhY8kWeIK28vDx9d48ePdTMyf3cixKcPHmyqjnSRKlOnDhRVSv3QT7eizI98sgjcs899wjbx44//ng57bTTlHgglaeeekoJCmK68MIL5cQTT9TyQLbki58FCxYoOfXv31/zB8nzHvLL95j6ISsw5bn58+crlvxNvjFju3xx3+rVqzVNcAHTjIwMvW/gwIG6pgoZghsTCzDAxAzxUlfUCXUAtmCzatUq3aROvsAcEzzlvfvuu/U99957rxx99NFaJvDDygNuvJ/64HPePWDAADW7u8kD+XrooYc0HfL0z3WJCl4AACAASURBVH/+U4466qgay4KbuIBBx44d18M9qkcLy7whYAhsMgKOpxhrGGfC24mI1RylpmaICRPkVVddJd9++60OuJdeeqmaEykgg+LHH38s1157rfz888/qmIPq4f833nijDuqQD4SMAvzpp5/kmGOO0fXAww8/XBUyoEHsb7/9tpoYGdgBkHsg8SOPPFLuu+8+XUeEOCC+xYsXKxEdccQRSmIAzcSAH0gaUiB/TA4gwMMOO0wJ5KWXXpJbb71VSQjluWzZMl2zZlDn+/3220/OP/98JXcUPuuPEJtb4+Ue8o1pNDL8p5d4IZ1zzz1XSYS8QVoPPPCAkgtq8i9/+YsqaMoLfo8//riSM3gxuYGY9t13X8UNIkSVPvfcc5oGpM7kBwwgTOoIgibvf/3rX2XIkCHakMEBPCgzWHEfaaPCITaWBiBs0rjuuutU3VO2iy++WHGm/ngnaZMmJE85mHRdcMEFSqw33HCDvPXWW4rFG2+8ofXPxX2Y6Kkz6pxJAkQLcZJPLAdDhw7Ve7GovPPOO4oV/z/hhBPUIsCkCdyZGGGOhtxZgx4zZkyD1p83uTdbAoaAIRA1CLhjAXUfb6LbxxulihdCYvC95pprdDCF6CBZlKYzBTIAf/bZZ2peRVlicp41a5Y+w2DJmuGZZ56pJMMgDwlCGgz+DNwMrgz8r732mqpDFBvgsUgOqR500EG6doi6gqRRY5hWIRDSOu6441Rx33///ZoHVDSKERMmlQFRX3TRRbL//vvrGvVNN92kn5NXfniPI2tIBuIlb6hdVCqEQxmdWsOBCOKA2OtSvJHEu2bNGlWEqGGeO+OMMxQT0mYiAPny+YgRI5Skvv76a8WXSQMk1KFDB3n66af1ecoIRtwPpihVnLlQi5ApeWOSA+lB9HyPyiT/TIhQrUwswBaiRtlfeeWVkp2drYr18ssvV4LEhMx6Ne/iB8xR1LSB008/XdMhDSwYbJVDtfIe6vDzzz/XOqVdMHHAckE+WKpgAkDZmXQxKeH+Tz75RCdZtA8mHEz0sCowgWLyQzthYoOVgHRtDThqxkPLqCHQIggwHjGewh269KYhI6NU8bqBj8EOxYICg8Q2NPChWlA7DNyNJV7egQMTBABR8APBoL4gXr7HgQsHHAgW8sXszECNMoe4IAMGewZ5SBZ1C5HyOZ67fIYCRHGh7lDYqEKICmJ3kwsmBO+9956SF2ZXSO3kk09WcywEzdpzXcQL0TIpoBwQCxOR119/XU3FqMzLLrtMJxSQFWoezP72t7+pKZv/o2zffPNNLQcTHSYzL7zwghIveR80aJASMor+yy+/VOcoiA0CvP7667Vs77//vhKfW1fGXPzhhx/qJAbVjCUBSwOTjg0RL+Q4duxYJT0mNJAvipz3/uMf/1BFiwqmjvic/KOCIVbaPRMjfiBcJhjUB6QKPkx6+ByrA22M/I0bN06JljIz8cNhje+YXIA/2DVmu1OL9Hp7iSFgCGxWBOo8JCEatxNBvA8++KAOfAzAKB0G20jidY5UIM8zG0u8DNwoH0yeTlFifuX9EC/KDzMnionBl4EZxy9IHgchSPnggw/WZzEjsz4L+e+xxx5qIkfdQbx8xyCOuoNE3333Xf2etdADDjhAzcyoRtKG1Ekb4qbs3F/b5TU1o0pRjeAE8ULEkBB/s1aMKsU8+5///EfNwVyO2CAiSJNJAnjwXkysmFshXqwFqHJwYOKBeof0UMQQGpaGvffeWyck3IulgrxhrkZJgwnEC04sC3DPhogXJQ2JYgKGxFHi4I6VAcyYZWLVAEvyQ/1DoNQZeEPWEPeOO+5Ys50Kiwn3MnlxntVMAjBXjxw5UonXOVjhQY8iJs+YmUnPHK826xhnLzcEWh0CamquXuNNTEwKR67yF/rDxwKmR1fISAZRzK2oLgZulA2DNITgBj8GYQZvvkfiQy6YLZ2pGSUH0fA5BMaWldpMzU7hMWCzdcel74gXj2FUG+miJPkeQsFEzZorahKyxIyKMiZfqCvMpBAypIm6g3ghIwiNvLGeiTJE/aK8MElDcJtCvBC727eLEmU2Rn5R85AYa+U4eZFv1jchZ9S98yamzOCJukTdU17KSb4oE0SLmZj7mVigkCErHNFQhJQB0oOsKRukDyakSd7IC4ob4mUtvS7ipe5R6LfddpuuzXo9vqdOnSr/93//p7gzEWCNFswgUpyqIHiUr9taxRIBkxGsErQjyJj2wv0OC/KL0qUN8L3znqYdMiGhvA3ZX9zqRgXLkCFgCDQrAl7Fq6bm3NzcUGEBhySM1jXFaLogBAZYyILBEaceBltUiRs0UTyoLUgNMywmWQgMgkT54VwF6aFwMLminPg8co0X4kWxQfIQlLu8xIvDDeliJuViPRR1jXmV/JEvHL/IG8SLWmLwZu1x1113VRJyxAtRoJxR0eQL4v3mm2/qJF7KgMqE2OtTvOSZCQZlxeTN+i6Eh2c7ChrlxuzslltuURM01gSczvB45uJ5TKtgxjOYlFHGEC9EBrninMWkASwxH/MOTNPUFfez5g1ZoyopO3XDhIf6hIAbSrx4QKPMWdt2F+0CVXvJJZco7uBIu0Adu2ArtAfWf5kAuPUX2gpEi1WByQOTDf7GXE29QNRss2ISQbkhWb7HfE26EG+kiT+a+pPl1RAwBJoHAS/xxiewjzcnN+QvLIjK04mcGRBiwxyLYmENlB9IAvMfhMmWIkiOwZwBlW0zECgOTqgvSAIFiOcyKgvTa13Ei9rB47ghxAsBQJaYp3HogRwgA9ZtyRsTABQhpk08bqdNm9Zg4kWhs24MkZEOZWZdlfVVyLq2fbxuOxEKkzJD7pSVdXHwgyjxaMY0C4GwfvzYY4/p/zGXM2ng/xAU68pMIMg32OHk5tZ4sQigMlG4YI2DFmZk1CSkxWSDesBEi0cydQEps2aNynZ11RDFWxvx0i6YxDAZwSEKbEiXNoE6Jf/UC/nASsHEgvyhzPFSxgJB2TE/o2S5lzyCN5MEyjB8+HAlXRT+zJkzdbIAKYO/mZqbZ/CyVA2BaEVA9/Hm5Uly5OlE0XosIASGgwtOQAyarHGiqFCfkBoDKvZ11t4gGhyEnIJhrZL7MR86r2YGatRoUxAvKggFyCAOMUFakBLKGXUHOTB4MyFgDZU124YqXtQbShgzLKQOqTAhwOuW9VFI0XvVtZ0IEysmVJQ6Zl1UOThhPYAIUatMUPD8ZS2a+3FcAmscyCBpyvP8888r8ZIGBA5pMaFAOaMsUYM4LEHyED/Ei8kf/FkjxtqCcxPhGcFtUxQv5WZ7GeVgGxQkyZYoSBF1ihomryh3HL3IK20FBzHqhWAbqH0UL5Mn1rNZI4awUcOoZ7zRaSeY4nEeox1Sh259P1oHCMu3IWAIND0C3gAaamrWNd4o3U4EPBAXxMpWHMyimA4x8aJiUCuQHaoKUynmVUyxBEyACFFzOCxxD+uVmHwZ+DGjsm6JkiZ9fuNYA8HUp3hRRigsd6GwUKRsfWHAZ4CGhCAASAyCY50Uj19MrxASa7woY7b11GVqphyUm+0slJuKxaGLcpLfSM9aF7mKSYB3OxGNAAx4BgwhQPLD+jL5o9wQEiZbd+AEaYEV5XTBJNx2IggMFYySxpxLXWCJwDTLui9metQhaeKpzRosLvZMfFCfKOSGmJqZKIBpbYoX7FnHReUyKaOM/MYhClJn4gURo/IhXxzJaCsQKYTK8gOTBNoQZQVfrBbcg0UAbMgr97NWjHmeNkP5sEBQZ3YZAoaAIeAQqInVnJIqCWFTc3QTLwVjQERZom5ROhAJxMZgjupCrTlV6xybuAc1xN5RyBHzLwqOgZ/BFpJF4TFQo8QgdNQZxMF6pLt4D9+zVsqAy/cuSIS7x0VxIm8oQMyTECPpQFIM9pAP754xY4a+n3VWvoOkUWGoc9ZLIRpULWRBuihPTKEuCAVlxSQceYoOJAE+qGTKi7LlHUw6SIf8Y/plooEyxHkIVc0khecgXsgdBQjpg48zM0PkODqhIvk/a804PYEt+KAcsUKQN9Qw9UV+UfyYrCEtiAwceA9pYHqmHEwKMfGCG+qUfIEJATWY0OAwxX1MBLwXabDEwPovExm8kiFGcHcnFlFmd3IRaWIyJ58oZNKl7ln7plxMcPie9Wu82rnfOV6x9ks+yQcTqMioYTb8GAKGQPtGwBurWUP/RvM+Xm9VMkhCIAy4qEqIhkEWgqoJ0+U5uYfBnwEYdcX/IT4GU0jJGwiDd7jzYCEp1JN3YHXv5TnW9kijtjNjeQfpQKoQDem4d7r0yLNz1OF7F7fY5ZXfLjiFW0d06UKIEAHP1HYQhIuJTB74P+k7c7T7jndzuYAULg41ZePHi5XDlIkMeKM+ISjuQbVjXXAq0m0a98atdk5JvJNyk57Dn+9cOd19pOWCk1B29xzv57lIsuM5JjEoY6wYrM2yL9kFV3G4URdg4t7n6s/F6GYyhIc5JM+kCuJlwuH1mod0XcjISBN/+x5urPSGgCHgQkYyyU9NdYckoHgDfhk9Kvq8mmurUgrpgvXXdlhA5DPee1uqiWyOdzZF2erKN8SL4uUABoiXdWpM3kwCeKY+Z6OG3LMx+cfczT5vPKi5MD2jVr3k6MrE95H5hJTZJoZ5HhP83//+dy1XpBk/WutzYzC1ZwwBQ6DxCIT38eZLcjKRqzRkZHYo4C+SUaNHRd12osYX355oDgQgWzyycdJCibI2jRNZbcq/Od5fV5rugAuIF7M368w4XEXGsa7reZYEcLLiWUzzrH039EjCliynvcsQMARaNwK6nSg/T1KSUzxrvIX+qNzH27qhbl+5w3TrrA2YqFtLIAny5PKGoiVv9SlwV3PeZ51jWUOfbV+1b6U1BAyBDSGgzlV5+ZKalho+KjY7OycUCBC5KrPBSsAgNgQMAUPAEDAEDIH6EfCu8eLvEvXn8dZfZLvDEDAEDAFDwBDYvAiEI1exdTLZKd7w6UTRrHi9DjKR8LYm0yDOOmxtYUsN64wbk7fanIE2VH7w2Jj3eHHcFHx5Fg9jfmOu3ZDDm3tPpLNSQ/K/IScpytKYtBtb3o1Ju6GY1FUPdWHidS50dV/bvc3dZjbvMGdvNwRaFwLrnU7kthNFK/FCZuxlJcygu9y2HvbxsucUj9TNvebIOiMRpghIwf5Z9nw29vg4Bmv2lRIcgn2vROdiAGVPMvti2VLkLrbHQO6UHxw0WopnO1VDmyXOUjgX4SHsJUTSYwJB4BH2L0eunZJXgmngQs8ea7ZRsTeWCGJs6YnMD9txaJyUg6AW5J98sweY/cR17Y0lT2zncecSs9ea/dGYdNwF9uxHBjcmPuSNtMEPfNy2Le7n3RyW4cXSpUOa7BcmP+5imxX7q1nD4VkwJoa1y7fXwYz3ggWBRcgPz3Ive57BxLvdKrJ+aOfsJXenSIGjt/2AAxiz35l34PDGFi32HuMQRltwfYA6BQvyHUnA4Mwz5N+2RjW0l9h9hsCGEVgbuSpJEhKqTycqrD6dKNoOSWDQYKAmAL8729WpKgYNBmEmFJxc4z2xaHM0EgZyDhIgvCAhEs8999xGH5jOflOiXz377LMaUpHIUaTL33gUu/2vlA8ipD4ZoCF6vHLdUXeNKT+DM7GWCdLhJUvIivQIpEH0LYJbOCKgXggdyTnChFvEO5i8M/hz8hFHD5IfiMztySWsJJGzCKDhiBeC4z5COBLUozYvaUiEdxAsAzIjbCZHKkIcbi8uQTqIXEUZIF6IGOIlVCThNQnsQdnIN8FCCAkJrt73kRZETRAOvKO5mCyQbyKOQYrkm/YHLgRsoY4ICuKiqEGKYEJbZaJIfVFH3EukLPLjjpv01hH5JbgJsaQhVd7PEZjUrbuYGNE2CGFJwBUImrTAgRjheJmDJ/mjTonaRhCSyAkTdbTXXnvpPuy6jphsTPuxew0BQ0BUVGBqTsXUnKDbiXJC7MOEoKKReFG7DJSoFAiWwYVBHgVCjGEGUwYpQkDWVr7m2ENaW5p8xuDMAApJER2JYA2R14b2hKJoICfiJ0MuhC5k8IfMCQ7B4EpkKwZqlDEDPQSIqmP/KSQDPo1RvigjDl8AS8JDMpijvpjwoNwgG8pCKEXaEATG90R6ggxRxOQL7AnVCFFBdOSdKFEoLNQqQTf4jkAXkBWEyt+oeUiJrTxMnryXixxF+YnsRb0TS5ktQ+BAOSFa8MLSwCENLvgFJExwDA7JYPsTitOdNcwxkUTIop68VhQIlbIwCeAib+SbQxKY3ECc5MHFsgZvcCGONoQJ2UG8HB5BhCuwpN0SnAMyJc4z0dO81hnnmMG2JkJckj4YEaObSQ8X9/AdAUzAjTxCmhAwQUSYEHEoBpHYaHP0GQ69IP/jxo1bRznzPZMj8mOhL40yDIGmQcAbuSo+rjpkJMTLQNDQ/Y1Nk5VNT4UBh0GEAPaoHQIkOOJBAaCEICSUCofHY9LjGcgKwuAelA0DEwoIBeYGPQZsvsc8ikkQsykDPYMRnzm15gY+BkTygNmTdzCoMlB7zdykRwVAhHzHQE+6PMuAh3kQ0oJgeEekeRziRdly/izHG3JAAWWBWCgn4RE5ZJ4LxcPAy/5aTmgiTQ4oQBE6dUfZeceGjrKDeBm0IXDiK5Mv3klZUKcoSQiSwZ7TgMAf0zRhIykrJ/mgiHknRE2MZEJsMnE47rjjFE9Ik7KQN44/pJ7AhJCeWDNol+44QS8mYE3gDuIlQ/BMtiBXL/GSN+JnozovvfRSJXUuyBG8yBef8xz1gXolHjdtCsXqvcCJenfhOCE74jRj9ict2hmYsqRAe+Ne8kLaRM8iTVQ0v/mM9FDjYAL5EiMapenth9Q5Fg32IkPYYAjxe4kXrHg/ahfyZvJBu4PsiaHNpIOJJ9+xPMAkiljgqGHaBHXqnWCACe13cy/PbPoIYSkYAq0DAe/pRIlO8TKAReMar5d4IQIiJ6EYnKKDABgYUTcQBDN5BjLMiQxSnETE36yBQQ7EQIYUeR5lQgxelAygkQaDKmt8kBvhAyFPLgiTc2Q5zYeBkfsYjFEmKCoGOAYxYg4TCYnBlXdB/uSLgRBiZD0UpQrR8X1tJwxtiHhRmbzPDZgQCWqS6E3k7/jjj1d1h+qlTBAEZUep1aa+KZsjXvJFGkxQ3AV2KCpIhu+xPPB+yB7cqQtUmDsjmAkMBw4QN5mJHiTL+yEwygwZ8xmHKpB3cOFe8CU91Kq3bOQfUoVMwIs6g7RJwyleiI0JGJ+j7ign7Qb1zcEQtH2IF4UHgXFwAz+8lz7BRIiJGT+RRAShuSMCmSB400YJk2/ywjGDHDlJuEkmG5Cxs74w6WUJgjqiXTFhccoeDJg4QLJYBlD9TDQgSrB2ipc8crIVJmRUNmqXNkzZOAyE4yAx7xN5C2xp/0ySaMMQLxMpMAHHDa0zt44hzHJhCEQfAmHizZfklOSwT4k7JKEtEi+mRJQSAziDMgMVgw5kgFrjMAMUFwTNIMnABjkxyKIgIBRUDETFwA1xkBZqAIXG2hnkCPkwqDIws17Hb+cIA9ERppD3MMAyYGK6RbGikHkPgzKmTsiC3xAziihyTbM+xRtJvDRPBlUmEBAJ5SefTB4wWUMO7mB3ylnbtSHiZbBm/RY8SY8yodqYYECImKDB0CkqiIS8YOZ0qo3JEJhCftQBuGKKhkw4NnDy5MlKgJAGJO0u1Jw705ezf1nvJFQl5fj/9u4Eus6rOhv/vrZkWZJDBpIQAgECpSQMSRniASilUMYWkkCZWijtRxuGr5R/odBFKXMXlI9S5jEtFGiBklKGppS2YMuZE0jCEKYklpPYgUBGS3bixMP9r9+5Ova1osGOJd8rab9racmW3nvec5736Dzn2XufvduJ1/hrLmbvxTv0WZskCh7O/O0+b/OGQL/+9a8X/zm8jc/7hx1ybsfJHKIcWRb0wXg9CwnaUMHWz23CkDTsuT2QXvWHV3JUe9jGwHw11xCnfpof+oOsEbj5g7TbiZclxnN9r/mu4UdFM/f7o7exoYTNXRsWOHuecRmHy7zwDO9kso3Y3FvysseJQOcRqNWJqsVsThdJaFe8FkimZgu6RchigtAQggXQAmYxYZKlGi2sL3jBC8oixgyIICzMAlgsfAKKmHRVybHoWfxr/VW+OgsUtWAh5uNDNhSZxcyiScVRMe6TZF+kLeK1+FqMBelQifrM1EoJIX3Ea1GeSHncFeI15fiVawF6CzuFq79yEMPGIjxZIM1UxFvVPlNo9TEbK+WFXCh6dZJZDWDi5zBBBsymTLqULzKEoXcEE4oP1sz9NjI2L0itWgBqqT4EzhyM/LRNGY4n3vonx/epkIPqTAKbbHrgQGXXtj0beTM3M/eaG+aMtv3B2EDVwC3t6jc1jazNNxsD1g5zEXnZhAgO02+BTOYREkey1eTNz8pSQ2VToN6PjYe2WWX8n2/W2IzB3BlPvHWMiNcmBuaw12/P1u+qhN2rL3zs/n6Mi9K1AaglHfm4WWsyqrnzC3b2YH4g0E68LVPz6rEiCSvmXpGEduKt5kQ7eoufhccCi/BUqOGDNHh1VSkbi3WNTmXus+DyKQpisdAhAQvqC1/4wkKc9QgJJesei7TF0MKK6Gt9XYTp+cgOmfscnx5lMRHxIviqzJlLp/Kr3VXiVf4OwfP7MtkiW21ZmC3iU0U7T0e8lBXzMay0C1fmTETPLMrcLDiK6uVX/eY3v1n8xciFqRfxWvT5IvkxvTNEgES0jcBsDBy/QoZ+zkKBOODsPXmPSi5ORbzaopCZy5Gud4Z4kYy24UC5Ijp9FEj2nOc8p2yCkJnNAgXKWoHI9AWeCNNmApY1GMnPESslTWW6l+rUVxtBKruWdjTnqpnYHPV8QV3cDpQ7PHzO5oUbo514WWzaA+XgYRPpHZifNi7e7amnnlo2ehQt/GBgE2CTwpJgc+nvhbJmGeJ28WzvLq9EIBHYfwQ2brw2hofXFYvTnM9c1U68zL0WCgOzkAu6olwRrQXNzt4CKsqUyhBpWv1sFqOqDixIyJbapeJ8XkRwDXixOFMoFkuKy9ELC5zF2s8ssBZ1ZG7xs2AiO4vpRMTrORZZC64Fb6rrrhAvjCgcJIfQkBOFt7eBM9MRL6yRkgAhJEPp8umKeqbsbIj0wfO8G4oeLoKhYG3RZ07WP0SAZJGWsfosIqCA+T4RO3O0KGa+yxpgRpkhXgrae9WHeoyn4lnN4vqLeAV4ea5NAjITxUxl+7l7bAhqCUHvkgpm6fCOEKrn6IPNFXL2M5sEGzBzkRnb/GIVoR4RpE0bszxTr//z2/qscYtAh4X3Y5Ni7gkaY5kxHmN0D5O8uQg7mxd/xLCtiTPMPRsEGw1+bGNkcua+YOZGxNpxpMnzWGn4nJA2f7h35m/HnBXsNlXg3f4vR9lCIjD/EagnE/zdtVJGzvF6vOOjmvkx7eopWwuIhceiKqKTyRDx2vkjSguroCcX4qUsmFsdSbIIUxkWPwsdE3AlXoRi8UQKFift8K1SPtQtE6p2mBupGYtxVTETEa9+eiHu8dyZJl4LMH+jyGfmckpGH2eCeOEGD0TIZ0o9vuhFLyrKDwHUBBoUqv9zAyA1BOY9IRRkzNogIIsipY6RiXdbTdNM8d4bFSpYjOpELjZIyNHlnYveRqTO/SINxIQIqTmbgRqJztdMddssUOvaRuIIyHiQDWKtPnZmX4QMQ/5acwJZIlV9Y1Gp5QYrwWv785//fDE32+wZp76Ye8YAE+8ADvrnfgrWBsPGgEvChozqtoF0+Tk3iX46C26MVLv+wtp3c7DWUa6R4TYkxq/fjnDZSLD6uBde9fI3UH3ciJ0ZP329858YcoSzj8CGjRti/XCLePcIrmKum6vneJly26OaqSKLMDVpMbMwWvSpN0EpFjAEhOioDkrHQm6hspBThszJlK2FzwJrIbaoUg9IGYFoC3nzFXs+dYy4AWuhRqoWNz+fTPHOBvFSUxQM1eicqA2EoDK+UmRlsfV7pIxckMJkZ3snUrwIF2YWe0pfpLbP2zxQd7DgS3UPjOHpsuAjDvfzOSJqmNvAMJEyh8PPO4G194SQvMvqA7eZ8m5YFtqDz4wVmcLexsJmyxczOxMqEmF9MPErOdosUa38ti95yUsKMfqZ3/tsjUavUev8/8gcORqT79StjQdzda0/jEiZzo0T3pSm/sHE3xiVWYOrYEgdM0GLPBbgh3C1iaBrQhj42QDYGPiZMVKxNoUwpMi9UziZq96HDQZcWWZshhCvvwf9kGzDu+JWgaN3yhLE788lYM6Ksu50acfZXxLzCYnA7CNgvbpy3ZUxODA4Rrx8vI4TrZp71YkmO04ERirSQk6ZUr2UmIWV2qIAa3Yex2MoK2ZiC5eFjwppD65CWPxyiATRIA+LOOVlsbVI8+tZ2JhDEQ+ycJ+F+kAoXn5GGwymULhQLxZw42La1H8Ksx7JYfY0FtG8Ft/JznBX4jVxKHuEA0eYsSAIIrNpsUFBXhShey32SJ8JFlZUmONbiJSpGXbIEKZ+ZpPjKJL3RJ35ufuZW81P93tnSM0mAt7tV80KVX2aCN9mixKn+ESMU58Iy2X82kbu+ojwtU11w4wK9jNETU0jR881P6rrwaZJwBarR02UYQ7ZHAg4Q5Iwp04FX1H2iBYRU6ouGJmTyBORC7CyQWE6N4/aLzjzm9sowVsgH/eKfhujuAJtw8k9fs6fy1zP3QJD1hjR4t6Pz4p2RtQ2Biw0MPH/qo5nf0nKJyQC8x+BPXM199XMVXxa84d4axpCSsdCajGmUi00Apmca7SoIwlKAEkxAVqsBZv4OeKlOvjBKET3IQOLKWJAMhZJSoGfD5lXU3PN3wtsxMtvVxUvdW4xtrBb9Knyu2pqtmh6FhMoNaavfKc1MMkC7t9Ujs0BAqS0jINCcuTHz/hXLbYTXZV4KUebChsNn0d8vhATsmcGhi+CRT7MwMXufQAAIABJREFUrAjFvcZeE2jAWWARgq3Hg1gRKC0kRGVW4oU1QqImKTuBcpOZyGuqR59vP06kDcrTBsH78W614ecUP0KiErWtr1XBmhNwo1Ddi/REqCNY46HKYWIuUZA17zOVKQ5A2+YHxYv063ldRM18WzNUefdwpHZZTvRvMuuDjZS5Yy62HyfyTHPdBsacsplyT03Yok0bhpq5yry0UWMm9zumbKpe+/qmz/z17Wbo+b805ggTgdlDYFeu5oH+6FvSF42hNWuam+Zw5irqCelZ6Czm7TmZDRbBCBaxmAgqQgoWeEpYlKjPUQeiji1MyMuiypxpcUKQyMYCaWFGUBQOf6kgGMRmwRLEQulYBBGHxczCZ/FiVvU5CzT14fwvMx8lhxAsllSRZ091IVmmQ59BdpSN51E1TIdUS730mZqn8Khci3+7j1M7+oJcBPC0Zy9q7wMCQhZ8ksbqqoFSSB4JUW/tPlH38HEL6vLl3/pZzaxMmKwK1YxJQdsIude7QkQIXP/5JG2IEGPNGDXZBoGFwWcoZ32r5lbzAMl4BhXo8l60DcfaNkuBZ1OO8KTqzRfWAERpftRNhDb0W0CSe2u/PROW7qNIzYOaKYwpXD8ENpkb8NQPhG4DoB+TFYPwPHOdkjZfzanq3/Y747IRgKHn2LB4rs2NzZU5wFqhf+ax/vKr+1tAurU4ApeTubmvqUVnb8nKlhOBuY9Au+ItOe+Hhoaa/mjnYq5mr8PCWBcxC167T8rvKA3kaoGrfrWq2BCfxdMuv5bqqwsf4qVmHIuxELmvkgc10e4X9XMY+qrFACzWnm+hc79+6Ye+IiB9sfDqn8+7Z7pzk4hBG/rt89U8rA2EUYmxlt6r/luEOz46FUkzexo7bCZTksZQ01q256DWHiLUtn5P9Hl9Rbq1SILn1GpG4wmmvivjMD7tw8QYjXW66FqbEvjXz7W3r9/arF/w9r61P1Hb3rUx63etqoTQ63tsXwbqu0de2q/vu77j9n5XYreZ0bZ5yBpTK2hNN8b6LmA9UV/MPRjoS7VGuM9XewUm/ddv84YFQn+8wxps1Z4Ode4veTmCRKDzCFTiHRTV7Bwv4h3ZNBIrVs694Kr9hbMewahE1d4e0zQTJb+cKNmqWqaKBp6qvf3t61z9PEws8vVIUXuw0ERjcp8NhHeyt5HX+4LN+Dq4U312fL+nure++2oRmO7e2jaynelx7guG9f1UvPelgMa+4J73JgILGYHdZQHbqhONjowuSOKdaiIw6TEfSyzP1DmVmXMhT6gceyKQCCQCicDUCAjQ5K5kKZ3zx4lm82UzwzHZMUlOddxmNvuQbScCiUAikAjMfQTmnY937r+SHEEikAgkAonAfEagKl7xEz29vVGKJGzZvDmWz8EEGvP5ReXYEoFEIBFIBOYHAoV4xzJX9UgZqSygCEhnNOda5qr58UqmHkU3BWzV8nMCgrJu60KYfTnGRCAR2F8Eaq5mx07LKZD2erxzMWUkInAcop7NnAog50z5aufCVY/WOHrkiIpjJ46E8DfXI1OdiD6VRMIZ4lq31SSa7nLMx9EZ/XUkZ7ojU9O1l79PBBKBRGCuIbBn5qreVlnAkdGRkhRisrSB3TpIwU9y3Io+rhfSQsjOcbYf06gVgmb66MZMY4Nk5ehVi1WSC1mQjMkZS1mwHG2SsML50wNNvt/97ndLOT4JQKQfdAZ1uouJxXloKlkSk5qycbrP5e8TgUQgEZgvCOw6xzuoOpF6vGvGcjWvnHspIyVokCpPzmFyXgIB2aNk7pGlqj39nnzNsg8daLLa14kjm5acyDIcUenUpU2EFyffr4xIyE+2o6myHO3rc/fmfsnzpW6UY1n1HHl/p7tkvHIv4q0lCaf7TP4+EUgEEoH5hAABUk3Ne9bjXbkyDlq2bE6NlbJljnX0B/HKNiTphcpAioHX5PwG5exUzfjTbiJlCmXO9XmmXN+Zr2V0ApC2qVCfZxFgrh6fjQjh85PbCPgdNeoLMVair0kN9GWqDEXUu/zNzLJyMUv1px0p/lTSkRZQ3mXpMes4JGPwbH0wHn2vfa0Kv/7e7+DmXkqa6Zf5uqQxazTK+9dX7bAo+HIZD+KX83dfiVfuZGNgdTCe2pealMQzYOz/slvpY7dvkObUH0p2NhFIBDqKwB4JNEQ1z2XF245krcijYICKNGrzymVcSU4eX3lp1TCVvL4SEjKR67jWOEWiyujVRPNUnpR6TL1UtGQaEvHXdhE/opek364GaSjC7j7f/V/f3KeajwA2ynsyX6eNg5qo8hnbPFCVtcyfz0viz1xrHNpGnkzTKssoAKGvlDJztD7I5+v5KhSpSiOZv82E6jy+a9+z5CyuwXVIWXUcOYvh4/P6DANFJ+SV3hfFO554mdDlCdZPJEwV2zRpXz5kY+PTTvLt6FqRD08EEoEZQqBFvOuiv3+sHu/q1aKaR0uu5rnm4x2PiSAexGtRl+qxnXiVdZMGEslQXhQc0vra175WStLxcSsPx0zNF0n9IoKqcLVNKUpOryycYgzy+Po8HyYil3MXcbv3hBNOKAUWJOJ3nXvuuaU+LyJUoahW5hk/Bj5r/aRCfV45PwSFqGuOaUq85p1mvvjUpz5VSJJa9A6RPPI89dRTS8Ub6lm1IFWU/L6Oi7KnpJmz1V8VYGeMiFFlIYTOj0tZG6sgNkUBKO79IV6bIGM0JsRvLIhXX4xV5Z3MFjZDf/HZTCKQCHQcgXbFuytz1Yh6vPPgHO9UxGtRV4+VqlOnVzUi96tAdOaZZ8YrXvGKUlicElTrFMkhYOqO+lK6Tq1SxPTqV7+6qDL3InFVY5RrozKRnopIqh8hPWXkEAtiVGoQ4SI5ynOiSz9rnxCpfiJGKlf7/l3VMhN5LSzPhKvf/NoUJDJGlPyqquQwU3s+olOz1f1+r/KQ+rOwgQHCpviZvG1cbDT0Q2Wfj3zkI0UJ2xDsD/H+67/+a1HOcFVe0VE25mZpOvnsmbNr+buO/8VkBxKBRCAR2E8EdkU1Dw7Ekvbgqrl4nGhfFK+FXaUhJdws6mqwMj0jYSTLHEpditxFYIjR75ACszJyRWaijX1WkFH1xyIohcMRCRXNHMzUTe1qV7k3JIeokbDyf8zEE101qplZGCEifCqaAka6atPaIFDX6sSqGczMLcqYmRYpI08Kl9maiqfQbQbUvGVmV3Cd8raJMAZ1eZGzurwUP2uBDQRyPemkk4qvW/8/+9nPFiJH3H5HPV9zzTXFvF0rIxkTvJjZ9dkmYLypGfHaBLCyVHx8nqWC2vUeYE+Z55UIJAKJwFxHoCpe1sNdwVV8fbVI+lwe4FSKVwCS6GeEgbz4T6v5FxlRe0rWXXzxxYV4KVpExJ/r4otEUtQgM+grX/nKogCRG0Wo7mr1GyMpCbFtZjyPb9jv9rbqjr4iT+dmHSdCXvqqjiviRnxUoZdJcfs5ctcPflHPsVGAB8Xtfn5v/a0qnCnd5bPGoo8Ilx9ZcBflbDOB7GubVDwSt+nwO+ZnJmkbDcFY9bKpgB3z/WTEa8NwyimnlL7VY0mwF1CmdrDf703U9Fyer9n3RCARWBgItEc19/Ut3R1cNd8Vr9fLH0qxIYyXvexlRSkqHM506nys3YhgKsTLF/y2t72tEJDLZySPEPgEK8eTkANTLR8q4qoBV9Q1okY8z33uc+OBD3zgtPVkPQNhIjDf+QFEAtdjUlQlczGip07f+MY3FnI2HoFTjhnxOyN4n7GZ8nnq+ClPeUpR6h/96EcLYYuIroFU/LlUMZ808y8rAD85Ikeuvru0KYDLePh4/c6F0JmhKf166btnHH/88ZMSL38znG0MKGNXPSfMrJ7EuzAWpBxlIrAQENi48dqx4Ko9qhNtjpUrV8zr4CovlxL9zGc+U0ymiNUuhOzns0USiLMSryhe5lDmYoqP6ZWP94tf/GIhsz/8wz8MAVtUJAKhGuvxmHoUBwFRob7vTd1ThM0XbINAcSMg/XNRwQiWmZwiRLwCv971rncVdf2a17ymmG4rWdsoIH/mbxsKpufpiFdbTMfM5J6H1CXtgIv2mKtZBviDKXmmYKbxdjNzO/naBEymeJN4F8Jyk2NMBBIBCLQr3nlXFnAqU7PBU2VMtlX1MokKnkIkVKurEq9/84WefPLJheAQiKAn5l3k97SnPS0uuuiiYur1+ze/+c3lyA3C4stFksy0zNjI9/rrry9mbET4iEc8YtcZ3PZpiXiRo82BoCYmXVG+lfhFUFO8TOUUJ2L7p3/6p7IZcD8lyjxLCeubqGQETs26ZzriFWnss9Qm87HgMmd2qWNt+T1zfSXevTEFJ/HmwpMIJAILHQHEu254OAYHdh0nmj/ViaYjXsrs6quvLsd6kBvzsKM9T3jCE3ZFClfiRWoUp0AoQUSIhxpEpPySfkcFyzJFTTr3KwKZsuUndTxGEBYy9HmBUm95y1uK6Zai5BOe6GLO/fCHP1zIW3vUrR2SZyNuZtnTTjutmMb1UUIN94uGZm4WNOWYkOhjmwkmcaZx6nwi4jVeflXkzLdLYcuaZVxImOJHvHzNzNCCr2wI7kpUs80JzAVXTaR49ZkLIE3NC32ZyvEnAvMLgQmPEzmWMh98vEzJCIbas4CLjh2fm5nvE+kiX+bm1772tcUHW5M1VOIVzYv4RBUjIOTpCA4FiIwQVK064UgPAqRqXYKFKE2+1XpsiC+VWZqCFYHs+0QX1YtgqVu+UxHN+mYcjiJ5vmQXnuHnTMDGy9eK8P2faZjapoJr0Jzff+UrX4mnPvWppV816xWC59NFdghY8BZ/8tDQUCFghG+cNhbI2c89nxqm5Ke7fN7GQJ/4c2EtspwCt+F5+tOfvsvfbHOD/CtGe9P+dM/P3ycCiUAi0GkE9jA1z7fjREzJVC+iFGjUnhCk+lhF+4rE/epXv1qCqqjS9gW+Ei8TtKCjmlJSW0yrFCcFWi8qGuEjKyrX/93juA+zciV+hEo18gML2Kq+24kmhGcicV8im/lRtcenalxM2+1ZnbZu3Vqe7YvaRZ7u1d/2zFl+Z6z6V/uFqB1L0qa2EaQx8A/D0pdLez6nPxSwtvcmV7SNA5Wsv8bgOfDSbq22VIPS9AVG8IXR3rTf6T+ofH4ikAgkAtMhUInX2jzvzvFONXjkxb/LlMvsywwrqIoqbs+dTG2K3EW8ApiQzd4cA6p1c31HapOlO/T7vU2F6Lm12hKinirHs7HXzYXnz1QVJj5r/a1f002w/H0ikAgkAonAngjsWRawrTrRijlYJGFfXi4Fx4wprzK1Jp2i8nb1PGtti7kWIUtGwVw9/vf78sy8NxFIBBKBRCARKMQ7vC4Gaq7m+VIkYbpXSzkKDhIQxT/KX4pUx6tP/m7k6x6BUFOZhKd7Zv4+EUgEEoFEIBFoEe9wDPT3tyrBrRla0xzZNBqrVs39IgnTvV6m2+lMwdqopuW9NQlP99z8fSKQCCQCicDCRaDd1FyId2hoqDmyaSRWrFyxK7p04cKTI08EEoFEIBFIBGYWgTsl0Fi7dm1TlOl8OE40s1Bla4lAIpAIJAKJwP4jsHHDxhheP1xOdbQyV61e0yxlAee44q0RwI7iiMTlm/XlSMpsmIz3JTp5/1/b9C3U6Ofxd9YI55mKcp6+J1Pf4TiXM8/869JRCq/f1/dT37UxzdSRI3NG5LurHat6hnq6iPL9xSU/nwgkAvMXAYpXat/dxLtmTXMuJ9BAgAKmJKiQJEJCCOMRHOWokAQNEmHU86zOlTrPasF2VGhfg6dqAQLP9HlnWveVOGZ6eonYlhREIo26IdAnpCYxBhxktUJ2nSRgmwPJM2StEtwmkYjygftCakhXog1teK8vf/nL9+nzE2Fvs6Yk4Sc/+clyxlhFKjjZmcJPti1f5lQn8ZvpeZPtJQKJwIFBYGIf7whT88o56eOVmEK5vtNPP71U5HFUyILp59SVlI/yGsuPXNM5ynfsPpV6EMC+XIhbpR9F2yXgkDe5PaHGvrQ1U/faBMjApV+ITFaqmgRDUg2JK1QLsgmpGa9m6tn70g78VYRSZUl2KsUlpLjcFzKrxSKkrZQdzHvf183T+D5L3IF0P/jBD5Y5gmz1iQI2p7Tv+JmSipKM5JUIJAKJwL4g0O7j7WVqXr16TXPz5rmZMtIiSb7LgSy1o4pBUiJSogYqh/LXv/71eOlLX1oS+1OBqv+owlPTElY1XOvlygKFXBEXJYZUqeX6e2pZdSPlAVUEevazn12UpEg1ysln3V/JWB8t4H7uZ+5z+bn7PY8S1L7P+X07EdXKP1ORE3JV0EEBA2kp5XfWpoxUkoawBFBxis4vX768qP1aglC/3ItcPLv4HxqN0kckp3/66ufu1efJ+to+JmOuqpF5pT07laxV2pPExHM9n2qvaThrbV+KfTyp6lMtT+istSIRxuMzvtpLKdbyijYiU6lqxGszhnyRudSWnot0bRS+/OUvFxyc75ZYpeLS/ix4yW7mc54LK1/V7TEe2/pHO/5ebZoH2ml/59qpbfpsnUvjTe11wwUL70M7tb36XmupyTr3YKN/dZ7vy4KS9yYCicD0CLQfJ+rp7UW8q5vUoQW51midvpnuuMNixMSsQpCFCKFSfLUm7WWXXRbyKDuPq8rQj3/847KIqquLLC2yj3vc40p9W4s8cKSMVHAAJlI+Uj/yNkthyIQtf7Ek/xJxWPj9TmAa/JC/zFfarTV4LYDM3/yacjzL96x/Ukz6mTPDFniLHsJkFqYCLagI4aqrriqLJ+KspD0e/Uq88iifeeaZxQRrkbXAKgohF7NxKZgAB1ixBqh/e/nll5dUk1Sx6kr8rtJD+jyCNE4LNMuA3NFSOiIy4zMWuagrkdfiDO7zWf3V70c96lF7FHtQ+YjFAXbegz7aIHlPnmUzZS5KcKKYRLspfyLiRTaw91x99+60gahssB7zmMcUy8dk/uBKvMo+Pv/5zy85q+smwLux0aKsqWxlEaXAhMs97nGP8o6UcTTWU045peBh06fggz7oiw0GvE488cTSv0qoNifwdK85Z37BQ4lKebFhhBTdd8UVV5Qxyn1tvHA1n7Rb8267z3y54IILyqbL3GPh8E591WQwUpGae+Yla4m5L7e3OWzu7YvpvztWguxFItDdCNypOlFNoDEXo5otQMhD1RtEJreyogA1J7CFx88t3BYdhQf4Qi10VBiiU+VHikiqi3pCrDUgqyooZkYLcr3nS1/6UvEzWswRMxXky8JtgVZ2kFnX4m3hVZyAmmJaZZ628CJvhQIoPQunBdzlc+6zqCupV9V5rYg00fQaT7z8uZWskIQiBTYbagYbqz6dccYZhaSNqZK0jYZxKMSALGxUPB8pWJB9rqpeGD3xiU8s5lekLD82U7eNDgI2dkQAw1WrVhWLg00RBa7OMXLhn0UgSEzfmHERmM/B9iUveUkhoOmIF3ZM/whSLmrKU38QjPHZCDHF1xKLE5maKd524q0WC/03rre97W3l3SgJabP3t3/7t7sCJWACA2Pw7Loxq+fBffeObXqQM2xtIJCoe1evXr3r7LjnmavegXdlA4Ig9c9GspK2TRU84c+NUitYedeIt5Ksd2Yu2TQoSgFbdZV9eVade3BS6tJ9aU7v7kU8ezf3ENizOlFvNHYRr6jmZQfNqRFZfCyuyE5VImrCImTRpp6QIgWCZC1+VIDgno9//OOFnPl4qTYLDSJFjhSXBdbiSGVo271veMMbSoASFWOB9oVELVbIg7KwOFr43v72t5dFthIvgvVMBRmkofQMn7XwMoMjFzsiitWCaTG1KWDmFIBkLPJGUy1TEa8c1DYFFK/xImRK14aCsmFqpvApTrV1jdHijpAoXxsECzuTqvuocWZ8tYUFF+mXseo34qZq9Z+5nVpDfEhi5cqVhRRserwX7TDL8zMjWSQGSwrc2IwbMcPLpsPnPYfaHZ+ycyLFa/PyqU99qpjZfU4b5oDJzt1gA+PdGNNEqncixYvIzC+bCG3bsOm/zQKT/lvf+tZCXIjUxsLGxDyymXG/uYc8qVYbF+8FubHOqO6EEP1MjWd9trkzz8w5pAgL8wg+yjm6VzUtZSm9IzieddZZhUzNKeRqY6l9mxqbUGO1MTUHqH7P8E7EPNR3516bMxYHJO9vwvzJKxFIBGYOgfYiCT29PdFYvWZ1c/PIaKxctWqPaj4z98jZbcliZrGy4PH9MbVZEJGKxc8iR9Va1JAREkEmFjsLkAXazy1ETJ5MvkrgWfgs3O5FNIgDIVMMiEzeZ8oWGfmMZ6phuzfEiygoS4svkmNStdDbGFT1xE9dy/NZEJHRZGXyquKlan/3d3+3LPbG5POI0ObEBoFqpmoFEbmXSfVZz3pW6b/xU40UGBJ88YtfXEyoxl+tCkiGWRLJqu4kspi5XW1eysnmBTFSf55DdWqParbRUPvYO5qMeG2CPM87gf9EhRmmIl5Vp7xryhMRwfkDH/hAeSfveMc7itXCJmwyxWuTZYMhVgBp6T+VCSvmV3NASUUEh3iZ5o0deenvddddF3/zN39TNkx+jhQ9z6YHtuICvG9KHqHDAbbeg42a9+BeGyMmaBYF89uGCRYsO8zLLv0yB20O/uqv/qr83DM8n7vCRs08Nsf80ZtD3ot3ylxuHhsPMjc2c7/OPRvYvBKBRGDmENgjuMraNh9yNVucLGTUKHVhcaGy5Ga2gCIc9WORxkTEa/GiQn3WkRyLkAULwVALFiaLH8VQzc37Q7yeZ4GkbKgkCzhfnUXfIk491yAd/aJwSpqxsaCnyXy8CIFCsthbWJGpdpAr0tE2366xwIGP1QbEZVzGbxNDmVN2CBvB2BBQZhR3NUsz1zO7+jyVZZFHFnzcFKbNgIXcRgimiBcZ+PdkxEt9v+51ryubpsmuqYgXyVNsNg3V74lMkS7C0wdzYDLiRdJwo/hgDntEaMPzvOc9r5CjDRzLAFxsxFgkkLx3igxtHLTBnO69wssmiEpm7rbJsgHRLqWqPz7D/+vSDgXufSBiG5XTTjutbMxsvmochrkJaxsc7TGnez7LjD9yRMxv651r27+Zwb1/GyYbVXEL5l2de8Zt7s3U2eiZW7aypURgbiPQfpyoiIq5TrwWKF81IMS/KRULDKVi4UUKVA/T5UTE6zP8du4VoAOYGnGLvC1uCGFviJeqqaZmi2VVfdQw/5nF1sJmc8C3R90gPIs8s6rF3CK/L8ds2qOa3/nOd5ZxWtj5W42LwkJGFlVESGHZUFCWnuNCDgKJEIVx+oIhkqScmTst0JX8kStlSZlb7BHCpz/96VJykfqvZ5z1DYYihRH0VMTLlEuFwXtfiZcVgjmWWrVxQFouZl+bHARJyU9FvCwBCJuq9Y68PyqR2dzYzQmEXInXhsYGhUKEn4AlhKwNPmDzrl5Mw8Ym0IxyhTVM4G++eBcTXSLS3ac/Nj61xjSMYYtQbSgERpnHyFicgvfr/emv+QAT6tYGrn3usVL4nPdFYZsnXA95JQKJwMwh0PLxritrQ29vOU60ujm6eXM8etWqCRelmXv0zLdkseObRJbMynb3Fhaqwe+Y/KgspmK+Rjv6SrwWPOZAqoTCeM973lPMonxoFh8qhqp473vfW9QzdTeeeJn4kGk1NfMjvv/97y8mbORpkZeQweLP/6ldxGsxrEdDEC4TJX8d4qCWmLCdD54sinkyxYv0nGk2Tu3aeBgXVaqvFm6F7LXPBE0FCkarSqseybEIIxnkSo3ZGNg4MGHqe40md4QJ5nD0HpiUkRCFBlebIT51RINUpyNealWf7irxsiDAuJ14ETJis0lg+ZiKeG0cnvGMZxS/dT3OU48BGUvddLQTL7OtDY05h8SM0UYF7vzYFS8+VIpX34yRhcZ3lhUbFz7Yqo79zs+9ByrWM+CMuKlUV/uRJq4F46rH1nw3d/XHfJAcRPssHYi6Br2Z9/pqAygOwd+MPvGR55UIJAIzh0B7cFVfX6nHO9QcHR2Zk7ma7dQtLMx6FjlEYMGnDhCbRZ+ZkamQGZEZth4/otCY6JCJRQpZUiUIisnTgkmpWSwpC98RrwVPoA2SoaAQqQXSYiaQh9IRVGOhpxyYv92LWClN9zPh+r9+IT5E48VQ5RZofRGwZCFEftXvXFXcZMRbjxPBwsXkKIgKIVOClJNxIVEbAT9DklSURdhxFYTs88yTzM6Il0rVbwSgz0zY/KkCzJhfqb5vfOMbRRXbMHgPCJji8m5sejyr24l3oqjmif70JiJe9yFM841ZGVb87awYNbIcuVHENmsIz6aOrxw2rBLutQmDrc2e+cK0bWOjDcodgdoUwFb0svkouMtGkfWEm4TLQsCe+WO+23xqG/HaUFHFyLqeZNBvGwWuCv32PvNKBBKBmUNgg1zNY4q3b4mygFJGjozOyepEVWUgF4sOnyWTGyKj7BCvXb8FjDkOwVDHFjA+Sv42xIFkEJEFj3kQcVIfCItCtlhVUzPioqy0UY/fCKKx0EnOYWGlchEQMyUlqB9MzggJgSFEhGfxFbDEzMiPirxsCJC8DYE+InCKVbs1sGYq4nX0pZ7jpXqZKhG/zYEFXLsIlgr0TEFXrAU2A5SPDYtoY0FKiNdz+RlhQA0ak8WdmrZ4W8wt/BZ4bVLN7vM7JO4+bSOWA0G8SKwGvMGpKt69MTXvL/HCjrrkQ4W9eYEQ4WgusTjY2NnYwMlGz0aNW4CZ13t2hMtcpnC5DRCvDZ02WWkEsyFR89h84/et0eEi520wvU+kb6PG/O3ZEssgVH54Fg9z1Ny3UUXqNhPut+njL84rEUgEZg6BXQk0mJrVD0C8/E2U10RmuJl79Oy0ZLGraQgtRBY8ZsHqt+IzpTAsasiUehVYQrVacEQXW5AQo0WaWqFeBSjV6FqLFLWIpKhpZOrzfGkUh98xY1pAkTJlQ7nUBBJMkchWPwR56QelQwky41Iw+ozULJgWbARs0bSwIcqmAAAgAElEQVSo8tExR05GvPqHII1fv9p9sZ5L4To/S8kzgRsbxS0KlimzZs7yHH5L46RY/Y6PF058k/yGNc+1BVt7/KHmDRXMVF6PGRkPzJEMnJgvjUUULxKBLYsBMkHsNhvGDsepErnA2/tmDjZnqUZqHeZI3nNsZqqZ3s+Z/228EHINumqfjeYMcvPukBFz9VRpKG1mPBdOzOM2NfXyLpCvtmz6zE/4UKHeP5VZ22ZpsdkxD9xrHPzKjsS514YGGdqg6Z+Nmc0SJesd2mQak2hw4+VSsXmw+dJWzVjl3Qmu04ea8pRbpUbx14Qc3qfN6PgjXLPzl5utJgILB4E9Tc27FO/InD1O5NUhDkQncMiO3jESi6FFHZnUoBj3WmQsjhYpJIxgKAQLXm3DQmexZJp28bcxG9eMTp7H1IfULHAIk1KuBRv0g+Kmjvnkqq+X+qlJHCz2Fj6kpn2EoL++KjkYB5NjzWo10VGYOn4EbjxUlc9Xf6RNhGcYmw2Ac80Wac+vP0eaPqOvyLISH+KlYo2RyRnpGZd+aMdXfRZcbTyMXbuI1+9h5mfGDk9kY9x1vPUIjc2Mezx/qsxJMNYGxcfsLfCp9ouyFiVOJdZEE8btefridxO1re/67J1S6t7BVIUv6tEzY/M+20la/7zPiq13qJ+wNb52v717/d69vmz+YO/52m2/17s1t/Wxzu86pvb0pDZGgqd8N0/1UXueXbNx+bz575k23f5W/N489m47XfRj4SzHOdKFgsCeCTSKj7dVnYjJqkZMzlUwLKCIxkJMmdazoBONx6LXXsmn3uNnVQFavKdahKZqQx9c7UE5E/VDn2uGo4lIwTNcs7UYTjVe5IZ4qSRpJxGnccFlMnKs7envdGOfq/Nsb/vtvcJjunlUN4Tud+9Uebnhr82psK3Bhdqbqiym32uvtjVbc2xv8cr7EoH5ikApCzi8PgYGRTW3Z65asWLO5Wqery+pW8ZFhfIZ8kcK0KGwcnHulreT/UgEEoG5gkA9x1sLv+xOGZnEO1fe4QHrJ9MxfyplNBeLaBwwoPJBiUAikAhMgcCkpua5WCQh3/TsIlBNlp6yN+bS2e1Ntp4IJAKJwNxEoKSMXD8cA/3V1DyWQCOJd26+0Ox1IpAIJAKJQHcjsHHDhliHeAcGok/mqrlcFrC7oc7eJQKJQCKQCCQCURIkOXmCeJ1CmNMJNPKFJgKJQCKQCCQC3Y5Ai3gp3v424p0nx4m6HfzsXyKQCCQCicDCQ6AcJ1q/vpyTL5XmWpmrnOPN40QLbzrkiBOBRCARSARmGwGK98p1V8bgwGAsXdoXjaE1Q81NI5v2qPU5253I9hOBRCARSAQSgYWCQIlqLkUSBlum5qGhoZKrOaOaF8oUyHEmAolAIpAIHEgEyjnedeuiv9TjrZmrEO/KlZm56kC+iXxWIpAIJAKJwIJA4M5FElavaY5uVhZwZRy0bNmCACEHmQgkAolAIpAIHCgEdpUF7B+Ivr48x3ugcM/nJAKJQCKQCCxQBFo+XseJ+HizSMICnQY57EQgEUgEEoEDhcAu4lWdqKcS7+bNsWL58vTxHqi3kM9JBBKBRCARWDAI7Fa8Y5mrVq9e3dyyZXMsX57neBfMLMiBJgKJQCKQCBwwBDJl5AGDOh+UCCQCiUAikAhEbNiwsZzj3V2Pd6w60cqVK2NZRjXnHEkEEoFEIBFIBGYMAeVVEe/69cOFeHt6erI60Yyhmw0lAolAIpAIJAITINA6TrSu1ONdsiuBxuhoZq7K6ZIIJAKJQCKQCMwCAjVzlbKAvVJGCq7aPLo5Vj16VZHBeSUCiUAikAgkAonAzCHQnrlqyZKsTjRzyGZLiUAikAgkAonAZKbmdeticGDsOFGrLOBIVifK6ZIIJAKJQCKQCMwCAvU4UYlqrsFViHfVqlUZ1TwLgGeTiUAikAgkAgsbgT1MzX1tpuZVq/I40cKeGjn6RCARSAQSgdlAYE8fb1uRhDzHOxtwZ5uJQCKQCCQCCx2BCVNGbt68ufh4M4HGQp8eOf5EIBFIBBKBmUagEu+uzFWrV69pblaPd0VnczU3m62h+r6zGbF1eyOuG2nET65fFFff3IjRrY3YPnbPTIOS7SUCiUAikAjMUQQaEX2LIw4baMaxh+6MXz18Zxw+2IzenohGRDQara9OXu2m5t5uSqBRCXfHzojrRhtx9vqeGBpeFOtuacSNWxtx6/aIHUm8nZw7+exEIBFIBLoOAZy6ZFHEYG/E4f3NOP7wZvzWA3bEo47ZEYf1N2PRoihfneJeKSMR7/rh9dE/0B+96vGWBBrKAnZY8VK523dGbLx5Ufzr93riP65YHBu3RGzbGYFvk3O7br5nhxKBRCAR6BoEqrrtXxxx3MHN+N2H7IinPmhHHLFsZ/Qs7qzq3bBxQyFemav6ZK5yjhfxLu9wPV5K94bNjfjUt3viCz9aHD/f2qn9SdfMo+xIIpAIJAKJwF1AYFFEHHe3Zpx20o54yoO2xyEDzVjUQUrZuGFDXCmBxuBgLKnEOzoyGitWdtbHe/v2iK/9qCfee25PrNvcQYTuwkvOjyQCiUAikAh0HwKPvWczXvvYbfHIY3ZE7+LO9W/Cerwjo6OxqsNRzRtvacQ71/TGV9YtziCqzs2PfHIikAgkAvMGAWbnP1++Pf7wkdvj4P7OOSxFNa9fv75UJyo+XqZmirccJzpoWccAP3f94njTt3rjsptT7XbsJeSDE4FEIBGYZwg8+T4742+evC3ue+jOjo2sXfH2yVw1NDTUHNm0KVasXBkHHXRQxzr25ct64vXf6omb70ji7dhLyAcnAolAIjDPEHjAsmb847PviOOP7ALiHVSPd8kY8Y5sihUrOku8n7+0N179rZ5yhjevRCARSAQSgURgJhA4fEnEF553ezzsqC4gXtWJEG/L1DzSccX7uUt648+/1TMTOGcbiUAikAgkAolAQeDQnogzXtBZ4t2wYWOsXz8c/f39rajmIWUBRzufuSqJN/9KEoFEIBFIBGYagW4g3j2jmsd8vJs2bep4Pd4k3pmebtleIpAIJAKJQLcQ7/DwuhgYGIy2lJEjHffxJvHmH0gikAgkAonATCPQDcRbiiQ4TjQwEL09PTVz1WgsX97ZBBpJvDM93bK9RCARSAQSgU4Tb83VPLx+uJzj3ZW5qhtSRibx5h/IQkVgcSPi8KURDzks4v6HRRyxLEp6u5tujdhwc8Rl10dce1vEtkki/g9dEnFkX4R2rtsacdMdEyM5uDjiqP6IgbEMPtffFnHdJPcu1HeR455/CHSaeCFaqhOtWxf9opprysiRkZH08c6/+ZYj6nIEehoRRw9G/OZ9I377+IgH3SNi2ZJopbZrRGzfEXHH9oirb4n4n59EfP2nEcOjEbePOxXx4odFvPiREQO9EV+4JOIT3424dcfuwTsZf1hfxDN/NeK5J0YcdVDE6O0R/3BhxOd+GLG9y3HK7iUC+4NAtxDvunV8vG3EOypl5KpVJYFzp65UvJ1CPp/bCQSQ7gMPiXj+wyKedULEUXdrqdzbtjXj1jsapRrX0p5mLOtrJZQZ2RrxzZ9EfOaSiIt/EXFrG/n+2fKIVz22GYNLGvGJ8yL+33kRm8fY1KcP7Yt48v0j/nh5xAlHR2zdFvH1H0V86PyIy27uxOjzmYnAgUOgG4i3+HjXDcfAsl3neFc3R0ZaxLtsWedSRibxHriJmE/qPAL3Goh4ySMjXnxSxGH9EZu2Rlx+fcQProvYcEur9vQ9BiMedlTEg+/ZjMMHG3HrHc34xo8bLcK8cbfpeTLiRbp36434jftE/MmKiOX3ibh9RzO+dXkjPnZBxKW/jLgjE9Z0fjJkD2YVgW4g3nKcaHg4BpYujd5d1YlGx3I1J/HO6gTIxhMBCFC2p/5KxF89MeL+h0fcuCVi9RURZ3w/4ts/j9i0rVV/eumiiOMOi3juwyJOfmjE0QdH/GIk4h8vivj0dyN+ubWF50TEu2V7qzD4qqMj/vikiMc9QL3rZpw93IiPXxhx/s8i7uhcIp+cCInAAUOga4i3lAUciN6SuWr1miZT88pVK1PxHrCpkA9ayAgc0hvxnqdGPOOhyDBi9eURH7uwZUK+rc03WzE69qCIVyyPeO7DIwaWRJw7HPHOtREX/nxy4t3ejDjpqIj/86iI3/rV4jKO866K+OR3Is7aEHFrOnYX8hRcUGPvFuIdHm7LXFVSRmbmqgU1EXOwnUXgpMMjPvq7LbW77oaID58bccaPI6jUiS6kueqeEW9/SsSJR0dce0vE358T8fnLWqp1vOL9+/Mjjj0k4rSTIp56fMTS3ogL1kd8+uKINddEbMpI5s5OgHz6AUWgW4h3nQQa7ceJkngP6DzIhy1wBF7y0Ig3PDnioKUtE/NbvxXxo5umBkVU8ut/PeIFj4jYuTPikxdFfOjCiBtu35N4Tz8v4ks/jPiDh0ecfELEsr6ISzZE/NN3Ir65PuKm21tm7LwSgYWCQLcQL8W7O4HG6tUlV3MGVy2UaZjj7DQCb3psxGmPbpl/P3dpxFtWR2yZwMTc3s+liyOef1zEG54UMdgX8aXvRrznvIirRvck3q98L2J0W8SpD2vG3QcbceX1ER89P+I/roi48baIdOt2+u3n8w80At1CvLuPE/WNVSfK4KoDPRfyeQsYgfc9OeJ5j4i47Y5mfOLCRrzr3OlVqONHjz8m4gMnRxw2GPGfP4r4u3MifnzTbuI9bKARP98U0dfbioJWYpPafeeaiLM33vn87wJ+BTn0BYRAtxDvhD7elSszuGoBzcUcagcR+PjTI045sRmbbmvERy+IeO8F03dGJPSKe0ac/qyIIw5qJdT4f2dH/OCG3cR7+LJGNJstJV2vX26O+PwlEZ++JOLq0UyWMT3Secd8Q6AriHfDhtZxooGB6MuygPNtiuV45gIC731SxPMfEbF1ezNOv7AR7zhn+l5TvE+4T8T7ntlSvGf+MOLd50T89ObdxHvEspbKvWFzK9XksXePOHQg4sobIj5+XsSXf9LyCaePd3q88475g0A3EG9JoDFGvCVl5OrVq5tyNa9YkUUS5s9Uy5F0MwJvfEzLx9uzKOILl0a86VsRo3vh433RgyP+8rdaR4rOuDTi78+LuHrznsR7y60RHzw74pvrWud3ZcXq6424+JpmvO/sRqy+ZuIjS92MV/YtEdgfBLqBeEuu5hpc1dvLxzvUHB1VFjCJd39ebn42EdhbBF784Ig3PiXikIGItVdEvO1bEd+7cepPH7o04u2Pj3jWiRHbdkScfkHEhy+KuPmO3cR7aH8jzh6OeOVXW8USHnuviP/vsRGPPrYZ23Y04n9/GvG+8yO+/8sI53zzSgQWAgLdQLztirfU403FuxCmXo6xmxB48MERn3pexAOPjLjm5tY53n/5QUuJTsSHzMyPOzri7U+LOO4eEVfd2Iz3nNWIL/64RaDt53j/6aKId54VsWl7xMG9ESf/asT/fUzEA4+IuPm2llL+2MUR14xkhHM3zYnsy+wh0C3Eu36sHu+u6kR5jnf2Xnq2nAiMR+BuPRHvfFLEs09Es40468ooaRy/fV3Elm0R1eosSGrJoohjD4541aqIZz6sZZ4euiLi3WdFXPzLFlFPlqt5UUTce1nEi06M+P1HRNzjbhEbb4k4/fyIf/1RxA1b09+bs3P+I9ANxFtyNY+vTlTO8a5cEcuWHdSxt5BFEjoGfT74ACNAwT71fhGvf2JLwY5ubcbaKxvxtR9FfO8XrcxSgqQGeiJ+9e4Rzzwu4rcf0gqquuamsXJ+P9hdd3eq6kSe9ZDDI152UsTTjm8l1PjBzyM+dE7EN9ZPni3rAEOSj0sEZg2BLifePE40a28+G04ExiFw1NKWEn3RoyLudUirVJ/qRJdd14pKlsP5kKURD71nxEOOamW5umFLK5r59G9H/HSsgpFmpyJev5d843HHRLx8ZcSq+7U6QmW/79yWyt6W/t6cn/MYgW4hXmUB+wf7o68USRjL1ZzneOfxzMuhdR0ClOh9D4p4zkMinn586+iPjFTSQd6xI2LHzoi+nogli1uk/LORiG9eHnHGZRHfv37PZBiFeB/TjMG+Rnz83Ih3n7+7Hm8duJST/L1/sjLiuCMjNt8R8W+XRrzvvIhrbu06eLJDicCMIdAtxFtNzX19fdEYGhpqjoxkVPOMveVsKBHYSwQWNyKOHoxYda+IVfdpBUA5d4tsFy2K2LY9YvT2iPU3RVx0TcTZ10SsH7lzOb9THhhx8oMj+ntaGa3O+GnE1nG5ISXguM+yiFOPj1hxnxapb7gp4hMXRVx2y152OG9LBOYgAt1GvCW4au3aoeamTUm8c3A+ZZfnAQICoPhyjxyIOHpZxBEDEQO9EUj5tm0RN26N2DAa8cstLRW7YwKz8N2XRhzW36rzK3L5hklyMlPZd++POHhpq30R0deNRIxmicB5MJNyCJMh0A3Eu2HDxli/fl3071GdaGQ0VqzMc7w5dROBTiEgglnEMnJEoP4vwAo5btuZ0cedei/53LmPQHcQ74ZwnKi/v7+VMjLr8c79iZUjSAQSgUQgEZgYgW4g3vbjRLt9vEzNqXhz3iYCiUAikAjMMwS6gXgzV/M8m1Q5nEQgEUgEEoHJEegG4m3P1dyzuKeVMnLL5i2xfMXyOOigTKCREzgRSAQSgURg/iDQaeJtNptxJ1Nz+njnzwTLkSQCiUAikAjsiUCniVdvWop3fFTz6Gh0OoHGF7/bG6/5Vk/cMe78YU6iRCARSAQSgUTgriJweF/EF557ezzsqM6RS1W8g4OD0dPT04pqbuVq7mzKyDN/2BNv+FZPXHe7gxR5JQKJQCKQCCQC+4/AcQc34+On3BHHHdk54hVctW54OAYHBqKUBSzEOzIaq1Z1lngvumpxvGV1b1x8YxLv/k+1bCERSAQSgUQAm/zO/XbGW560Le59SOeItyje4eEY6O/fTbzKAnba1PyzTYvi78/qjX+7YlGpS5pXIpAIJAKJQCKwPwgcuiTiVcu3x+//2va4W3/nqoG0E29JGSmqeXTz5o6bmm/dFvG/P+mJD13UEz+6uVEy9uSVCCQCiUAikAjcFQRU5Xr8vXfGK1Zsj4ffa0cs6bkrrczMZ+pxoqXtmav4eFeu6GzKyG07In4xsij+/YeL44wfLo71I43YNjNjzlYSgUQgEUgEFhACSPfEw5vxByfuiMfdf0fcfXBnLJYYvUNX+3Gionhbx4kUSVjZ0XO8yqDdvq0R125qxDd+ujj+68rF8ZObI7bsSJ9vh+ZKPjYRSAQSgTmFALY4pDfi4UfujN950M749WN3xBHLdsbS3ohGB6mkKN51wzEwOBC9PbuCq0bi0Y9+dAh17tTVlBBeLdJtjbh+SyO+//NFccE1i+L7v1gUV49G3HRHmp879W7yuYlAIpAIdCsC+LRvUcThS5tx/4MjHn7PnbHymB1x3JHNOKR/ZzExU7sdJ97h4VaRBPV463GiTpuavVTVWCjfbTsapfj3Tbc24mcjjbhpy6JSIk2RcHFp6f7t1j+B7FcikAgkAgcOAaSLUFX2GlzSjCOWNeOed9tZSl8u7W1Gz+JWCcxOki40WsFV62Jgj7KAXRDVrHOFUJHvGAFv39mI7Tui9bWzUX5PGSfxHriJnU9KBBKBRKBbEajEu6jRbJXV9LXY92ZRuaXEZgdNzIXSxlJGKgs4MDAQS+o5XseJVnQ4uKr9xSJX6reQ8JgSbjZb6FVyTvLt1j+F7FcikAgkArOPQGGEsdrV4qYajWYh2da/d3/Nfk+mf0KtTlQSaNTjRJs3b+4q4t2DYJNhp3+reUcikAgkAolAi4jHFG6Hhe4eb2NXdSIJNHZHNXeX4s35kwgkAolAIpAIzBcEKvH2L0W8Y1HN3WZqni9g5zgSgUQgEUgEEoFial4vV/NgLOnddY43FW9OjUQgEUgEEoFEYDYQ2DOBRp+UkWuamzcn8c4G2NlmIpAIJAKJQCIwSeaqzhdJyFeTCCQCiUAikAjMRwR2+Xj7+2N3ysiR0VjZ4bKA8xHsHFMikAgkAolAItCueEvmqqGhoebIpk2xYmVnczVP9GocPG6/xv8/X2cikAgkAolAIgCBxtg5ovq9m1ARXKUer3O8RfGuXTvU3LRJkYTOVieqIFVybSdZ/x7//24CNfuSCCQCiUAicOARaCfZduLtNhJuKd7hGBjoj16Zq4aG1hTiXdkFireddHfu3Bm+duzYUb63k+94Ij7wrzufmAgkAolAItBJBJBrO8EuWrQofC1evLh8r7/vBgVM8UoZuatIwurVq5vdkLmqkm4l2+3btxeyrWBWIL3oNDl3crrnsxOBRCAR6DwC7YRaxRmhVnkDAbeTcCd7vCtz1YDgql0+3pGOB1cBC2i+kC7AOKHJ8kq+3bBz6eTLy2cnAolAIpAI3BkB/FFF27Zt2+L2228v/8cfnSbfWiRhmI9XPd5uSqABJID54nxWxaGnp2eXKSEnWyKQCCQCiUAiMB0ClUtuvfXWQr54xBcB16lrt+Id4zWm5i2bt8TyFcvjoIMO6lS/isrdunVrId3BwcECVF6JQCKQCCQCicC+IkBl3nHHHbFly5ZiemY9pXw7ddXqRKUsYDflamYaYGa+293uVswDeSUCiUAikAgkAncVAYRLzIlhWrp0aUfF3CQJNEY6fo4XQAiX2k1f7l2davm5RCARSAQSgYoA8r3lllt2mZs7hUxNoNGy5vbK1by6uXlU5qpVsWzZsk71q5iamQOYmvNKBBKBRCARSARmAgHmZldHfbw1gcbgYPSKXVqzZk1TWUDneDtJvIBBup20w8/ES842EoFEIBFIBLoHAQG7hF0nr6J4h9eVoOFeircSb6czVyHcktFjLO1XJ0HKZycCiUAikAjMDwSYm8UQdTL/w52qE7USaIzGqlWPLv7VTl2imDOoqlPo53MTgUQgEZifCHQL8TrHK8hrqSIJLcW7OVZ0+DhREu/8nPQ5qkQgEUgEOolAtxDvunUtU3OpToR4R0Y6n6s5ibeTUzOfnQgkAonA/ESgG4i3nuMdHBiM3l3neBFvh6Oak3jn56TPUSUCiUAi0EkEuoF4r7322qB4FUkouZqr4l2VxNvJuZHPniMI+CMWIVmrZjmiUFPSzZEhzHg3a6ICxzYERzodwZyWVyLQDQh0A/HW4Kp+pmb1eBGvc7wrOnycKBVvN0zR7MNkCCBax+5+8YtfxPXXX18O5UtJJ1jisMMOi3ve855xxBFHFB/OQrtEjH7/+9+Ps88+uwRIPuUpT4kHPOABeTRwoU2ELh1vtxCv4KqB/v7orcTbDed4k3i7dNZmt8pRBGai888/P7773e/Gz372s5CAnfI1bym8+9///vHrv/7rwXKEiBfSsThK98wzz4xPfvKTxZT26le/Oh796Ed3NEVfTttEoCLQDcS7y8crgYZjs91yjjeJN/9QuhEBqUypuS996UtxwQUXxKZNm0qil0MOOaQoOoGJcsEyOR977LHx27/92/HkJz85jj766AWj+Iz/a1/7WvzDP/xDId7Xvva18djHPjaJtxsn9ALsUzcQ78S5mpmaV6zoaHWiJN4F+BfR5UNWUuyKK66I008/vZhRKdzjjjsuli9fHve73/3KzpXJef369bF27dpihj7qqKPid37nd+I5z3lO3OMe91gQyjeJt8sn8gLvXrcQ77pqaqZ4Wwk0nONN4l3g8zOHPw4Bfxef+cxn4nOf+1zcdttthXAR6gknnFDMy8zJfL9U8HnnnRef//zn48c//nH8yq/8Srz0pS+N3/zN3ywKsP1C5nzD0thRydTzRIljLBY1gMtzaplM5O/zfu9zvqbLQVs/oz0q3TP3puym+2tf9cGzyhnEcdnlknjzT6ebEegG4t2wcUOsH14fA/0D0ds3FlzFx5vE281TJ/t2oBHwx0rt/vVf/3UhU0r3j//4j+Nxj3tcCahqJx/3+hv68pe/HB//+MdLKbJTTjklXv7yl5eAKxeiveGGG8KxAmYn/xaIde9737uYpSnl9spc/Mqez598+OGHFzP2zTffHNdcc03wFyFFAV18y/e6170KwY8nxPrMq6++unyOWdyGwf3tzxyPbd1M+NxVV11V+orcjzzyyLKpOOaYY/boaxLvgZ6d+bx9QaAbiPfOKSNLVPNIrFixMk3N+/I28955jQBl+m//9m/xgQ98oARXPfvZz44/+ZM/ibvf/e4Tjtsf95VXXllU7+WXXx6/9mu/Fi94wQsKOVKNgrK+8pWvxLe//e1SnBu5IUokzmz9zGc+syjkGph14403xoc//OH43//933j4wx9e1PaaNWsKGSN2z0O2xx9/fFHhgrraU76657LLLiu+14suuqiYxD0TgVKt97nPfYpJ/GlPe1qpgV1JmzpmOv+v//qvGBoaiuuuu65sGlwUr42Czz31qU8tmwqfS+Kd138Kc35w3UC8127cGFeOZa7adY43o5rn/NzKAcwwAkjqrW99ayEu5Em9Pv3pT5/SRIugECYiQoqUKtMuAvzgBz8Y3/nOd8r/q9pE6BTlTTfdFA984APjxS9+cQnMQqCOLL373e+O//zP/yxKk3lYu/zGiJIKtYtG6qxVr3rVq+JhD3tYaV/fPRNxI11kqi9I00XJeibifOELX1iI++CDDw6bDcqYaV2UMoVsI6C/xkatM6vrz+///u/H8573vPK5JN4ZnnzZ3Iwi0A3Eu3HDxhheP1zWhT6m5qE1Q82R0VbKyE6WBczgqhmda9nYfiKA0F75ylfGOeecU9SrSF2+3en8qeMfS2l+9rOfLUoYASK5Jz7xiYXQEO+ll14aX/ziF4tKZp5+xSteUYiunXgRqZ+96EUvikc+8pHl7/TnP/95IcdvfvObhXxf85rXxLOe9azyO5/9xCc+EV/4wheKuv2N3/iNomypXBdSRq4/+tiEr7EAAA9VSURBVNGPCiHbFCBtR6T+4z/+Iz72sY8VYhaZTN0yc+vDT37yk/j0pz9djlY5pwsTStvzM6p5PydcfnzWEOgK4lUWcEzxFlfVmqGhVq7mDK6atRefDc89BBAmFUmlIpc3vOENxSS8r+dzmZUvvPDC8kfHTO18a412tiAgSQFc//zP/xyPetSj4s/+7M/iIQ95SCG+qnhtShEy0/VBBx1U+kCBUrNM4Y47UaBM4VQss/Zf/MVflLY9j1p/6EMfukutI9ivfvWr8alPfaqo2j/90z+Nk08+uZiVke5///d/F/P2aaedVvpUfdrM14j5Qx/6UDGXP/e5zy3PZIJO4p17c3yh9LgbiLee4x0YlLmqLxpDY8SbwVULZRrmOPcGgV/+8pclEQRF+pjHPCbe+MY3FlPtvhJvTadYo5iRaHvaSQTP9/sv//IvJVAKCfpbZNKtxEvtMnvbALQ/H5kjXr7fJz3pSWWjgNSR6lve8paiqkVXU8Lt/l/PZ6oWNMbN5Ln3ve99yybDM6npZzzjGfH85z//TkeimMb/7u/+Li6++OJC6m9605vi0EMPLYSc53j3ZmblPQcagW4g3o0bN8S6dcMloJLbqJVAY0TKyDxOdKAnRD6vexFAfIhMMBQipHgR1L4SrxEyMSNYPlmELjqZ6nREyc8p1B/84AdFlSJeBNtOvEzdiF9kdftlF02hCoSyOWBupqr/8R//sfycQn/d614Xj3/84+9kIufPZT62KDGf+/f//M//xDve8Y4SvHXiiSeWr/EpMPV79erVJcir9kuUM7N3Em/3zueF3LNuIF5/q4IWWz7evrFzvOrxJvEu5LmZYx+HAL/ln//5n5fIXv5PpttHPOIR++zjpXQFMyErma8ELzHTIjskblFAwAjNcyYi3mrq5mttvxA5X64ALOoT8cqoxWfLh8tkjXhFRE938Tcjz7e97W3FZ2uBmOiIknaMSb9FVLMKIHh9SOKdDuX8fScQ6AbiLceJSgIN9XjzHG8n5kE+cw4gQAG+853vjH//938vAUhMto78TJTsog6HsuUzRaR2tfyxFC3/LfMvJYk8maxFJvOdugQtMd0+6EEP2m/iZfb96Ec/WoKgtId4x5uoJ4If8SLPt7/97WVDQH2LtJ6oyhC1bOPg7PETnvCEMpZUvHNgUi/QLnYN8ZbgqsEk3gU6D3PYe4EAcuG3fM973lPUKJ+nYCNHiya6/HE7buPcLbMS0mLipXa1IWpZ8g3ngREvNYnEtY3cRT5LTrG/itdRH9HM73rXu0okNNUuonn8hoGqtSlAuDYINgHUvc0GRcsvLOCKgh5/GWvNZMV3rI0MrtqLSZW3dASBbiDeVnDV+jEfbxZJ6MhEyId2PwL+WPlk3vzmN8f3vve9olTrOduJjt0h0K9//evFv0r1Irs/+IM/iEsuuSQ+8pGPlLOuiFskcPWbInd/kMzFAqwe/OAH7zfxInV5o//yL/+ygOyI0h/90R8VEq7+6XrOl0+XL9nxJuZox4ve+973lqAr54lf8pKX3Km8H9X+05/+tARnCd5ibqb0k3i7f04v1B52D/G2gquKj7fU4928ufzh2fl26spzvJ1CPp87GQLIVPYqRRJE//LBUqwCmSjB6qNFtM7TqmD0wx/+sKRUfNnLXlbOzwrOev/731+O6ogSRt4Iy2Ig2QbzLoXK9+uc8P4qXtHJ6n5SrvJH+79jSGrkMkN7Ln+TI0zUuTEwLxsTMmWidq5YH505do6XipaYA+lqk0IXIKYMogQc/naTePPvqFsR6Abi3bM6EeIdGotqznO83Tpvsl8dQqBmcnLe9Rvf+EYxqVKU1f/JPIs8KWOEi1yRWz2KwwcqjaQjOs7yOuojUriqRL/zOVWNtC0YaiaIl49ZfyltUdTM49S0BBqe47nUrc2EJBmvf/3ry7iYnwWAUeCirBEuP7Fobptyx4woeCqdgnY+mFqmoJN4OzRJ87HTItAtxLtueF0MDqjHK3PV0FA5TiRz1eCywWkHMVs3pOKdLWSz3f1BgL8TUVGzVK3EFgKL+Gh993tK0IXYTj311KIukS6VyJpEWQqwcu7WIlBNzdSmz0i7iOiQXzvxOi8raGmqqGZq3D01qpnCdVGvyJA65Xv2XOcHbSaYhpm7JMdg/kb4fMDu4fd1LviMM84ofmnjq9WMalUkRC5dpNrDji+J0k7i3Z9Zlp+dTQS6gXhrAg0xEUuUBSzneLM60Wy+92x7jiNA0VG21CDylUSCGRqJIVckzAcs6hlJth/D8UfvXskp+ICpY0TtHiqUL5XZlsmZeZcpGxEiM2kmzz333GKCli5yfGCXzFQCwKS1dA8yrPd4LtJn6kb8SJ/aRbCitGWm8mzEbwz1qv2liPmAKXJ9cVH4gsYoemb3Ok4KWz/1BaH/3u/93q680XP81Wf35wEC3UC8e5qaq+IdI97M1TwPZlkOYdYQqKTEpMyEi3CQDxMyApuuxm1VlDa6juD42tfcz3dlcPWYkw2A/vJPt5PtZG3aWCBvPmx9p27HJ9S4K/3JzyQCBxKBbiDeDRs3xvC64RgcHIglTM1V8WaRhAM5FfJZiUAikAgkAgcCgW4gXmUBBT0urZmrkngPxKvPZyQCiUAikAh0AoFuIN6NG6+N9YV4l7aOE2WRhE5MhXxmIpAIJAKJwIFAoDuIt6V4uWrEWewi3jQ1H4gpkM9IBBKBRCAROJAIdAvxtookLI0lygKmqflAToF8ViKQCCQCicCBRKCbiNfJgD0yVyl91smoZlGWRYI3GgfyneSzEoFEIBFIBOYxAt1CvEzN/VJGqsdbEmh0wXEixyoQ74E4XjGP51gOLRFIBBKBRKANAefwaynLTgFT6/EWHy/i7ZZczc4MIl5ZcvJKBBKBRCARSARmAgEJa/BLJ62pEmi0fLz9hePGUkaOxPIO52oGjg5JqZVXIpAIJAKJQCIwEwjIDCe5zXQJbmbiWZO1UTNX7Ypq7hbFK0MOM7Mk82luns0pkG0nAolAIrAwEJC1TZa5Wo6vU6OuindXWcC1Q2ubI6MjHS8LKJ0d8j3iiCP2yHXbKaDyuYlAIpAIJAJzFwHmZWpXrnFpUrkyO3W1K96uSqCh8omcsC45YYVdp/Lt1DTJ5yYCiUAiMHcRQLqChlXbQrjKWnbS1KxCmEIluxRvzVzV6QQaIs8knbc7cbRIqTSOaP/mFO+kY3zuTr/seSKQCCQCCwMBx4Z8iWBmQSXkiDdk12kh1x5cVRTv2rVrmyObRmLFys6e47VDQb5Kl9WSawKtkK+O2q0k+S6MP6AcZSKQCCQC+4JArTMtSBd/+I4zahRxp/mjnXhtAhrFxzuCeJfHsmUH7ctYZ/ReOxUX8q3nrnwX6ZzEO6NQZ2OJQCKQCMwrBPAHd6UvircmZEK4VG+nRVv18Q4ODMSSluI9qzkysqnjwVXzahbkYBKBRCARSAQSgTEEiuIdy1xVzvEWU/NI56Oa8w0lAolAIpAIJALzEYGJfbxJvPPxXeeYEoFEIBFIBLoAgfZzvEXxnnXWWc1NmzZFp4skdAE22YVEIBFIBBKBRGDGEbgT8Q6tHWqOjowm8c441NlgIpAIJAKJQCIQ4Rzv7lzNva1czTJGnXTSSeWQcV6JQCKQCCQCiUAiMDMIiLimeK+6an0MDAxGX18JrjqrOTo6ksQ7MxhnK4lAIpAIJAKJwB4ItIj3ql15KRpnrV3b3JTBVTlNEoFEIBFIBBKBWUGgmJqH18fA4EBJYdlYe9baXT7eLMk3K5hno4lAIpAIJAILFIHdpuarYtng4Bjxrl3blEx6+XKZq5YtUGhy2IlAIpAIJAKJwOwgUIOrBgb6o7d37DhRTaCRxDs7oGeriUAikAgkAgsXgd3EOxC99RzviONEy5fH4LLBhYtMjjwRSAQSgUQgEZgFBBCvqOb+/oFSf6Ak0HCOl6k5iXcWEM8mE4FEIBFIBBY0AruId2Ag+pb0RePss88umavSx7ug50UOPhFIBBKBRGCWECjEu15Us+CqJS3irT7ejGqeJdSz2UQgEUgEEoEFi0BL8V4VA8oCMjWfc845RfGecMIJceihh5bahXklAolAIpAIJAKJwP4jsHPnjtiwYUNce+3PWgk0EO+555zbHBkdifvf//5x9NFHlwLCeSUCiUAikAgkAonA/iNwxx13xPDwcNx4443lyG5JoHHe+ec1RzaNxFFHHVXIt6enZ/+flC0kAolAIpAIJAKJQNx6661x5ZVXhpoIiBfHNs477/zmli2bS4GE448/vrBxXolAIpAIJAKJQCKwfwjIWiVB1RVXXhnb79hWUkb2LF4cjQsvvLC5ZfOWWNyzuPh5i+O30di/p+WnE4FEIBFIBBKBRCBuueWWuPzyyyMajRhY2h+NRY1oXHTRRc3bbrsttm3bVhTvIYccksSbkyURSAQSgUQgEdhPBHbs2BHXXXddXH311dHX1xdLly6NRYsWR+Pb3/52k/OXHZqf99hjj83I5v0EOz+eCCQCiUAisLARYGbeunVrrF+/vqheR4m4cp0canznO99pbt++PbZs2VIY+UEPelDked6FPWFy9IlAIpAIJAL7h8DOnTvjpptuKhHNzZ07o39wsOXfbTRaxOsGzEz5OlJ0zDHH5LGi/cM8P50IJAKJQCKwgBHAqUzMN9xwffQv7Y++YmZuRKOxKBoXX3xxs9ncGdu2bS/mZsFVzM2SaWSQ1QKeNTn0RCARSAQSgbuEAN/uDTfcEFdffVXs3NksZuZyjKjRaJmaL7nkkqJ4fd1+++1F+Qqwuu9971tMzkm+dwn3/FAikAgkAonAAkQAl0rDLEUkF267b3dRY1EE1XvppZc2d+7YGTubO4Ov97atW2PH9u1x5JFHxr3uda+S4irJdwHOnhxyIpAIJAKJwD4hgHSR7dXXXB0333xzLO1bWkzMi6lcvl2K1/dLLrm0mJpFYPnQtu3bY+ttt5V/H3HEEXHve9+7kK8rCXif3kHenAgkAolAIrBAEMCh6h7IyyyKmdsWd0rDXAm32SB4x0zNcEG00fR9RyHf27beFtu3bS9m53sfc+84+G4HZ8DVAplAOcxEIBFIBBKB6RFAtkiVT1cu5muuvjq23OqE0NJyZpdftxQeonSj0UqeQfEyNRfFi3ep3mbL36shPl/JNZw9csZXtLPGCkmnAp7+reQdiUAikAgkAvMOgUq4uFBQcit6+YbCoYNK//X1tYKoajDVWDbIonYXNeL/BychcfMzeKEkAAAAAElFTkSuQmCC;" vertex="1" parent="1">
          <mxGeometry x="440" y="1030" width="258" height="280.67" as="geometry" />
        </mxCell>
        <mxCell id="TExF2Mrxx3qCQ28c2zlm-23" value="save" style="rounded=0;whiteSpace=wrap;html=1;strokeWidth=1;" vertex="1" parent="1">
          <mxGeometry x="290" y="510" width="120" height="60" as="geometry" />
        </mxCell>
        <mxCell id="TExF2Mrxx3qCQ28c2zlm-24" value="Yes" style="text;html=1;strokeColor=none;fillColor=none;align=center;verticalAlign=middle;whiteSpace=wrap;rounded=0;" vertex="1" parent="1">
          <mxGeometry x="290" y="710" width="40" height="20" as="geometry" />
        </mxCell>
        <mxCell id="TExF2Mrxx3qCQ28c2zlm-26" value="No" style="text;html=1;strokeColor=none;fillColor=none;align=center;verticalAlign=middle;whiteSpace=wrap;rounded=0;" vertex="1" parent="1">
          <mxGeometry x="590" y="710" width="40" height="20" as="geometry" />
        </mxCell>
        <mxCell id="TExF2Mrxx3qCQ28c2zlm-28" value="&lt;font style=&quot;font-size: 20px&quot;&gt;after 4 seconds,&amp;nbsp;&lt;/font&gt;&lt;span style=&quot;font-size: 20px&quot;&gt;send cocoabird message to show the repair overlays&lt;/span&gt;" style="rounded=1;whiteSpace=wrap;html=1;" vertex="1" parent="1">
          <mxGeometry x="790" y="1000" width="180" height="120" as="geometry" />
        </mxCell>
      </root>
    </mxGraphModel>
  </diagram>
</mxfile>
